<?xml version="1.0" encoding="UTF-8"?>
<svg width="29px" height="29px" viewBox="0 0 29 29" version="1.1" xmlns="http://www.w3.org/2000/svg" xmlns:xlink="http://www.w3.org/1999/xlink">
    <!-- Generator: Sketch 48.2 (47327) - http://www.bohemiancoding.com/sketch -->
    <title>icon (1)</title>
    <desc>Created with Sketch.</desc>
    <defs></defs>
    <g id="Artboard" stroke="none" stroke-width="1" fill="none" fill-rule="evenodd" transform="translate(-112.000000, -177.000000)">
        <g id="Group-3" transform="translate(31.000000, 26.000000)" fill="#424242" fill-rule="nonzero">
            <g id="Group-2" transform="translate(12.000000, 11.000000)">
                <g id="Group" transform="translate(69.000000, 140.000000)">
                    <g id="icon-(1)">
                        <path d="M26.4093333,0 L1.69553333,0 C0.7598,0 0,0.761733333 0,1.69553333 L0,26.4093333 C0,27.3431333 0.761733333,28.1048667 1.69553333,28.1048667 L26.4093333,28.1048667 C27.3431333,28.1048667 28.1048667,27.3431333 28.1048667,26.4093333 L28.1048667,1.69746667 C28.1048667,0.761733333 27.3431333,0 26.4093333,0 Z M26.0690667,26.071 L2.03386667,26.071 L2.03386667,2.0358 L26.0690667,2.0358 L26.0690667,26.071 Z" id="Shape"></path>
                        <path d="M4.11026667,16.9050667 L7.21326667,16.9050667 C7.50326667,16.9050667 7.75846667,16.7098 7.8358,16.4314 L8.787,12.9900667 L10.1461333,20.5378 C10.2060667,20.8684 10.5038,21.1004 10.8382667,21.0656 C11.1708,21.0366 11.4279333,20.7582 11.4279333,20.4237333 L11.4279333,16.9050667 L13.2646,16.9050667 C13.5855333,16.9050667 13.8581333,16.6711333 13.9045333,16.3521333 L14.9214667,9.3554 L17.1293333,21.5450667 C17.1854,21.8505333 17.4522,22.0728667 17.7615333,22.0728667 C17.7634667,22.0728667 17.7634667,22.0728667 17.7654,22.0728667 C18.0747333,22.0728667 18.3415333,21.8544 18.3995333,21.5508667 L19.3855333,16.472 L19.8804667,16.472 L20.6248,17.7325333 C20.7388667,17.9258667 20.9438,18.0457333 21.1680667,18.0496 C21.3788,18.0573333 21.6030667,17.9432667 21.7229333,17.7557333 L22.4634,16.6150667 L23.3546667,16.6150667 C23.7123333,16.6150667 24.0004,16.3250667 24.0004,15.9693333 C24.0004,15.6097333 23.7123333,15.3216667 23.3546667,15.3216667 L22.1134667,15.3216667 C21.8969333,15.3216667 21.6900667,15.4338 21.5721333,15.6155333 L21.2086667,16.1762 L20.8084667,15.4956667 C20.6924667,15.2984667 20.4798,15.1786 20.2516667,15.1786 L18.8538667,15.1786 C18.5445333,15.1786 18.2777333,15.3970667 18.2197333,15.7006 L17.7886,17.9200667 L15.4898667,5.22386667 C15.4338,4.9126 15.1496,4.67673333 14.8422,4.6922 C14.5251333,4.698 14.2583333,4.93193333 14.2138667,5.24706667 L12.7078,15.6097333 L10.7841333,15.6097333 C10.7126,15.6097333 10.6449333,15.6213333 10.5811333,15.6426 L9.5584,9.9644 C9.50426667,9.6686 9.25293333,9.44626667 8.95133333,9.43466667 C8.6188,9.38826667 8.37906667,9.6164 8.2998,9.90833333 L6.72413333,15.6116667 L4.11026667,15.6116667 C3.7526,15.6116667 3.46453333,15.8997333 3.46453333,16.2574 C3.46453333,16.6150667 3.7526,16.9050667 4.11026667,16.9050667 Z" id="Shape"></path>
                    </g>
                </g>
            </g>
        </g>
    </g>
</svg>