<?xml version="1.0" encoding="UTF-8"?>
<svg width="129px" height="129px" viewBox="0 0 129 129" version="1.1" xmlns="http://www.w3.org/2000/svg" xmlns:xlink="http://www.w3.org/1999/xlink">
    <!-- Generator: Sketch 48.2 (47327) - http://www.bohemiancoding.com/sketch -->
    <title>note</title>
    <desc>Created with Sketch.</desc>
    <defs></defs>
    <g id="Artboard" stroke="none" stroke-width="1" fill="none" fill-rule="evenodd" transform="translate(-652.000000, -102.000000)" opacity="0.2">
        <g id="note" transform="translate(652.000000, 102.000000)" fill="#6D6F7B" fill-rule="nonzero">
            <path d="M126.374865,0 L2.62513482,0 C1.17562288,0 0,1.17562288 0,2.62513482 L0,126.374865 C0,127.824377 1.17562288,129 2.62513482,129 L107.814724,129 C109.264236,129 110.439859,127.824377 110.439859,126.374865 C110.439859,124.925353 109.264236,123.74973 107.814724,123.74973 L5.25026964,123.74973 L5.25026964,5.25026964 L123.74973,5.25026964 L123.74973,126.374865 C123.74973,127.824377 124.925353,129 126.374865,129 C127.824377,129 129,127.824377 129,126.374865 L129,2.62513482 C129,1.17562288 127.824377,0 126.374865,0 Z" id="Shape"></path>
            <path d="M29,27 C23.4856522,27 19,31.4856522 19,37 C19,42.5143478 23.4856522,47 29,47 C34.5143478,47 39,42.5143478 39,37 C39,31.4856522 34.5143478,27 29,27 Z M29,41.7826087 C26.3630435,41.7826087 24.2173913,39.6369565 24.2173913,37 C24.2173913,34.3630435 26.3630435,32.2173913 29,32.2173913 C31.6369565,32.2173913 33.7826087,34.3630435 33.7826087,37 C33.7826087,39.6369565 31.6373913,41.7826087 29,41.7826087 Z" id="Shape"></path>
            <path d="M107.394737,35 L46.6052632,35 C45.1667237,35 44,36.1195833 44,37.5 C44,38.8804167 45.1667237,40 46.6052632,40 L107.394737,40 C108.833276,40 110,38.8804167 110,37.5 C110,36.1195833 108.833711,35 107.394737,35 Z" id="Shape"></path>
            <path d="M29,54 C27.5595652,54 26.3913043,55.1682609 26.3913043,56.6086957 C26.3913043,58.0491304 27.5595652,59.2173913 29,59.2173913 C31.6369565,59.2173913 33.7826087,61.3630435 33.7826087,64 C33.7826087,66.6369565 31.6369565,68.7826087 29,68.7826087 C26.3630435,68.7826087 24.2173913,66.6369565 24.2173913,64 C24.2173913,62.5595652 23.0491304,61.3913043 21.6086957,61.3913043 C20.1682609,61.3913043 19,62.5595652 19,64 C19,69.5143478 23.4856522,74 29,74 C34.5143478,74 39,69.5143478 39,64 C39,58.4856522 34.5143478,54 29,54 Z" id="Shape"></path>
            <path d="M107.394737,62 L46.6052632,62 C45.1667237,62 44,63.1195833 44,64.5 C44,65.8804167 45.1667237,67 46.6052632,67 L107.394737,67 C108.833276,67 110,65.8804167 110,64.5 C110,63.1195833 108.833711,62 107.394737,62 Z" id="Shape"></path>
            <path d="M29,82 C23.4856522,82 19,86.4856522 19,92 C19,97.5143478 23.4856522,102 29,102 C34.5143478,102 39,97.5143478 39,92 C39,86.4856522 34.5143478,82 29,82 Z M29,96.7826087 C26.3630435,96.7826087 24.2173913,94.6369565 24.2173913,92 C24.2173913,89.3630435 26.3630435,87.2173913 29,87.2173913 C31.6369565,87.2173913 33.7826087,89.3630435 33.7826087,92 C33.7826087,94.6369565 31.6373913,96.7826087 29,96.7826087 Z" id="Shape"></path>
            <path d="M107.394737,89 L46.6052632,89 C45.1667237,89 44,90.1195833 44,91.5 C44,92.8804167 45.1667237,94 46.6052632,94 L107.394737,94 C108.833276,94 110,92.8804167 110,91.5 C110,90.1195833 108.833711,89 107.394737,89 Z" id="Shape"></path>
        </g>
    </g>
</svg>