<?xml version="1.0" encoding="UTF-8"?>
<svg width="180px" height="180px" viewBox="0 0 180 180" version="1.1" xmlns="http://www.w3.org/2000/svg" xmlns:xlink="http://www.w3.org/1999/xlink">
    <!-- Generator: Sketch 48.2 (47327) - http://www.bohemiancoding.com/sketch -->
    <title>loupe</title>
    <desc>Created with Sketch.</desc>
    <defs></defs>
    <g id="Page-1" stroke="none" stroke-width="1" fill="none" fill-rule="evenodd" opacity="0.200000018">
        <g id="Group-2" transform="translate(-738.000000, -232.000000)" fill="#6D6F7B" fill-rule="nonzero">
            <g id="Group" transform="translate(634.000000, 232.000000)">
                <g id="loupe" transform="translate(104.000000, 0.000000)">
                    <path d="M117.991495,0 C83.8001214,0 55.9829892,27.8168035 55.9829892,62.0086393 C55.9829892,76.0774082 60.6956356,89.0642333 68.6206725,99.4805184 L56.0591878,112.04203 C55.9794903,112.121728 55.9067907,112.205702 55.8379788,112.292009 C54.8096872,112.077797 53.7530157,111.965443 52.6784607,111.965443 C48.5769577,111.965443 44.7203786,113.562894 41.8190026,116.464276 L4.49765767,153.785702 C1.59705919,156.685529 0,160.541728 0,164.643629 C0,168.745529 1.59705919,172.602117 4.4972689,175.501166 C7.39864493,178.402549 11.2552241,180 15.3567271,180 C19.4582301,180 23.3148093,178.402549 26.2161853,175.501166 L63.5375302,138.179741 C66.4381286,135.280302 68.0351878,131.424104 68.0351878,127.321814 C68.0351878,126.246868 67.9228339,125.189806 67.7086227,124.161512 C67.7949292,124.093089 67.8785143,124.020389 67.9582118,123.940691 L80.5193077,111.379568 C90.9359591,119.305011 103.922756,124.017279 117.991495,124.017279 C152.182868,124.017279 180,96.2004752 180,62.0086393 C180,27.8168035 152.182868,0 117.991495,0 Z M22.0921337,171.377883 C20.2925264,173.177495 17.9008253,174.168467 15.3567271,174.168467 C12.8126289,174.168467 10.4209278,173.177495 8.6209317,171.377495 C6.8221019,169.579438 5.83152088,167.188121 5.83152088,164.643629 C5.83152088,162.099136 6.8221019,159.707819 8.62132047,157.909374 L42.3267336,124.203888 L55.7963806,137.673564 L22.0921337,171.377883 Z M59.8994387,133.529676 L46.4760551,120.106263 C48.254669,118.576069 50.4640379,117.802419 52.6784607,117.802419 C55.1175915,117.802419 57.5574999,118.731188 59.4142561,120.588337 C61.2130859,122.386393 62.2036669,124.777711 62.2036669,127.322203 C62.2036669,129.626048 61.3888091,131.803153 59.8994387,133.529676 Z M65.2080665,118.444276 C64.7112209,117.746048 64.1560601,117.082419 63.5379189,116.464665 C62.9190002,115.846134 62.2545956,115.290583 61.5559794,114.793348 L72.3796709,103.969633 C73.5459751,105.236631 74.7643742,106.455032 76.0313693,107.621339 L65.2080665,118.444276 Z M117.991495,118.185745 C87.0152332,118.185745 61.8145101,92.9849676 61.8145101,62.0086393 C61.8145101,31.032311 87.0152332,5.83153348 117.991495,5.83153348 C148.967756,5.83153348 174.168479,31.032311 174.168479,62.0086393 C174.168479,92.9849676 148.967756,118.185745 117.991495,118.185745 Z" id="Shape"></path>
                    <path d="M118.365759,12.6070039 C90.9457505,12.6070039 68.6381323,34.9146221 68.6381323,62.3346304 C68.6381323,89.7546386 90.9457505,112.062257 118.365759,112.062257 C145.785767,112.062257 168.093385,89.7546386 168.093385,62.3346304 C168.093385,34.9146221 145.785767,12.6070039 118.365759,12.6070039 Z M118.365759,106.211948 C94.1720009,106.211948 74.4884413,86.5287782 74.4884413,62.3346304 C74.4884413,38.1404825 94.1720009,18.4573129 118.365759,18.4573129 C142.559517,18.4573129 162.243076,38.1404825 162.243076,62.3346304 C162.243076,86.5287782 142.559517,106.211948 118.365759,106.211948 Z" id="Shape"></path>
                    <path d="M138.350592,30.5880899 C136.981149,29.712688 135.147596,30.0915644 134.254893,31.4348536 C133.36219,32.7777557 133.748949,34.576161 135.118392,35.4511759 C144.165394,41.2330081 149.566601,50.9978803 149.566601,61.5723639 C149.566601,68.7965581 146.987945,75.8373128 142.305399,81.397005 C141.264307,82.6327072 141.442295,84.4624597 142.702814,85.4833749 C143.254537,85.930364 143.922289,86.1478599 144.586093,86.1478599 C145.438542,86.1478599 146.284675,85.7883337 146.869944,85.0936624 C152.42625,78.4964138 155.486381,70.1429433 155.486381,61.5727509 C155.486776,49.0284195 149.080785,37.4457919 138.350592,30.5880899 Z" id="Shape"></path>
                    <path d="M125.110118,25.8174245 C122.925561,25.4170623 120.68301,25.2140078 118.444684,25.2140078 C116.853506,25.2140078 115.564202,26.5005306 115.564202,28.0874208 C115.564202,29.674311 116.853506,30.9608338 118.444684,30.9608338 C120.335048,30.9608338 122.227332,31.1320893 124.069304,31.4696195 C124.245589,31.5018017 124.420338,31.5175097 124.593167,31.5175097 C125.956211,31.5175097 127.16755,30.5478286 127.422952,29.1628435 C127.710232,27.6020056 126.674795,26.1043827 125.110118,25.8174245 Z" id="Shape"></path>
                </g>
            </g>
        </g>
    </g>
</svg>