<?xml version="1.0" encoding="UTF-8"?>
<svg width="50px" height="50px" viewBox="0 0 50 50" version="1.1" xmlns="http://www.w3.org/2000/svg" xmlns:xlink="http://www.w3.org/1999/xlink">
    <!-- Generator: Sketch 48.2 (47327) - http://www.bohemiancoding.com/sketch -->
    <title>twitter</title>
    <desc>Created with Sketch.</desc>
    <defs></defs>
    <g id="Artboard-Copy" stroke="none" stroke-width="1" fill="none" fill-rule="evenodd" transform="translate(-1569.000000, -132.000000)">
        <g id="Group" transform="translate(1379.000000, 132.000000)">
            <g id="twitter" transform="translate(190.000000, 0.000000)">
                <path d="M46.6007273,13.1176471 C45.0327273,13.8382353 43.3425455,14.3117647 41.5912727,14.5382353 C43.3832727,13.4470588 44.768,11.7176471 45.4196364,9.63823529 C43.7294545,10.6676471 41.856,11.3882353 39.8807273,11.8 C38.272,10.0294118 36.0116364,9 33.4458182,9 C28.6603636,9 24.7505455,12.9529412 24.7505455,17.8323529 C24.7505455,18.5323529 24.832,19.2117647 24.9745455,19.85 C17.7250909,19.4794118 11.2698182,15.9588235 6.97309091,10.6264706 C6.21963636,11.9235294 5.792,13.4470588 5.792,15.0529412 C5.792,18.1205882 7.31927273,20.8382353 9.68145455,22.3823529 C8.23563636,22.3823529 6.89163636,21.9705882 5.71054545,21.3529412 C5.71054545,21.3529412 5.71054545,21.3529412 5.71054545,21.4147059 C5.71054545,25.6970588 8.72436364,29.2794118 12.7156364,30.0823529 C11.9825455,30.2882353 11.2087273,30.3911765 10.4145455,30.3911765 C9.86472727,30.3911765 9.31490909,30.3294118 8.78545455,30.2264706 C9.88509091,33.7058824 13.0821818,36.3 16.9309091,36.3617647 C13.9578182,38.75 10.1905455,40.15 6.07709091,40.15 C5.38472727,40.15 4.69236364,40.1088235 4,40.0264706 C7.86909091,42.5382353 12.4712727,44 17.3992727,44 C33.4458182,44 42.2632727,30.5352941 42.2632727,18.8617647 C42.2632727,18.4705882 42.2632727,18.1 42.2429091,17.7088235 C43.9534545,16.4735294 45.4196364,14.9088235 46.6007273,13.1176471 Z" id="Shape" fill="#00713F" fill-rule="nonzero"></path>
            </g>
        </g>
    </g>
</svg>