<svg version="1" xmlns="http://www.w3.org/2000/svg" width="576" height="576" viewBox="0 0 432.000000 432.000000"><path d="M147 13c0 .6-.5.8-1.1.5-1.4-.9-8.1.4-7.5 1.4.3.4-.7.8-2.2.9-1.5 0-4 .8-5.7 1.6-1.6.9-3.6 1.6-4.2 1.6-.7 0-1.3.7-1.3 1.5s-.6 1.5-1.4 1.5c-1.5 0-9.6 7.1-9.6 8.4 0 .5-1.1 1.7-2.5 2.8-1.4 1.1-2.3 2.3-2.1 2.7.3.4-1.1 2.2-2.9 4-1.9 1.8-3.5 4-3.5 4.9 0 .9-1.1 4.4-2.5 7.7-3.6 8.8-3.4 10.9 1.5 12.9 2.2.9 4.5 1.6 5.1 1.6.6 0 1.7.7 2.5 1.5.9.8 3.3 1.5 5.4 1.5 2.1 0 4 .5 4.2 1.1.5 1.6 21.3 3.2 31.2 2.4 12.6-.9 26-3.9 42.4-9.4 8.5-2.8 17.5-5.2 20-5.4 4.7-.2 4.7-.2 5 3.3.2 1.9-1.1 8.9-2.9 15.6l-3.2 12-9.1-1.7c-23.5-4.6-54.9-5.1-67.2-1.1-30 9.6-56.1 38.2-70.4 77.2-7.8 21.1-11.2 41.5-11.1 65.4.2 34.7 4.5 49.3 26.3 90.3 13.3 25 16.9 32 24.7 48.3 3.2 6.9 7.5 14.6 9.5 17.2 4.2 5.4 4.3 5.8 1.6 5.8-1.1 0-2 .4-2 1 0 .5-2.5 1-5.5 1s-5.5.4-5.5 1c0 .5-.9 1-1.9 1-1.1 0-2.2.4-2.5.9-.4.5-2.9 1.2-5.6 1.6l-5 .7v3.8c0 3.5.3 4 3.5 5.1 1.9.7 3.5 1.7 3.5 2.1 0 .4 1.2.8 2.8.8 1.5 0 4.2.4 6.1 1 1.9.5 10.9 1.2 20 1.5 16.4.6 39.8 2.8 47.6 4.5 15 3.3 60.6 3.6 76 .5 11.4-2.3 25-3 41-2.2 8.9.4 16.8.3 19.5-.3 2.5-.5 7.8-1.5 11.8-2.2 6.8-1.2 7.2-1.4 7.2-3.9 0-2.8-5.8-8.9-8.5-8.9-.8 0-1.5-.2-1.5-.4 0-.3 2.5-3.8 5.5-7.8 7-9.2 13.2-21.3 23.3-45.3 4.4-10.5 11.8-27.6 16.5-38 15.7-35.1 19.6-50.2 20.4-79.5.8-28.5-2.8-50.9-11.8-72.8-14.1-34.5-38.3-57.9-72.4-69.9-7.4-2.6-9.1-2.8-23-2.7-12.6 0-17.7.5-31.9 3.2-9.3 1.8-17 3.2-17.2 3.2-2.5 0 6.8-20 11-23.9 3.9-3.7 3.4-5.8-1.6-7.1-2.4-.6-6.1-1.7-8.3-2.5-2.3-.8-5-1.5-6-1.5-6.7 0-9.5-2-17.6-12.3-9.7-12.4-19.6-20.7-30.9-26-7.4-3.5-9.6-4.1-17.2-4.4-6.1-.3-8.8-.1-8.8.7zm164.9 137c10.4 2 21 7.4 23 11.6 1.9 4.2 2.4 9.1 1 10-.8.4-4.1.9-7.4.9-3.6.1-9.2 1.2-14 2.9-8.6 2.9-19.2 4.4-22.2 3.1-1-.5-4-.9-6.7-1-5.4-.3-6.4-1.3-6.5-6.8-.1-3.7 7.4-18.1 10.7-20.8 2.2-1.7 3.5-1.9 10-1.4 4 .3 9.5 1 12.1 1.5zm-58.7 9c1.7 2.3 1.7 3.2.8 7.8-1.3 5.7-2.1 6.6-4.9 5.7-2.8-.9-5.6-13.7-3.4-15.9 1.4-1.4 5.6 0 7.5 2.4z"/></svg>