<?xml version="1.0" encoding="utf-8"?>
<!-- Generator: Adobe Illustrator 16.0.3, SVG Export Plug-In . SVG Version: 6.00 Build 0)  -->
<!DOCTYPE svg PUBLIC "-//W3C//DTD SVG 1.1//EN" "http://www.w3.org/Graphics/SVG/1.1/DTD/svg11.dtd">
<svg version="1.1" id="Layer_1" xmlns="http://www.w3.org/2000/svg" xmlns:xlink="http://www.w3.org/1999/xlink" x="0px" y="0px"
	 width="66px" height="66px" viewBox="0 0 66 66" enable-background="new 0 0 66 66" xml:space="preserve">
<g>
	<path d="M22.844,10.657C22.844,5.071,27.414,0.5,33,0.5s10.158,4.569,10.158,10.157v4.063c0,5.586,4.568,10.156,10.152,10.156
		c1.119,0,2.033,0.915,2.033,2.031v10.156h2.031c1.117,0,2.029,0.914,2.029,2.031v2.031h4.064v2.031h-4.064
		c-1.115,0-2.029-0.915-2.029-2.031v-2.031h-2.031V65.5H10.658V39.095H8.625v2.031c0,1.116-0.914,2.031-2.031,2.031H2.531v-2.031
		h4.063v-2.031c0-1.117,0.914-2.031,2.031-2.031h2.033V26.907c0-1.117,0.912-2.031,2.029-2.031c5.586,0,10.156-4.57,10.156-10.156
		V10.657z M41.125,14.719h-16.25c0,6.704-5.484,12.188-12.188,12.188V63.47h40.625V26.907
		C46.609,26.907,41.125,21.423,41.125,14.719z M24.875,57.376c-2.234,0-4.063-1.828-4.063-4.063v-16.25h24.375v16.25
		c0,2.233-1.828,4.063-4.063,4.063H24.875z M22.844,41.126h20.314v-2.031H22.844V41.126z M41.125,55.346
		c1.117,0,2.033-0.915,2.033-2.032V43.157H22.844v10.156c0,1.116,0.916,2.031,2.031,2.031L41.125,55.346L41.125,55.346z
		 M24.875,12.688h16.25v-2.031c0-4.469-3.656-8.125-8.125-8.125s-8.125,3.656-8.125,8.125V12.688z"/>
</g>
</svg>
