<?xml version="1.0" encoding="utf-8"?>
<!-- Generator: Adobe Illustrator 16.0.3, SVG Export Plug-In . SVG Version: 6.00 Build 0)  -->
<!DOCTYPE svg PUBLIC "-//W3C//DTD SVG 1.1//EN" "http://www.w3.org/Graphics/SVG/1.1/DTD/svg11.dtd">
<svg version="1.1" id="Layer_1" xmlns="http://www.w3.org/2000/svg" xmlns:xlink="http://www.w3.org/1999/xlink" x="0px" y="0px"
	 width="66px" height="66px" viewBox="0 0 66 66" enable-background="new 0 0 66 66" xml:space="preserve">
<g>
	<g id="_x32_6_x5F_trail_x5F_map">
		<g>
			<polyline fill="none" stroke="#000000" stroke-width="2.0968" stroke-linejoin="round" stroke-miterlimit="10" points="
				34.956,55.938 22.516,63.402 0.5,50.822 0.5,2.598 22.516,15.177 43.482,2.598 65.5,15.177 65.5,63.402 52.305,55.861 			"/>
			
				<line fill="none" stroke="#000000" stroke-width="2.0968" stroke-linejoin="round" stroke-miterlimit="10" x1="22.516" y1="15.177" x2="22.516" y2="63.402"/>
			
				<line fill="none" stroke="#000000" stroke-width="2.0968" stroke-linejoin="round" stroke-miterlimit="10" x1="43.482" y1="2.598" x2="43.482" y2="26.709"/>
			<path fill="none" stroke="#000000" stroke-width="2.0968" stroke-linejoin="round" stroke-miterlimit="10" d="M52.919,39.29
				c0,5.212-9.437,24.112-9.437,24.112s-9.435-18.9-9.435-24.112c0-5.211,4.224-9.435,9.435-9.435
				C48.695,29.855,52.919,34.079,52.919,39.29z"/>
			
				<circle fill="none" stroke="#000000" stroke-width="2.0968" stroke-linejoin="round" stroke-miterlimit="10" cx="43.482" cy="39.291" r="5.242"/>
			<polygon fill="none" stroke="#000000" stroke-width="2.0968" stroke-linejoin="round" stroke-miterlimit="10" points="
				18.323,56.064 4.693,47.678 4.693,9.937 18.323,18.323 			"/>
			
				<line fill="none" stroke="#000000" stroke-width="2.0968" stroke-linejoin="round" stroke-miterlimit="10" x1="10.984" y1="27.758" x2="10.984" y2="29.855"/>
			
				<line fill="none" stroke="#000000" stroke-width="2.0968" stroke-linejoin="round" stroke-miterlimit="10" x1="10.984" y1="31.952" x2="10.984" y2="34.049"/>
			
				<line fill="none" stroke="#000000" stroke-width="2.0968" stroke-linejoin="round" stroke-miterlimit="10" x1="10.984" y1="36.146" x2="10.984" y2="38.242"/>
		</g>
	</g>
	<g id="Layer_1_1_">
	</g>
</g>
</svg>
