<?xml version="1.0" encoding="utf-8"?>
<!-- Generator: Adobe Illustrator 16.0.3, SVG Export Plug-In . SVG Version: 6.00 Build 0)  -->
<!DOCTYPE svg PUBLIC "-//W3C//DTD SVG 1.1//EN" "http://www.w3.org/Graphics/SVG/1.1/DTD/svg11.dtd">
<svg version="1.1" id="Layer_1" xmlns="http://www.w3.org/2000/svg" xmlns:xlink="http://www.w3.org/1999/xlink" x="0px" y="0px"
	 width="66px" height="66px" viewBox="0 0 66 66" enable-background="new 0 0 66 66" xml:space="preserve">
<g transform="matrix(1,0,0,1,0,-1785)">
	<path d="M4.978,1800.083v-3.161c0.01-0.151,0.004-0.191,0.042-0.343c0.083-0.339,0.292-0.639,0.58-0.837
		c0.127-0.088,0.166-0.097,0.307-0.16l26.592-9.991c0.146-0.046,0.181-0.063,0.333-0.081c0.057-0.009,0.114-0.009,0.171-0.011
		c0.057,0.002,0.114,0.005,0.171,0.011c0.169,0.029,0.169,0.029,0.333,0.081l26.592,9.991c0.141,0.063,0.18,0.072,0.307,0.16
		c0.287,0.198,0.497,0.498,0.579,0.837c0.038,0.151,0.032,0.191,0.042,0.343v3.161h2.323c0.058,0.003,0.114,0.009,0.172,0.012
		c0.151,0.029,0.192,0.029,0.336,0.083c0.161,0.06,0.312,0.151,0.441,0.267c0.173,0.152,0.308,0.346,0.389,0.563
		c0.041,0.109,0.069,0.221,0.083,0.335c0.007,0.057,0.007,0.114,0.011,0.172v5.817c-0.004,0.058-0.004,0.115-0.011,0.172
		c-0.014,0.115-0.042,0.227-0.083,0.336c-0.061,0.163-0.151,0.312-0.267,0.441c-0.153,0.174-0.349,0.309-0.563,0.389
		c-0.108,0.043-0.221,0.069-0.336,0.083c-0.057,0.008-0.114,0.008-0.172,0.012h-2.634c0.001,0.435,0.001,0.87-0.002,1.306
		c-0.002,0.121-0.01,0.241-0.024,0.358c-0.027,0.223-0.079,0.443-0.152,0.655c-0.133,0.389-0.341,0.75-0.608,1.063
		c-0.141,0.16-0.297,0.31-0.466,0.441v25.408c0.116,0.092,0.226,0.188,0.33,0.295c0.324,0.332,0.574,0.732,0.731,1.171
		c0.085,0.234,0.142,0.48,0.169,0.732c0.013,0.106,0.019,0.212,0.021,0.318v0.036v1.271c0.132,0.004,0.265,0.012,0.396,0.026
		c0.325,0.037,0.646,0.111,0.952,0.224c0.549,0.203,1.052,0.521,1.469,0.928c0.467,0.455,0.824,1.019,1.033,1.639
		c0.093,0.277,0.157,0.563,0.191,0.855c0.017,0.155,0.025,0.313,0.026,0.469v3.107c-0.004,0.057-0.004,0.115-0.011,0.172
		c-0.014,0.114-0.042,0.229-0.083,0.335c-0.061,0.163-0.151,0.312-0.267,0.444c-0.153,0.172-0.349,0.307-0.563,0.386
		c-0.108,0.043-0.221,0.069-0.336,0.084c-0.057,0.009-0.114,0.009-0.172,0.011H2.655c-0.057-0.002-0.115-0.002-0.172-0.011
		c-0.115-0.015-0.227-0.041-0.336-0.084c-0.215-0.079-0.41-0.214-0.563-0.386c-0.115-0.133-0.206-0.281-0.267-0.444
		c-0.041-0.105-0.069-0.221-0.083-0.335c-0.006-0.057-0.006-0.115-0.011-0.172c0-1.051-0.006-2.104,0.001-3.155
		c0.002-0.16,0.013-0.317,0.033-0.473c0.036-0.292,0.104-0.578,0.202-0.854c0.21-0.598,0.56-1.146,1.014-1.589
		c0.418-0.406,0.921-0.725,1.471-0.928c0.307-0.112,0.626-0.187,0.951-0.224c0.13-0.015,0.261-0.022,0.394-0.026
		c-0.001-0.435-0.001-0.873,0.002-1.308c0.002-0.106,0.007-0.212,0.021-0.318c0.027-0.252,0.083-0.498,0.168-0.732
		c0.166-0.465,0.437-0.885,0.789-1.229c0.087-0.083,0.179-0.162,0.273-0.237v-25.407c-0.168-0.131-0.325-0.281-0.465-0.441
		c-0.268-0.312-0.476-0.673-0.609-1.063c-0.073-0.212-0.125-0.433-0.152-0.656c-0.015-0.117-0.022-0.236-0.024-0.357v-0.038v-1.268
		H2.655c-0.057-0.003-0.115-0.003-0.172-0.012c-0.115-0.014-0.227-0.04-0.336-0.083c-0.215-0.081-0.41-0.215-0.563-0.389
		c-0.115-0.129-0.206-0.278-0.267-0.441c-0.041-0.109-0.069-0.221-0.083-0.336c-0.006-0.057-0.006-0.114-0.011-0.172v-5.818
		c0.004-0.057,0.004-0.114,0.011-0.171c0.014-0.115,0.042-0.227,0.083-0.335c0.061-0.162,0.151-0.312,0.267-0.441
		c0.154-0.174,0.349-0.309,0.563-0.389c0.109-0.043,0.221-0.069,0.336-0.083c0.057-0.009,0.115-0.009,0.172-0.012H4.978
		L4.978,1800.083z M47.05,1844.642c-2.586-0.003-5.17-0.003-7.755-0.003c-0.058,0.015-0.117,0.025-0.178,0.034
		c-0.057,0.007-0.114,0.007-0.172,0.009H27.057c-0.057-0.002-0.115-0.002-0.172-0.009c-0.036-0.006-0.071-0.011-0.106-0.018
		c-2.657,0.004-5.313,0.009-7.97,0.016c-0.057,0.005-0.109,0.005-0.198,0.011H6.722H6.719c-0.449,0-0.897,0-1.346,0
		c-0.146,0.003-0.292,0.025-0.43,0.072c-0.358,0.129-0.648,0.415-0.778,0.77c-0.053,0.144-0.077,0.295-0.078,0.446v1.667h57.828
		c0-0.566,0.011-1.137,0-1.703c-0.004-0.146-0.031-0.29-0.083-0.424c-0.132-0.35-0.42-0.631-0.772-0.756
		c-0.132-0.047-0.27-0.069-0.409-0.072c-0.414,0-0.828-0.002-1.242-0.006c-0.042,0.004-0.085,0.004-0.128,0.006H47.392
		c-0.057-0.002-0.115-0.002-0.172-0.009C47.162,1844.664,47.105,1844.655,47.05,1844.642z M57.522,1840.181
		c-0.013-0.004-0.025-0.004-0.039-0.004c-2.706-0.068-5.413-0.002-8.12-0.002l-0.027,0.002h-0.061h-0.068H49.2
		c-0.049,0-0.098,0.009-0.144,0.029c-0.1,0.04-0.178,0.123-0.212,0.226c-0.014,0.038-0.021,0.078-0.021,0.117v0.009v1.212
		c3.008,0.009,6.017,0.02,9.024,0.034v-1.246c0-0.009,0-0.017-0.001-0.027c-0.001-0.018-0.003-0.035-0.007-0.05
		c-0.008-0.043-0.023-0.079-0.044-0.117C57.739,1840.264,57.637,1840.197,57.522,1840.181z M16.855,1840.181
		c-0.014-0.004-0.027-0.004-0.041-0.004c-2.759-0.068-5.519,0-8.276,0H8.531c-0.05,0-0.099,0.009-0.145,0.029
		c-0.097,0.04-0.174,0.121-0.21,0.221c-0.014,0.036-0.021,0.077-0.022,0.117c0,0.009,0,0.009,0,0.014v1.246
		c3.008-0.015,6.017-0.025,9.025-0.034v-1.212c0-0.009,0-0.017,0-0.027c-0.001-0.018-0.004-0.035-0.007-0.05
		c-0.007-0.036-0.019-0.067-0.035-0.1c-0.044-0.085-0.12-0.152-0.209-0.184C16.904,1840.189,16.879,1840.184,16.855,1840.181z
		 M45.96,1808.766h-5.581c0,0.435,0,0.87-0.002,1.306c-0.002,0.105-0.009,0.212-0.02,0.317c-0.029,0.252-0.086,0.499-0.17,0.733
		c-0.175,0.489-0.467,0.93-0.847,1.283c-0.068,0.065-0.141,0.125-0.216,0.183v25.408c0.117,0.092,0.229,0.188,0.331,0.295
		c0.314,0.323,0.561,0.71,0.718,1.133c0.087,0.235,0.147,0.481,0.179,0.73c0.015,0.121,0.022,0.238,0.024,0.358v0.036v1.201
		c1.86,0.003,3.722,0.005,5.581,0.011c0-0.416,0-0.831,0.003-1.248c0.001-0.106,0.008-0.212,0.02-0.318
		c0.029-0.264,0.09-0.523,0.183-0.771c0.157-0.423,0.403-0.811,0.719-1.133c0.104-0.106,0.213-0.203,0.33-0.295v-25.408
		c-0.074-0.057-0.146-0.117-0.216-0.183c-0.369-0.344-0.656-0.77-0.833-1.246c-0.093-0.248-0.153-0.508-0.183-0.771
		c-0.012-0.105-0.019-0.212-0.02-0.317l-0.001-0.038V1808.766z M25.625,1808.766h-5.582c0.001,0.435,0.001,0.87-0.002,1.306
		c-0.001,0.105-0.007,0.215-0.019,0.32c-0.028,0.25-0.085,0.496-0.17,0.734c-0.174,0.486-0.467,0.927-0.846,1.28
		c-0.07,0.065-0.142,0.125-0.216,0.183v25.408c0.043,0.031,0.085,0.067,0.126,0.103c0.413,0.355,0.732,0.815,0.923,1.325
		c0.087,0.235,0.147,0.481,0.179,0.73c0.015,0.121,0.021,0.238,0.023,0.358l0.001,0.036v1.213c1.861-0.007,3.72-0.009,5.581-0.012
		c0-0.412,0-0.825,0.002-1.237c0.002-0.12,0.01-0.237,0.025-0.358c0.031-0.249,0.091-0.495,0.179-0.73
		c0.157-0.423,0.403-0.81,0.718-1.133c0.104-0.106,0.213-0.203,0.33-0.295v-25.408c-0.17-0.131-0.326-0.281-0.467-0.441
		c-0.267-0.312-0.474-0.673-0.608-1.063c-0.073-0.212-0.124-0.433-0.152-0.655c-0.015-0.117-0.022-0.237-0.025-0.358v-0.038
		V1808.766L25.625,1808.766z M37.187,1840.181c-0.013-0.004-0.025-0.004-0.038-0.004c-2.706-0.068-5.413-0.002-8.12-0.002
		l-0.027,0.002h-0.061h-0.069h-0.006c-0.049,0-0.098,0.009-0.144,0.029c-0.099,0.04-0.178,0.123-0.212,0.226
		c-0.014,0.038-0.021,0.078-0.021,0.117l-0.001,0.009v1.188c3.008-0.002,6.017-0.002,9.025,0v-1.188c0-0.009-0.001-0.02-0.001-0.027
		c-0.001-0.018-0.003-0.035-0.006-0.05c-0.01-0.043-0.025-0.083-0.048-0.119C37.401,1840.261,37.299,1840.194,37.187,1840.181z
		 M56.597,1813.275c-2.174,0.012-4.347,0.012-6.521,0v24.033c2.175-0.015,4.348-0.015,6.521,0V1813.275z M36.262,1813.275
		c-2.173,0.012-4.348,0.012-6.521,0v24.033c2.173-0.015,4.348-0.015,6.521,0V1813.275z M9.406,1813.275v24.033
		c2.174-0.015,4.347-0.015,6.522,0v-24.033C13.753,1813.287,11.58,1813.287,9.406,1813.275z M57.849,1808.766h-9.024v1.259
		c0,0.012,0,0.023,0.001,0.035c0.001,0.017,0.003,0.031,0.007,0.048c0.008,0.041,0.023,0.077,0.043,0.112
		c0.064,0.108,0.181,0.181,0.307,0.186l0.107,0.006h7.255c0.308-0.003,0.615-0.003,0.922-0.003c0.01,0,0.02,0,0.029-0.003
		c0.04-0.002,0.079-0.011,0.116-0.026c0.096-0.037,0.172-0.114,0.211-0.208c0.018-0.046,0.025-0.095,0.026-0.146V1808.766
		L57.849,1808.766z M37.513,1808.766H28.49v1.259c0,0.012,0,0.023,0,0.035c0.002,0.017,0.004,0.031,0.008,0.048
		c0.008,0.041,0.022,0.077,0.043,0.112c0.063,0.108,0.181,0.181,0.306,0.186l0.106,0.006h7.257c0.307-0.003,0.613-0.003,0.921-0.003
		c0.01,0,0.02,0,0.029-0.003c0.04-0.002,0.078-0.011,0.116-0.026c0.095-0.037,0.172-0.114,0.21-0.208
		c0.018-0.046,0.026-0.095,0.026-0.146V1808.766z M17.179,1808.766H8.154v1.259c0,0.012,0.001,0.023,0.001,0.035
		c0.001,0.017,0.004,0.031,0.008,0.048c0.008,0.041,0.022,0.077,0.043,0.112c0.063,0.108,0.181,0.181,0.307,0.186l0.106,0.006h7.256
		c0.308-0.003,0.614-0.003,0.922-0.003c0.01,0,0.019,0,0.029-0.003c0.04-0.002,0.079-0.011,0.116-0.026
		c0.095-0.037,0.172-0.114,0.21-0.208c0.018-0.046,0.027-0.095,0.027-0.146V1808.766L17.179,1808.766z M61.915,1802.947H4.087v2.954
		h2.634h0.001h11.889l0,0h8.445h0.001h11.888l0,0h8.446l0,0H59.28h0.001h2.634V1802.947L61.915,1802.947z M58.162,1800.083v-2.17
		l-25.161-9.452l-25.161,9.452v2.17H58.162z"/>
</g>
</svg>
