<?xml version="1.0" encoding="utf-8"?>
<!-- Generator: Adobe Illustrator 16.0.3, SVG Export Plug-In . SVG Version: 6.00 Build 0)  -->
<!DOCTYPE svg PUBLIC "-//W3C//DTD SVG 1.1//EN" "http://www.w3.org/Graphics/SVG/1.1/DTD/svg11.dtd">
<svg version="1.1" id="Layer_1" xmlns="http://www.w3.org/2000/svg" xmlns:xlink="http://www.w3.org/1999/xlink" x="0px" y="0px"
	 width="66px" height="66px" viewBox="0 0 66 66" enable-background="new 0 0 66 66" xml:space="preserve">
<g>
	<path d="M32.148,23.654c0.601,0,1.084-0.485,1.084-1.086v-0.62c0-0.599-0.483-1.085-1.084-1.085s-1.086,0.486-1.086,1.085v0.62
		C31.062,23.169,31.548,23.654,32.148,23.654z"/>
	<path d="M35.561,23.654c0.601,0,1.086-0.485,1.086-1.086v-0.62c0-0.599-0.485-1.085-1.086-1.085c-0.6,0-1.086,0.486-1.086,1.085
		v0.62C34.475,23.169,34.961,23.654,35.561,23.654z"/>
	<path d="M65.5,36.996c0-0.598-0.486-1.086-1.085-1.086h-2.794V23.656v-0.271V7.233c0-3.854-3.305-6.993-7.368-6.993
		s-7.371,3.137-7.371,6.993v5.717H34.434c-0.347-0.114-0.74-0.051-1.036,0.195l-5.615,4.682c-0.123,0.102-0.221,0.229-0.289,0.375
		l-2.226,4.769c-0.068,0.146-0.102,0.3-0.102,0.46v12.48h-8.501c0.356-0.437,0.569-0.986,0.569-1.591
		c0-0.608-0.217-1.168-0.578-1.605c0.017-0.08,0.023-0.164,0.015-0.25l-0.256-2.894c-0.032-0.362-0.291-0.663-0.644-0.752
		L12.57,28.02l-1.118-3.124h1.303c0.471,0,0.853-0.382,0.853-0.854s-0.382-0.854-0.853-0.854h-2.516H4.534H3.757
		c-0.471,0-0.854,0.382-0.854,0.854c0,0.397,0.272,0.729,0.64,0.823l-0.718,4.628c-0.769,0.78-1.243,1.849-1.243,3.028
		c0,1.372,0.645,2.597,1.646,3.387H1.586c-0.6,0-1.086,0.488-1.086,1.086c0,0.601,0.486,1.087,1.086,1.087H48.1L33.183,64.134
		c-0.297,0.521-0.118,1.185,0.402,1.482c0.171,0.097,0.356,0.144,0.537,0.144c0.378,0,0.744-0.195,0.944-0.547l15.535-27.132h4.965
		L44.661,57.854c-0.292,0.523-0.099,1.187,0.427,1.478c0.166,0.091,0.348,0.136,0.523,0.136c0.383,0,0.755-0.203,0.951-0.563
		l11.484-20.821h4.521l-7.137,13.573c-0.279,0.529-0.074,1.187,0.457,1.466c0.158,0.083,0.332,0.124,0.504,0.124
		c0.39,0,0.768-0.21,0.961-0.578l7.848-14.923C65.389,37.548,65.5,37.286,65.5,36.996z M36.646,33.557l-3.522-4.473h3.522V33.557z
		 M35.614,35.756h-3.777v-4.793L35.614,35.756z M53.766,15.124l4.642,4.125l0.774,3.167H42.786l-2.07-4.231
		c-0.069-0.139-0.164-0.26-0.282-0.357l-3.26-2.703L53.766,15.124L53.766,15.124z M43.163,24.585H59.45v11.17H43.163V24.585z
		 M54.255,2.412c2.864,0,5.195,2.163,5.195,4.819v0.601H49.055V7.233C49.057,4.575,51.389,2.412,54.255,2.412z M49.057,9.539h10.396
		v7.733l-4.557-4.046c-0.198-0.176-0.455-0.273-0.721-0.273h-5.119V9.539z M27.339,23.671l2.022-4.331l4.737-3.947l4.771,3.955
		l2.122,4.334v12.074h-2.172V28c0-0.602-0.486-1.087-1.088-1.087h-6.979c-0.6,0-1.084,0.485-1.084,1.087v7.755h-2.328V23.671
		L27.339,23.671z M15.528,34.318c0,0.449-0.364,0.816-0.815,0.816c-0.448,0-0.814-0.367-0.814-0.816
		c0-0.446,0.365-0.814,0.814-0.814C15.164,33.504,15.528,33.87,15.528,34.318z M5.897,29.913c1.44,0,2.61,1.171,2.61,2.61
		c0,1.441-1.17,2.612-2.61,2.612c-1.439,0-2.609-1.171-2.609-2.612C3.289,31.084,4.46,29.913,5.897,29.913z M5.897,28.207
		c-0.405,0-0.797,0.057-1.17,0.164l0.538-3.474h4.376l1.479,4.128c0.096,0.269,0.319,0.471,0.596,0.54l3.053,0.762l0.132,1.48
		c-0.062-0.004-0.124-0.008-0.186-0.008c-1.39,0-2.522,1.129-2.522,2.521c0,0.604,0.214,1.156,0.568,1.591H8.568
		c1.001-0.79,1.647-2.015,1.647-3.387C10.215,30.144,8.279,28.207,5.897,28.207z"/>
	<path d="M41.766,43.822c0-0.602-0.486-1.085-1.086-1.085H5.464c-0.601,0-1.087,0.483-1.087,1.085c0,0.601,0.486,1.085,1.087,1.085
		H40.68C41.277,44.907,41.766,44.423,41.766,43.822z"/>
	<path d="M37.73,50.648c0-0.601-0.484-1.088-1.084-1.088H9.654c-0.601,0-1.087,0.487-1.087,1.088c0,0.6,0.486,1.086,1.087,1.086
		h26.993C37.246,51.734,37.73,51.248,37.73,50.648z"/>
	<path d="M33.699,57.475c0-0.602-0.487-1.086-1.085-1.086H13.842c-0.602,0-1.086,0.484-1.086,1.086c0,0.601,0.484,1.084,1.086,1.084
		h18.772C33.212,58.559,33.699,58.074,33.699,57.475z"/>
	<path d="M28.735,63.214H18.031c-0.601,0-1.085,0.486-1.085,1.087c0,0.602,0.484,1.085,1.085,1.085h10.704
		c0.6,0,1.085-0.483,1.085-1.085C29.82,63.7,29.333,63.214,28.735,63.214z"/>
</g>
</svg>
