<?xml version="1.0" encoding="utf-8"?>
<!-- Generator: Adobe Illustrator 16.0.3, SVG Export Plug-In . SVG Version: 6.00 Build 0)  -->
<!DOCTYPE svg PUBLIC "-//W3C//DTD SVG 1.1//EN" "http://www.w3.org/Graphics/SVG/1.1/DTD/svg11.dtd">
<svg version="1.1" id="Layer_1" xmlns="http://www.w3.org/2000/svg" xmlns:xlink="http://www.w3.org/1999/xlink" x="0px" y="0px"
	 width="66px" height="66px" viewBox="0 0 66 66" enable-background="new 0 0 66 66" xml:space="preserve">
<g>
	<path fill="none" stroke="#000000" stroke-width="1.995" stroke-linejoin="round" stroke-miterlimit="10" d="M20.412,28.114
		c1.407-5.957,6.76-10.392,13.146-10.392c6.041,0,11.159,3.969,12.884,9.439"/>
	<path fill="none" stroke="#000000" stroke-width="1.995" stroke-linejoin="round" stroke-miterlimit="10" d="M0.5,34.098
		c7.781-2.951,18.104-3.317,28.809-0.551"/>
	<path fill="none" stroke="#000000" stroke-width="1.995" stroke-linejoin="round" stroke-miterlimit="10" d="M5.616,38.434
		c2.812-0.713,5.972-1.096,9.374-1.096c1.714,0,3.47,0.101,5.247,0.294"/>
	<path fill="none" stroke="#000000" stroke-width="1.995" stroke-linejoin="round" stroke-miterlimit="10" d="M12.05,44.235
		c6.658-7.899,19.834-13.282,35.002-13.282c6.662,0,12.938,1.038,18.448,2.874"/>
	<path fill="none" stroke="#000000" stroke-width="1.995" stroke-linejoin="round" stroke-miterlimit="10" d="M16.308,47.908
		c5.479-6.593,17.355-11.28,30.744-11.28c5.729,0,11.18,0.857,15.972,2.356"/>
	<path fill="none" stroke="#000000" stroke-width="1.995" stroke-linejoin="round" stroke-miterlimit="10" d="M20.567,51.62
		c3.975-4.92,14.159-9.321,26.484-9.321c4.942,0,9.543,0.709,13.535,1.874"/>
	<path fill="none" stroke="#000000" stroke-width="1.995" stroke-linejoin="round" stroke-miterlimit="10" d="M25.84,47.822
		c0,0,2.548,1.656,3.908,8.953"/>
	<path fill="none" stroke="#000000" stroke-width="1.995" stroke-linejoin="round" stroke-miterlimit="10" d="M33.425,44.618
		c0,0,3.029,3.515,4.793,10.299"/>
	<path fill="none" stroke="#000000" stroke-width="1.995" stroke-linejoin="round" stroke-miterlimit="10" d="M40.781,42.752
		c0,0,4.062,3.946,6.123,10.322"/>
	<path fill="none" stroke="#000000" stroke-width="1.995" stroke-linejoin="round" stroke-miterlimit="10" d="M50.128,42.543
		c1.256,0.929,4.392,3.688,6.09,8.694"/>
	
		<line fill="none" stroke="#000000" stroke-width="1.995" stroke-linecap="round" stroke-linejoin="round" stroke-miterlimit="10" x1="33.554" y1="12.987" x2="33.554" y2="9.225"/>
	
		<line fill="none" stroke="#000000" stroke-width="1.995" stroke-linecap="round" stroke-linejoin="round" stroke-miterlimit="10" x1="40.564" y1="14.392" x2="42.005" y2="10.914"/>
	
		<line fill="none" stroke="#000000" stroke-width="1.995" stroke-linecap="round" stroke-linejoin="round" stroke-miterlimit="10" x1="50.368" y1="24.306" x2="53.843" y2="22.866"/>
	
		<line fill="none" stroke="#000000" stroke-width="1.995" stroke-linecap="round" stroke-linejoin="round" stroke-miterlimit="10" x1="46.435" y1="18.309" x2="49.097" y2="15.646"/>
	
		<line fill="none" stroke="#000000" stroke-width="1.995" stroke-linecap="round" stroke-linejoin="round" stroke-miterlimit="10" x1="26.505" y1="14.392" x2="25.064" y2="10.914"/>
	
		<line fill="none" stroke="#000000" stroke-width="1.995" stroke-linecap="round" stroke-linejoin="round" stroke-miterlimit="10" x1="16.702" y1="24.306" x2="13.225" y2="22.866"/>
	
		<line fill="none" stroke="#000000" stroke-width="1.995" stroke-linecap="round" stroke-linejoin="round" stroke-miterlimit="10" x1="20.634" y1="18.309" x2="17.974" y2="15.646"/>
</g>
</svg>
