<?xml version="1.0" encoding="utf-8"?>
<!-- Generator: Adobe Illustrator 16.0.3, SVG Export Plug-In . SVG Version: 6.00 Build 0)  -->
<!DOCTYPE svg PUBLIC "-//W3C//DTD SVG 1.1//EN" "http://www.w3.org/Graphics/SVG/1.1/DTD/svg11.dtd">
<svg version="1.1" id="Layer_1" xmlns="http://www.w3.org/2000/svg" xmlns:xlink="http://www.w3.org/1999/xlink" x="0px" y="0px"
	 width="66px" height="66px" viewBox="0 0 66 66" enable-background="new 0 0 66 66" xml:space="preserve">
<title></title>
<desc></desc>
<g id="Page-1">
	<g id="Icons" transform="translate(-962.000000, -683.000000)">
		<g id="Health" transform="translate(963.000000, 684.000000)">
			
				<polyline id="Stroke-150" fill="none" stroke="#000000" stroke-width="2.5318" stroke-linecap="round" stroke-linejoin="round" points="
				6.27,37.849 12.599,37.849 18.928,23.924 26.523,42.912 32.854,31.519 36.65,37.895 41.714,13.797 45.512,37.849 58.171,37.849 
							"/>
			<path id="Path" fill="none" stroke="#000000" stroke-width="2.5318" d="M29.983,9.318c0.904,1.32,2.743,1.331,3.665,0.022
				c3.091-4.389,8.098-7.239,13.745-7.239c9.39,0,16.152,8.034,17.003,17.606c0,0,0.458,2.377-0.552,6.656
				c-1.375,5.826-4.609,11.002-8.968,14.953L31.805,61.9L9.122,41.315c-4.358-3.95-7.592-9.127-8.966-14.954
				c-1.01-4.279-0.552-6.656-0.552-6.656C0.455,10.133,7.217,2.1,16.607,2.1C22.245,2.1,26.987,4.942,29.983,9.318L29.983,9.318z"/>
		</g>
	</g>
</g>
</svg>
