<?xml version="1.0" encoding="utf-8"?>
<!-- Generator: Adobe Illustrator 16.0.3, SVG Export Plug-In . SVG Version: 6.00 Build 0)  -->
<!DOCTYPE svg PUBLIC "-//W3C//DTD SVG 1.1//EN" "http://www.w3.org/Graphics/SVG/1.1/DTD/svg11.dtd">
<svg version="1.1" id="Layer_1" xmlns="http://www.w3.org/2000/svg" xmlns:xlink="http://www.w3.org/1999/xlink" x="0px" y="0px"
	 width="66px" height="66px" viewBox="0 0 66 66" enable-background="new 0 0 66 66" xml:space="preserve">
<g>
	<path fill="none" stroke="#000000" stroke-width="1.5" stroke-linecap="round" stroke-linejoin="round" stroke-miterlimit="10" d="
		M61.006,61.66H4.993c-2.48,0-4.492-2.012-4.492-4.494l0,0c0-2.48,2.01-4.492,4.492-4.492h56.013c2.482,0,4.494,2.012,4.494,4.492
		l0,0C65.5,59.648,63.488,61.66,61.006,61.66z"/>
	<g>
		<circle cx="5.667" cy="57.167" r="1.149"/>
		<circle cx="14.793" cy="57.167" r="1.149"/>
		<circle cx="23.922" cy="57.167" r="1.149"/>
		<circle cx="33.049" cy="57.167" r="1.149"/>
	</g>
	<g>
		<circle cx="42.176" cy="57.167" r="1.149"/>
		<circle cx="51.305" cy="57.167" r="1.149"/>
		<circle cx="60.432" cy="57.167" r="1.149"/>
	</g>
	<g>
		
			<polygon fill="none" stroke="#000000" stroke-width="1.5" stroke-linecap="round" stroke-linejoin="round" stroke-miterlimit="10" points="
			15.969,49.131 8.395,49.131 8.395,38.414 10.137,35.248 14.135,35.248 15.969,38.414 		"/>
		
			<line fill="none" stroke="#000000" stroke-width="1.5" stroke-linecap="round" stroke-linejoin="round" stroke-miterlimit="10" x1="8.154" y1="35.248" x2="16.264" y2="35.248"/>
	</g>
	<g>
		
			<polygon fill="none" stroke="#000000" stroke-width="1.5" stroke-linecap="round" stroke-linejoin="round" stroke-miterlimit="10" points="
			36.807,49.131 29.231,49.131 29.231,38.414 30.973,35.248 34.971,35.248 36.807,38.414 		"/>
		
			<line fill="none" stroke="#000000" stroke-width="1.5" stroke-linecap="round" stroke-linejoin="round" stroke-miterlimit="10" x1="28.99" y1="35.248" x2="37.102" y2="35.248"/>
	</g>
	<g>
		
			<polygon fill="none" stroke="#000000" stroke-width="1.5" stroke-linecap="round" stroke-linejoin="round" stroke-miterlimit="10" points="
			57.643,49.131 50.066,49.131 50.066,38.414 51.809,35.248 55.807,35.248 57.643,38.414 		"/>
		
			<line fill="none" stroke="#000000" stroke-width="1.5" stroke-linecap="round" stroke-linejoin="round" stroke-miterlimit="10" x1="49.826" y1="35.248" x2="57.936" y2="35.248"/>
	</g>
	
		<polyline fill="none" stroke="#000000" stroke-width="1.5" stroke-linecap="round" stroke-linejoin="round" stroke-miterlimit="10" points="
		61.582,4.34 61.582,15.306 4.517,15.306 4.517,4.34 	"/>
	
		<polyline fill="none" stroke="#000000" stroke-width="1.5" stroke-linecap="round" stroke-linejoin="round" stroke-miterlimit="10" points="
		15.969,15.493 14.047,21.909 10.319,21.909 8.395,15.493 	"/>
	
		<polyline fill="none" stroke="#000000" stroke-width="1.5" stroke-linecap="round" stroke-linejoin="round" stroke-miterlimit="10" points="
		36.787,15.493 34.863,21.909 31.135,21.909 29.211,15.493 	"/>
	
		<polyline fill="none" stroke="#000000" stroke-width="1.5" stroke-linecap="round" stroke-linejoin="round" stroke-miterlimit="10" points="
		57.643,15.493 55.719,21.909 51.99,21.909 50.066,15.493 	"/>
	
		<line fill="none" stroke="#000000" stroke-width="1.5" stroke-linecap="round" stroke-linejoin="round" stroke-miterlimit="10" x1="12.139" y1="31.403" x2="12.139" y2="31.963"/>
	
		<line fill="none" stroke="#000000" stroke-width="1.5" stroke-linecap="round" stroke-linejoin="round" stroke-miterlimit="10" x1="12.139" y1="22.174" x2="12.139" y2="28.187"/>
	
		<line fill="none" stroke="#000000" stroke-width="1.5" stroke-linecap="round" stroke-linejoin="round" stroke-miterlimit="10" x1="33.115" y1="31.403" x2="33.115" y2="31.963"/>
	
		<line fill="none" stroke="#000000" stroke-width="1.5" stroke-linecap="round" stroke-linejoin="round" stroke-miterlimit="10" x1="33.115" y1="22.174" x2="33.115" y2="28.187"/>
	
		<line fill="none" stroke="#000000" stroke-width="1.5" stroke-linecap="round" stroke-linejoin="round" stroke-miterlimit="10" x1="53.951" y1="31.403" x2="53.951" y2="31.963"/>
	
		<line fill="none" stroke="#000000" stroke-width="1.5" stroke-linecap="round" stroke-linejoin="round" stroke-miterlimit="10" x1="53.951" y1="22.174" x2="53.951" y2="28.187"/>
</g>
</svg>
