<?xml version="1.0" encoding="utf-8"?>
<!-- Generator: Adobe Illustrator 16.0.3, SVG Export Plug-In . SVG Version: 6.00 Build 0)  -->
<!DOCTYPE svg PUBLIC "-//W3C//DTD SVG 1.1//EN" "http://www.w3.org/Graphics/SVG/1.1/DTD/svg11.dtd">
<svg version="1.1" id="Layer_1" xmlns="http://www.w3.org/2000/svg" xmlns:xlink="http://www.w3.org/1999/xlink" x="0px" y="0px"
	 width="66px" height="66px" viewBox="0 0 66 66" enable-background="new 0 0 66 66" xml:space="preserve">
<g>
	<g>
		<path d="M31.893,48.886c-0.054,0-0.109-0.002-0.164-0.009c-11.224-1.361-19.593-5.802-24.878-13.201
			C-2.381,22.752,1.126,5.614,1.279,4.891c0.147-0.69,0.793-1.137,1.498-1.062c13.384,1.724,22.771,6.783,27.9,15.038
			c7.953,12.8,2.721,28.446,2.493,29.105C32.982,48.523,32.464,48.886,31.893,48.886z M3.72,6.694
			c-0.598,4.079-1.836,17.385,5.345,27.423c4.649,6.499,12,10.507,21.858,11.922c0.983-3.622,3.605-15.865-2.554-25.76
			C23.85,13.019,15.56,8.452,3.72,6.694z"/>
	</g>
	<g>
		<g>
			<path d="M37.583,53.629c-0.57,0-1.146-0.011-1.733-0.033c-0.674-0.023-1.229-0.543-1.297-1.215
				c-0.048-0.47-1.095-11.637,6.393-20.125c5.115-5.798,12.899-8.858,23.137-9.096c0.733,0.021,1.331,0.537,1.382,1.258
				c0.038,0.532,0.828,13.126-7.446,21.687C53.188,51.102,46.318,53.629,37.583,53.629z M37.194,50.919
				c8.193,0.089,14.493-2.172,18.861-6.681c5.974-6.167,6.684-15.018,6.729-18.322c-8.777,0.443-15.437,3.175-19.808,8.13
				C37.605,40.135,37.154,47.976,37.194,50.919z"/>
		</g>
		<g>
			<path d="M30.448,62.18c-0.208,0-0.417-0.048-0.616-0.149c-0.665-0.341-0.928-1.157-0.587-1.821
				c6.829-13.329,19.816-23.79,20.366-24.229c0.585-0.469,1.436-0.37,1.902,0.212c0.466,0.585,0.371,1.437-0.213,1.902
				c-0.13,0.104-13.089,10.548-19.647,23.349C31.414,61.911,30.939,62.18,30.448,62.18z"/>
		</g>
	</g>
	<g>
		<path d="M33.072,57.646c-0.029,0-0.059-0.001-0.088-0.003c-0.747-0.049-1.312-0.692-1.264-1.438
			c0.925-14.289-15.886-30.552-16.056-30.714c-0.54-0.517-0.56-1.374-0.042-1.914c0.518-0.541,1.374-0.56,1.914-0.042
			c0.731,0.698,17.895,17.294,16.887,32.845C34.376,57.097,33.779,57.646,33.072,57.646z"/>
	</g>
</g>
</svg>
