<?xml version="1.0" encoding="utf-8"?>
<!-- Generator: Adobe Illustrator 16.0.3, SVG Export Plug-In . SVG Version: 6.00 Build 0)  -->
<!DOCTYPE svg PUBLIC "-//W3C//DTD SVG 1.1//EN" "http://www.w3.org/Graphics/SVG/1.1/DTD/svg11.dtd">
<svg version="1.1" id="Layer_1" xmlns="http://www.w3.org/2000/svg" xmlns:xlink="http://www.w3.org/1999/xlink" x="0px" y="0px"
	 width="66px" height="66px" viewBox="0 0 66 66" enable-background="new 0 0 66 66" xml:space="preserve">
<g>
	<path d="M62.354,65.5H3.645c-1.733,0-3.145-1.411-3.145-3.146V51.871c0-1.734,1.411-3.146,3.145-3.146h58.709
		c1.734,0,3.146,1.411,3.146,3.146v10.482C65.5,64.089,64.089,65.5,62.354,65.5z M3.645,50.822c-0.577,0-1.048,0.471-1.048,1.049
		v10.482c0,0.578,0.472,1.05,1.048,1.05h58.709c0.578,0,1.05-0.472,1.05-1.05V51.871c0-0.578-0.472-1.049-1.05-1.049H3.645z"/>
	<path d="M33,61.307c-2.313,0-4.193-1.881-4.193-4.192c0-2.313,1.881-4.193,4.193-4.193s4.193,1.881,4.193,4.193
		C37.193,59.426,35.313,61.307,33,61.307z M33,55.016c-1.156,0-2.097,0.941-2.097,2.099s0.939,2.097,2.097,2.097
		s2.097-0.939,2.097-2.097S34.156,55.016,33,55.016z"/>
	<path d="M61.307,50.822H4.694V22.516c0-2.89,2.352-5.241,5.241-5.241h3.146v2.097H9.936c-1.733,0-3.146,1.411-3.146,3.145v26.209
		h52.42V22.516c0-1.733-1.411-3.145-3.146-3.145H27.757v-2.097h28.308c2.891,0,5.241,2.352,5.241,5.241L61.307,50.822L61.307,50.822
		z"/>
	<path d="M57.113,13.081H38.242c-1.734,0-3.146-1.411-3.146-3.146V3.646c0-1.734,1.411-3.146,3.146-3.146h18.871
		c1.733,0,3.145,1.411,3.145,3.146v6.289C60.258,11.67,58.848,13.081,57.113,13.081z M38.242,2.597c-0.578,0-1.049,0.472-1.049,1.05
		v6.289c0,0.578,0.471,1.049,1.049,1.049h18.871c0.578,0,1.048-0.471,1.048-1.049V3.646c0-0.578-0.47-1.05-1.048-1.05H38.242z"/>
	<path d="M51.871,19.371h-8.387v-8.387h8.387V19.371z M45.58,17.274h4.193V13.08H45.58V17.274z"/>
	<rect x="34.049" y="34.049" width="4.193" height="2.098"/>
	<rect x="40.339" y="34.049" width="4.193" height="2.098"/>
	<rect x="46.629" y="34.049" width="4.193" height="2.098"/>
	<rect x="52.92" y="34.049" width="4.193" height="2.098"/>
	<rect x="34.049" y="38.242" width="4.193" height="2.097"/>
	<rect x="40.339" y="38.242" width="4.193" height="2.097"/>
	<rect x="46.629" y="38.242" width="4.193" height="2.097"/>
	<rect x="52.92" y="38.242" width="4.193" height="2.097"/>
	<rect x="34.049" y="42.436" width="4.193" height="2.098"/>
	<rect x="40.339" y="42.436" width="4.193" height="2.098"/>
	<rect x="46.629" y="42.436" width="4.193" height="2.098"/>
	<rect x="52.92" y="42.436" width="4.193" height="2.098"/>
	<rect x="8.887" y="38.242" width="4.193" height="2.097"/>
	<rect x="15.178" y="38.242" width="4.193" height="2.097"/>
	<rect x="21.468" y="38.242" width="4.193" height="2.097"/>
	<rect x="8.887" y="42.436" width="4.193" height="2.098"/>
	<rect x="15.178" y="42.436" width="4.193" height="2.098"/>
	<rect x="21.468" y="42.436" width="4.193" height="2.098"/>
	<path d="M28.807,31.952H12.033V13.081h16.773V31.952z M14.129,29.854H26.71V15.177H14.129V29.854z"/>
	<rect x="8.887" y="29.854" width="23.064" height="2.098"/>
	<rect x="16.227" y="17.274" width="8.387" height="2.097"/>
	<rect x="16.227" y="21.468" width="8.387" height="2.098"/>
	<rect x="16.227" y="25.661" width="8.387" height="2.097"/>
	<path d="M57.113,31.952H34.049V21.468h23.064V31.952z M36.145,29.854h18.871v-6.289H36.145V29.854z"/>
</g>
</svg>
