<?xml version="1.0" encoding="utf-8"?>
<!-- Generator: Adobe Illustrator 16.0.3, SVG Export Plug-In . SVG Version: 6.00 Build 0)  -->
<!DOCTYPE svg PUBLIC "-//W3C//DTD SVG 1.1//EN" "http://www.w3.org/Graphics/SVG/1.1/DTD/svg11.dtd">
<svg version="1.1" id="Layer_1" xmlns="http://www.w3.org/2000/svg" xmlns:xlink="http://www.w3.org/1999/xlink" x="0px" y="0px"
	 width="66px" height="66px" viewBox="0 0 66 66" enable-background="new 0 0 66 66" xml:space="preserve">
<title></title>
<desc></desc>
<g id="_x33_6--Seeds-Sack--_x28_farming-_x2C_-nature_x2C_-garden_x2C_-agriculture_x29_" transform="translate(727.000000, 763.000000)">
	<path id="Stroke-361" fill="none" stroke="#000000" stroke-width="2.2414" stroke-linecap="round" stroke-linejoin="round" d="
		M-671.957-697.531l-7.155-1.191c-1.218-0.204-2.446-0.341-3.77-0.575c-1.81-0.317-3.649-0.444-5.487-0.444h-11.817
		c-2.037,0-4.064,0.204-6.071,0.557c-0.968,0.171-1.987,0.293-2.999,0.461l-6.774,1.13c-1.724,0.287-3.099-1.42-2.45-3.043
		l3.296-8.069c-1.375-14.499-1.357-28.786,0-42.585l0,0l-3.854-8.131c-0.679-1.697,0.851-3.45,2.625-3.007l5.985,2.288
		c2.667,0.667,5.406,1.004,8.155,1.004h16.376c2.748,0,5.488-0.337,8.154-1.004l6.155-2.288c1.688-0.421,3.19,1.153,2.693,2.819
		l-3.704,8.319l0,0c1.676,14.125,1.674,28.4,0,42.585l3.156,8.32C-668.965-698.797-670.321-697.26-671.957-697.531L-671.957-697.531
		z"/>
	
		<polygon id="Stroke-362" fill="none" stroke="#000000" stroke-width="2.2414" stroke-linecap="round" stroke-linejoin="round" points="
		-706.218,-734.482 -681.564,-734.482 -681.564,-752.414 -706.218,-752.414 	"/>
	<path id="Stroke-363" fill="none" stroke="#000000" stroke-width="2.2414" stroke-linecap="round" stroke-linejoin="round" d="
		M-697.253-746.81h6.724"/>
	<path id="Stroke-364" fill="none" stroke="#000000" stroke-width="2.2414" stroke-linecap="round" stroke-linejoin="round" d="
		M-700.615-741.207h13.448"/>
	<path id="Stroke-365" fill="none" stroke="#000000" stroke-width="2.2414" stroke-linecap="round" stroke-linejoin="round" d="
		M-682.685-716.552c0,6.189-5.018,11.207-11.207,11.207c-6.189,0-11.207-5.018-11.207-11.207c0-6.19,5.018-11.207,11.207-11.207
		C-687.702-727.759-682.685-722.742-682.685-716.552L-682.685-716.552z"/>
	<path id="Stroke-366" fill="none" stroke="#000000" stroke-width="2.2414" stroke-linecap="round" stroke-linejoin="round" d="
		M-697.253-721.034l2.241-2.242"/>
	<path id="Stroke-367" fill="none" stroke="#000000" stroke-width="2.2414" stroke-linecap="round" stroke-linejoin="round" d="
		M-698.374-715.432l2.241-2.241"/>
	<path id="Stroke-368" fill="none" stroke="#000000" stroke-width="2.2414" stroke-linecap="round" stroke-linejoin="round" d="
		M-705.047-715.481l2.191-2.191"/>
	<path id="Stroke-369" fill="none" stroke="#000000" stroke-width="2.2414" stroke-linecap="round" stroke-linejoin="round" d="
		M-700.615-707.587l2.242-2.24"/>
	<path id="Stroke-370" fill="none" stroke="#000000" stroke-width="2.2414" stroke-linecap="round" stroke-linejoin="round" d="
		M-692.771-710.948l2.241-2.241"/>
	<path id="Stroke-371" fill="none" stroke="#000000" stroke-width="2.2414" stroke-linecap="round" stroke-linejoin="round" d="
		M-691.65-717.673l2.242-2.241"/>
	<path id="Stroke-372" fill="none" stroke="#000000" stroke-width="2.2414" stroke-linecap="round" stroke-linejoin="round" d="
		M-690.529-724.396l1.998-1.999"/>
	<path id="Stroke-373" fill="none" stroke="#000000" stroke-width="2.2414" stroke-linecap="round" stroke-linejoin="round" d="
		M-684.926-715.432l2.191-2.19"/>
</g>
</svg>
