<?xml version="1.0" encoding="utf-8"?>
<!-- Generator: Adobe Illustrator 16.0.3, SVG Export Plug-In . SVG Version: 6.00 Build 0)  -->
<!DOCTYPE svg PUBLIC "-//W3C//DTD SVG 1.1//EN" "http://www.w3.org/Graphics/SVG/1.1/DTD/svg11.dtd">
<svg version="1.1" id="Layer_1_1_" xmlns="http://www.w3.org/2000/svg" xmlns:xlink="http://www.w3.org/1999/xlink" x="0px" y="0px"
	 width="66px" height="66px" viewBox="0 0 66 66" enable-background="new 0 0 66 66" xml:space="preserve">
<g>
	<path d="M50.801,53.964h-7.021l-2.881-1.921l-8.836-3.134c-0.841-0.296-1.744-0.235-2.538,0.168
		c-0.796,0.403-1.376,1.097-1.634,1.948c-0.449,1.479,0.216,3.077,1.579,3.8l2.269,1.206l-3.3,0.01l-1.355-3.393
		c-0.445-1.113-1.508-1.831-2.707-1.831c-0.937,0-1.821,0.454-2.367,1.214c-0.546,0.762-0.694,1.744-0.396,2.633l0.316,0.94
		l-2.3-1.257c-0.731-0.398-1.605-0.478-2.396-0.213c-0.793,0.265-1.443,0.852-1.789,1.613c-0.673,1.486-0.054,3.218,1.41,3.939
		l5.175,2.554l10.742,2.186l13.938,0.021l4.09-0.817v1.87H65.5V51.871H50.801V53.964z M23.711,53.256
		c0.354-0.492,1.201-0.386,1.424,0.173l1.048,2.62l-1.89,0.006l-0.694-2.06C23.514,53.742,23.555,53.473,23.711,53.256z
		 M46.503,62.351H33.081l-10.246-2.05l-5.052-2.492c-0.443-0.219-0.632-0.744-0.426-1.195c0.105-0.234,0.299-0.408,0.543-0.489
		c0.242-0.083,0.502-0.059,0.726,0.065l3.601,1.968h9.951l4.137-2.068l-5.861-3.116c-0.479-0.255-0.715-0.817-0.556-1.339
		c0.092-0.301,0.296-0.546,0.577-0.688c0.279-0.143,0.598-0.162,0.896-0.06l8.476,2.975l3.3,2.199h7.656v5.431L46.503,62.351z
		 M52.897,53.968h2.118v7.339h2.098v-7.339h6.29v9.436H52.897V53.968z"/>
	<path d="M7.839,34.143v-4.288h14.677v4.288c-2.97,0.501-5.241,3.084-5.241,6.196c0,3.469,2.821,6.29,6.29,6.29
		s6.29-2.821,6.29-6.29c0-3.11-2.271-5.694-5.241-6.196v-4.288h16.773v4.288c-2.97,0.501-5.241,3.084-5.241,6.196
		c0,3.469,2.821,6.29,6.29,6.29s6.29-2.821,6.29-6.29c0-3.11-2.271-5.694-5.241-6.196v-4.288h14.677v4.288
		c-2.97,0.501-5.242,3.084-5.242,6.196c0,3.469,2.821,6.29,6.291,6.29c3.469,0,6.29-2.821,6.29-6.29c0-3.11-2.271-5.694-5.242-6.196
		v-6.385h-8.387V10.984h-9.436v2.096h7.339v14.678H34.049v-6.29h1.048c2.891,0,5.242-2.352,5.242-5.242s-2.352-5.241-5.242-5.241
		h-4.193c-1.734,0-3.146-1.412-3.146-3.146c0-1.734,1.411-3.146,3.146-3.146h4.193c1.734,0,3.146,1.411,3.146,3.146h2.097
		c0-2.891-2.352-5.242-5.242-5.242h-1.048V0.5h-2.098v2.097h-1.048c-2.891,0-5.242,2.352-5.242,5.242s2.352,5.241,5.242,5.241h4.193
		c1.734,0,3.146,1.412,3.146,3.146c0,1.734-1.411,3.146-3.146,3.146h-4.193c-1.734,0-3.146-1.411-3.146-3.146h-2.097
		c0,2.891,2.352,5.242,5.242,5.242h1.048v6.29H16.226V13.08h7.339v-2.096h-9.436v16.773H5.742v6.385
		C2.771,34.645,0.5,37.229,0.5,40.339c0,3.469,2.821,6.29,6.29,6.29c3.47,0,6.291-2.821,6.291-6.29
		C13.081,37.229,10.809,34.645,7.839,34.143z M27.758,40.339c0,2.313-1.881,4.193-4.193,4.193s-4.193-1.881-4.193-4.193
		s1.881-4.193,4.193-4.193S27.758,38.026,27.758,40.339z M46.629,40.339c0,2.313-1.881,4.193-4.193,4.193s-4.193-1.881-4.193-4.193
		s1.881-4.193,4.193-4.193S46.629,38.026,46.629,40.339z M63.403,40.339c0,2.313-1.881,4.193-4.193,4.193
		c-2.313,0-4.194-1.881-4.194-4.193s1.881-4.193,4.194-4.193C61.522,36.146,63.403,38.026,63.403,40.339z M6.79,44.532
		c-2.313,0-4.193-1.881-4.193-4.193s1.881-4.193,4.193-4.193c2.313,0,4.194,1.881,4.194,4.193S9.104,44.532,6.79,44.532z"/>
	<rect x="5.742" y="39.29" width="2.097" height="2.097"/>
	<rect x="22.516" y="39.29" width="2.098" height="2.097"/>
	<rect x="41.387" y="39.29" width="2.098" height="2.097"/>
	<rect x="58.161" y="39.29" width="2.097" height="2.097"/>
</g>
</svg>
