<?xml version="1.0" encoding="utf-8"?>
<!-- Generator: Adobe Illustrator 16.0.3, SVG Export Plug-In . SVG Version: 6.00 Build 0)  -->
<!DOCTYPE svg PUBLIC "-//W3C//DTD SVG 1.1//EN" "http://www.w3.org/Graphics/SVG/1.1/DTD/svg11.dtd">
<svg version="1.1" id="Слой_1" xmlns="http://www.w3.org/2000/svg" xmlns:xlink="http://www.w3.org/1999/xlink" x="0px" y="0px"
	 width="66px" height="66px" viewBox="0 0 66 66" enable-background="new 0 0 66 66" xml:space="preserve">
<g>
	<path d="M57.375,0.5H8.625c-1.122,0-2.031,0.91-2.031,2.031v49.837c0,0.265,0.055,0.528,0.157,0.776s0.251,0.473,0.438,0.658
		l11.1,11.103c0.188,0.187,0.412,0.335,0.66,0.438c0.249,0.104,0.512,0.157,0.775,0.157h37.65c1.121,0,2.031-0.91,2.031-2.031V2.531
		C59.406,1.41,58.496,0.5,57.375,0.5z M17.695,58.564l-4.166-4.166h4.166V58.564z M55.344,61.438H21.757V52.37
		c0-1.121-0.91-2.031-2.03-2.031h-9.069V4.564h44.688v56.874H55.344L55.344,61.438z"/>
	<path d="M16.884,12.688h14.593c0.75,0,1.354-0.604,1.354-1.354c0-0.748-0.604-1.354-1.354-1.354H16.884
		c-0.749,0-1.354,0.605-1.354,1.354C15.53,12.082,16.135,12.688,16.884,12.688z"/>
	<path d="M16.884,18.104h7.295c0.749,0,1.354-0.604,1.354-1.354s-0.606-1.354-1.354-1.354h-7.295c-0.749,0-1.354,0.605-1.354,1.354
		S16.135,18.104,16.884,18.104z"/>
	<path d="M27.246,16.75c0,0.749,0.606,1.354,1.354,1.354h8.802c0.748,0,1.354-0.604,1.354-1.354s-0.604-1.354-1.354-1.354H28.6
		C27.852,15.396,27.246,16.001,27.246,16.75z"/>
	<path d="M16.75,40.448h32.5c0.748,0,1.354-0.606,1.354-1.354v-16.25c0-0.749-0.604-1.354-1.354-1.354h-32.5
		c-0.749,0-1.354,0.604-1.354,1.354v16.25C15.397,39.842,16.001,40.448,16.75,40.448z M42.479,27.668v2.708h-4.399v-2.708H42.479z
		 M38.078,26.313v-2.115h4.4v2.115H38.078z M38.078,34.438V31.73h4.4v2.708H38.078L38.078,34.438z M42.479,35.793v1.946h-4.399
		v-1.946H42.479z M18.104,31.73h18.621v2.708H18.104V31.73z M43.834,31.73h4.063v2.708h-4.063V31.73z M47.896,30.376h-4.063v-2.708
		h4.063V30.376z M36.725,30.376H18.104v-2.708h18.621V30.376z M18.104,35.793h18.621v1.946H18.104V35.793z M43.834,37.739v-1.946
		h4.063v1.946H43.834z M47.896,26.313h-4.063v-2.115h4.063V26.313z M36.725,24.198v2.116H18.104v-2.116H36.725z"/>
	<path d="M43.34,42.072c-2.359,0-4.42,1.251-5.592,3.115h-1.906c-0.748,0-1.354,0.604-1.354,1.354c0,0.748,0.604,1.354,1.354,1.354
		h0.963c-0.031,0.265-0.08,0.521-0.08,0.791c0,3.647,2.969,6.615,6.615,6.615s6.613-2.968,6.613-6.615
		C49.953,45.039,46.986,42.072,43.34,42.072z M43.34,53.947c-2.9,0-5.262-2.359-5.262-5.262c0-0.271,0.041-0.53,0.08-0.791h0.947
		c-0.047,0.258-0.078,0.521-0.078,0.791c0,2.379,1.934,4.313,4.313,4.313c2.377,0,4.313-1.934,4.313-4.313s-1.936-4.313-4.313-4.313
		c-0.936,0-1.795,0.307-2.502,0.813h-1.396c0.966-1.072,2.349-1.763,3.898-1.763c2.898,0,5.258,2.359,5.258,5.261
		C48.598,51.588,46.238,53.947,43.34,53.947z M43.156,47.896c0.748,0,1.354-0.605,1.354-1.354c0-0.224-0.066-0.425-0.162-0.61
		c1.131,0.416,1.947,1.481,1.947,2.756c0,1.629-1.326,2.957-2.957,2.957s-2.957-1.328-2.957-2.957c0-0.279,0.086-0.532,0.158-0.791
		H43.156L43.156,47.896z"/>
	<path d="M31.477,45.188H16.884c-0.749,0-1.354,0.605-1.354,1.354c0,0.748,0.604,1.354,1.354,1.354h14.593
		c0.75,0,1.354-0.605,1.354-1.354S32.225,45.188,31.477,45.188z"/>
</g>
</svg>
