<?xml version="1.0" encoding="utf-8"?>
<!-- Generator: Adobe Illustrator 16.0.3, SVG Export Plug-In . SVG Version: 6.00 Build 0)  -->
<!DOCTYPE svg PUBLIC "-//W3C//DTD SVG 1.1//EN" "http://www.w3.org/Graphics/SVG/1.1/DTD/svg11.dtd">
<svg version="1.1" id="Icon" xmlns="http://www.w3.org/2000/svg" xmlns:xlink="http://www.w3.org/1999/xlink" x="0px" y="0px"
	 width="66px" height="66px" viewBox="0 0 66 66" enable-background="new 0 0 66 66" xml:space="preserve">
<g>
	<path d="M59.009,64.424l-6.1-56.739V1.473L51.937,0.5H14.063l-0.973,0.973v6.213l-6.1,56.738c-0.029,0.274,0.06,0.548,0.243,0.753
		C7.419,65.383,7.683,65.5,7.959,65.5h50.078c0.002,0,0.003,0,0.004,0c0.034,0,0.069-0.002,0.104-0.006
		C58.68,65.438,59.066,64.958,59.009,64.424z M15.036,2.445H18.2v2.299h1.197V2.445h3.537v2.299h1.197V2.445h3.538v2.299h1.197
		V2.445h3.538v2.299h1.196V2.445h3.538v2.299h1.197V2.445h3.537v2.299h1.197V2.445h3.538v2.299h1.197V2.445h3.158v4.319H15.036
		V2.445z M9.041,63.555L14.938,8.71h7.177L20.7,21.867l-3.113,2.574c-0.15,0.124-0.246,0.301-0.268,0.494l-0.707,6.37
		c-0.023,0.211,0.044,0.423,0.187,0.581c0.142,0.159,0.345,0.249,0.557,0.249h6.115c0.381,0,0.701-0.286,0.743-0.665l0.707-6.37
		c0.025-0.226-0.054-0.451-0.214-0.611l-2.514-2.515L23.619,8.71h27.234l-5.896,54.845H9.041L9.041,63.555z M23.395,25.293
		l-0.594,5.347h-4.609l0.582-5.238l2.59-2.141L23.395,25.293z M47.139,61.462l3.825-35.576v32.156
		c-0.714,0.351-1.745,1.155-3.393,2.944C47.424,61.146,47.28,61.305,47.139,61.462z M47.887,63.555
		c1.743-2.033,3.448-3.661,4.05-3.814c0.611,0.153,2.295,1.76,4.053,3.814H47.887z M56.303,60.986
		c-1.647-1.789-2.679-2.594-3.394-2.944V25.887l3.825,35.575C56.594,61.305,56.449,61.146,56.303,60.986z M18.583,46.794h20.142
		v1.646H18.583V46.794z M18.098,51.595H38.24v1.646H18.098V51.595z M17.581,56.396h20.143v1.646H17.581V56.396z"/>
</g>
</svg>
