<?xml version="1.0" encoding="utf-8"?>
<!-- Generator: Adobe Illustrator 16.0.3, SVG Export Plug-In . SVG Version: 6.00 Build 0)  -->
<!DOCTYPE svg PUBLIC "-//W3C//DTD SVG 1.1//EN" "http://www.w3.org/Graphics/SVG/1.1/DTD/svg11.dtd">
<svg version="1.1" id="Layer_1" xmlns="http://www.w3.org/2000/svg" xmlns:xlink="http://www.w3.org/1999/xlink" x="0px" y="0px"
	 width="66px" height="66px" viewBox="0 0 66 66" enable-background="new 0 0 66 66" xml:space="preserve">
<g>
	<path d="M1.312,47.15h0.972v17.535c0,0.447,0.364,0.813,0.813,0.813H62.79c0.448,0,0.813-0.365,0.813-0.813V47.15h1.084
		c0.446,0,0.813-0.365,0.813-0.814v-5.188c0-0.447-0.365-0.813-0.813-0.813h-3.019V24.143c2.125-0.478,3.717-2.368,3.717-4.628
		c0-0.038-0.002-0.074-0.008-0.111L62.845,1.203C62.788,0.8,62.445,0.501,62.04,0.501H3.645c-0.408,0-0.755,0.304-0.807,0.709
		L0.506,19.411C0.502,19.445,0.5,19.479,0.5,19.515c0,2.259,1.592,4.15,3.717,4.629v16.192H1.313c-0.448,0-0.813,0.363-0.813,0.813
		v5.188C0.5,46.785,0.863,47.15,1.312,47.15z M61.977,63.874H3.908V47.15h58.068V63.874L61.977,63.874z M60.619,22.639
		c-1.602,0-2.91-1.199-3.104-2.739h6.203C63.527,21.438,62.219,22.639,60.619,22.639z M49.57,18.273V2.126h6.302v16.147H49.57z
		 M47.945,18.273h-6.281V2.126h6.281V18.273z M40.038,18.273h-6.293V2.126h6.293V18.273z M32.12,18.273h-6.274V2.126h6.274V18.273z
		 M24.222,18.273h-6.283V2.126h6.283V18.273z M16.314,18.273h-6.281V2.126h6.281V18.273z M16.275,19.898
		c-0.191,1.539-1.503,2.739-3.103,2.739c-1.601,0-2.909-1.2-3.103-2.739H16.275z M24.183,19.898
		c-0.191,1.539-1.503,2.739-3.103,2.739c-1.601,0-2.909-1.2-3.104-2.739H24.183z M32.091,19.898
		c-0.191,1.539-1.502,2.739-3.102,2.739c-1.602,0-2.91-1.2-3.104-2.739H32.091z M39.999,19.898c-0.19,1.539-1.502,2.739-3.104,2.739
		c-1.6,0-2.906-1.2-3.102-2.739H39.999z M47.907,19.898c-0.193,1.539-1.502,2.739-3.104,2.739c-1.6,0-2.908-1.2-3.103-2.739H47.907z
		 M55.813,19.898c-0.189,1.539-1.502,2.739-3.102,2.739c-1.602,0-2.91-1.2-3.104-2.739H55.813z M63.58,18.273h-6.084V2.126h3.836
		L63.58,18.273z M4.358,2.126h4.05v16.147H2.29L4.358,2.126z M2.164,19.898h6.205c-0.193,1.539-1.504,2.739-3.104,2.739
		C3.666,22.639,2.356,21.438,2.164,19.898z M5.842,24.226c1.404-0.17,2.623-0.946,3.378-2.063c0.857,1.266,2.309,2.101,3.953,2.101
		s3.098-0.835,3.954-2.101c0.856,1.266,2.31,2.101,3.954,2.101s3.098-0.835,3.953-2.101c0.856,1.266,2.311,2.101,3.955,2.101
		c1.644,0,3.096-0.835,3.953-2.1c0.857,1.266,2.31,2.1,3.953,2.1c1.646,0,3.1-0.835,3.955-2.101c0.857,1.266,2.31,2.101,3.953,2.101
		c1.645,0,3.098-0.835,3.955-2.101c0.856,1.266,2.309,2.101,3.952,2.101s3.099-0.835,3.955-2.101
		c0.754,1.115,1.974,1.893,3.377,2.063v16.11h-2.865c-0.221-2.637-2.338-4.744-4.995-4.977c-0.382-2.64-2.673-4.676-5.44-4.676
		c-1.983,0-3.724,1.051-4.688,2.614c-0.969-1.563-2.707-2.614-4.691-2.614c-1.967,0-3.688,1.028-4.66,2.567
		c-0.976-1.539-2.697-2.567-4.664-2.567c-1.985,0-3.723,1.051-4.69,2.614c-0.969-1.563-2.706-2.614-4.691-2.614
		c-2.793,0-5.1,2.07-5.452,4.741c-2.429,0.43-4.31,2.438-4.515,4.912H5.843L5.842,24.226L5.842,24.226z M47.005,37.949
		c-0.862-1.398-2.342-2.381-4.063-2.576c0.358-1.746,1.927-3.065,3.802-3.065c1.903,0,3.479,1.362,3.808,3.147
		C49.052,35.771,47.782,36.695,47.005,37.949z M37.624,37.949c-0.865-1.398-2.344-2.381-4.063-2.576
		c0.356-1.746,1.926-3.065,3.801-3.065c1.902,0,3.481,1.362,3.81,3.147C39.669,35.771,38.398,36.695,37.624,37.949z M28.241,37.949
		c-0.855-1.381-2.312-2.357-4.008-2.568c0.354-1.75,1.924-3.072,3.801-3.072c1.898,0,3.477,1.355,3.809,3.136
		C30.319,35.748,29.026,36.68,28.241,37.949z M18.858,37.949c-0.854-1.381-2.311-2.357-4.008-2.568
		c0.355-1.75,1.924-3.072,3.802-3.072c1.898,0,3.477,1.355,3.809,3.136C20.937,35.748,19.645,36.68,18.858,37.949z M14.167,36.961
		c1.981,0,3.604,1.48,3.832,3.375h-7.664C10.563,38.441,12.184,36.961,14.167,36.961z M23.55,36.961c1.982,0,3.603,1.48,3.832,3.375
		h-7.664C19.947,38.441,21.568,36.961,23.55,36.961z M32.933,36.961c1.982,0,3.604,1.48,3.833,3.375H29.1
		C29.329,38.441,30.95,36.961,32.933,36.961z M42.313,36.961c1.982,0,3.604,1.48,3.834,3.375H38.48
		C38.71,38.441,40.331,36.961,42.313,36.961z M51.695,36.961c1.981,0,3.604,1.48,3.832,3.375h-7.662
		C48.093,38.441,49.713,36.961,51.695,36.961z M2.125,41.961h61.748v3.564H2.125V41.961z"/>
</g>
</svg>
