<?xml version="1.0" encoding="utf-8"?>
<!-- Generator: Adobe Illustrator 16.0.3, SVG Export Plug-In . SVG Version: 6.00 Build 0)  -->
<!DOCTYPE svg PUBLIC "-//W3C//DTD SVG 1.1//EN" "http://www.w3.org/Graphics/SVG/1.1/DTD/svg11.dtd">
<svg version="1.1" id="Layer_1" xmlns="http://www.w3.org/2000/svg" xmlns:xlink="http://www.w3.org/1999/xlink" x="0px" y="0px"
	 width="66px" height="66px" viewBox="0 0 66 66" enable-background="new 0 0 66 66" xml:space="preserve">
<g>
	<path d="M19.604,61.654c-2.926,0-5.307-2.379-5.307-5.307c0-2.926,2.381-5.307,5.307-5.307c2.927,0,5.308,2.381,5.308,5.307
		C24.911,59.275,22.529,61.654,19.604,61.654z M19.604,53.164c-1.756,0-3.184,1.43-3.184,3.186c0,1.754,1.428,3.184,3.184,3.184
		c1.757,0,3.185-1.43,3.185-3.184C22.787,54.594,21.359,53.164,19.604,53.164z"/>
	<path d="M53.564,61.654c-2.927,0-5.308-2.379-5.308-5.307c0-2.926,2.381-5.307,5.308-5.307c2.926,0,5.307,2.381,5.307,5.307
		C58.871,59.275,56.49,61.654,53.564,61.654z M53.564,53.164c-1.757,0-3.185,1.43-3.185,3.186c0,1.754,1.428,3.184,3.185,3.184
		c1.756,0,3.184-1.43,3.184-3.184C56.748,54.594,55.32,53.164,53.564,53.164z"/>
	<polygon points="17.313,52.521 7.078,6.468 0.5,6.468 0.5,4.345 8.781,4.345 19.384,52.063 	"/>
	<rect x="23.849" y="55.287" width="25.472" height="2.123"/>
	<rect x="36.054" y="14.958" width="2.122" height="28.655"/>
	<rect x="14.297" y="33" width="45.636" height="2.123"/>
	<rect x="12.174" y="23.449" width="49.88" height="2.123"/>
	<rect x="10.738" y="28.285" transform="matrix(0.1045 0.9945 -0.9945 0.1045 51.7034 1.2726)" width="28.813" height="2.123"/>
	<rect x="48.026" y="14.946" transform="matrix(0.9946 0.104 -0.104 0.9946 3.3177 -4.9444)" width="2.123" height="28.813"/>
	<polygon points="58.661,44.674 16.42,44.674 16.42,42.553 56.958,42.553 62.854,16.02 10.052,16.02 10.052,13.897 65.5,13.897 	"/>
</g>
</svg>
