<?xml version="1.0" encoding="utf-8"?>
<!-- Generator: Adobe Illustrator 16.0.3, SVG Export Plug-In . SVG Version: 6.00 Build 0)  -->
<!DOCTYPE svg PUBLIC "-//W3C//DTD SVG 1.1//EN" "http://www.w3.org/Graphics/SVG/1.1/DTD/svg11.dtd">
<svg version="1.1" id="els2_x5F_building" xmlns="http://www.w3.org/2000/svg" xmlns:xlink="http://www.w3.org/1999/xlink" x="0px"
	 y="0px" width="66px" height="66px" viewBox="0 0 66 66" enable-background="new 0 0 66 66" xml:space="preserve">
<g>
	<path fill="none" stroke="#000000" stroke-width="2" stroke-miterlimit="10" d="M61.887,24.871v38.915
		c0,0.438-0.355,0.827-0.795,0.827c-18.709,0-37.506,0-56.215,0c-0.438,0-0.795-0.391-0.795-0.827V24.871H1.294
		c-0.439,0-0.794-0.358-0.794-0.795v-8.028c0-0.322,0.179-0.595,0.469-0.725L31.785,1.46c0.21-0.096,0.424-0.097,0.638-0.007
		l32.597,13.85c0.297,0.128,0.48,0.404,0.48,0.731v8.041c0,0.437-0.355,0.795-0.795,0.795L61.887,24.871L61.887,24.871z
		 M11.297,64.611V32.095l0,0h43.346v32.518"/>
	<line fill="none" stroke="#000000" stroke-width="2" stroke-miterlimit="10" x1="9.527" y1="24.871" x2="18.561" y2="24.871"/>
	<line fill="none" stroke="#000000" stroke-width="2" stroke-miterlimit="10" x1="47.463" y1="24.871" x2="56.496" y2="24.871"/>
	<line fill="none" stroke="#000000" stroke-width="2" stroke-miterlimit="10" x1="34.818" y1="24.871" x2="43.852" y2="24.871"/>
	<line fill="none" stroke="#000000" stroke-width="2" stroke-miterlimit="10" x1="22.172" y1="24.871" x2="31.205" y2="24.871"/>
	<polyline fill="none" stroke="#000000" stroke-width="2" stroke-miterlimit="10" points="16.727,64.611 16.727,57.386 
		27.564,57.386 27.564,64.611 	"/>
	<rect x="16.727" y="50.16" fill="none" stroke="#000000" stroke-width="2" stroke-miterlimit="10" width="10.838" height="7.226"/>
	<rect x="27.564" y="50.16" fill="none" stroke="#000000" stroke-width="2" stroke-miterlimit="10" width="10.838" height="7.226"/>
	<g>
		
			<rect x="16.727" y="42.936" fill="none" stroke="#000000" stroke-width="2" stroke-miterlimit="10" width="10.838" height="7.228"/>
	</g>
	<g>
		<polyline fill="none" stroke="#000000" stroke-width="2" stroke-miterlimit="10" points="27.564,64.611 27.564,57.386 
			38.402,57.386 38.402,64.611 		"/>
	</g>
	<g>
		<polyline fill="none" stroke="#000000" stroke-width="2" stroke-miterlimit="10" points="38.402,64.611 38.402,57.386 
			49.242,57.386 49.242,64.611 		"/>
	</g>
</g>
</svg>
