<?xml version="1.0" encoding="utf-8"?>
<!-- Generator: Adobe Illustrator 16.0.3, SVG Export Plug-In . SVG Version: 6.00 Build 0)  -->
<!DOCTYPE svg PUBLIC "-//W3C//DTD SVG 1.1//EN" "http://www.w3.org/Graphics/SVG/1.1/DTD/svg11.dtd">
<svg version="1.1" id="Layer_1" xmlns="http://www.w3.org/2000/svg" xmlns:xlink="http://www.w3.org/1999/xlink" x="0px" y="0px"
	 width="66px" height="66px" viewBox="0 0 66 66" enable-background="new 0 0 66 66" xml:space="preserve">
<g>
	<g id="_x34_8x48">
	</g>
	<g id="icons">
		<g>
			<path fill="none" stroke="#000000" stroke-width="2" stroke-miterlimit="10" d="M7.565,31.587c0-4.805,0.283-5.652,2.826-7.771
				c1.837-1.555,2.826-2.544,2.826-4.946V4.739c0-0.848,0.565-1.413,1.413-1.413h4.239c0.848,0,1.413,0.565,1.413,1.413v14.13
				c0,2.402,0.989,3.392,2.826,4.946c2.543,2.119,2.826,3.108,2.826,7.771"/>
			<line fill="none" stroke="#000000" stroke-width="2" stroke-miterlimit="10" x1="13.218" y1="17.457" x2="20.283" y2="17.457"/>
			<path fill="none" stroke="#000000" stroke-width="2" stroke-miterlimit="10" d="M45.012,23.108
				c1.271-1.271,2.119-2.261,2.119-4.239V4.739c0-0.848,0.565-1.413,1.413-1.413h4.239c0.848,0,1.413,0.565,1.413,1.413v14.13
				c0,2.402,0.989,3.392,2.826,4.946c2.543,2.119,2.826,3.108,2.826,7.771"/>
			<line fill="none" stroke="#000000" stroke-width="2" stroke-miterlimit="10" x1="47.131" y1="17.457" x2="54.196" y2="17.457"/>
			<path fill="none" stroke="#000000" stroke-width="2" stroke-miterlimit="10" d="M28.055,23.108
				c1.271-1.271,2.12-2.261,2.12-4.239V4.739c0-0.848,0.564-1.413,1.413-1.413h4.238c0.849,0,1.413,0.565,1.413,1.413v14.13
				c0,2.402,0.989,3.392,2.826,4.946c2.544,2.119,2.826,3.108,2.826,7.771"/>
			<line fill="none" stroke="#000000" stroke-width="2" stroke-miterlimit="10" x1="30.175" y1="17.457" x2="37.239" y2="17.457"/>
			<polyline fill="none" stroke="#000000" stroke-width="2" stroke-miterlimit="10" points="0.5,47.131 0.5,34.413 65.5,34.413 
				65.5,47.131 			"/>
			<polyline fill="none" stroke="#000000" stroke-width="2" stroke-miterlimit="10" points="65.5,49.956 65.5,62.674 0.5,62.674 
				0.5,49.956 			"/>
			<line fill="none" stroke="#000000" stroke-width="2" stroke-miterlimit="10" x1="3.326" y1="48.543" x2="62.675" y2="48.543"/>
			<line fill="none" stroke="#000000" stroke-width="2" stroke-miterlimit="10" x1="4.739" y1="41.479" x2="7.565" y2="41.479"/>
			<line fill="none" stroke="#000000" stroke-width="2" stroke-miterlimit="10" x1="58.436" y1="41.479" x2="61.262" y2="41.479"/>
			<line fill="none" stroke="#000000" stroke-width="2" stroke-miterlimit="10" x1="4.739" y1="55.608" x2="7.565" y2="55.608"/>
			<line fill="none" stroke="#000000" stroke-width="2" stroke-miterlimit="10" x1="58.436" y1="55.608" x2="61.262" y2="55.608"/>
		</g>
	</g>
</g>
</svg>
