<?xml version="1.0" encoding="utf-8"?>
<!-- Generator: Adobe Illustrator 16.0.3, SVG Export Plug-In . SVG Version: 6.00 Build 0)  -->
<!DOCTYPE svg PUBLIC "-//W3C//DTD SVG 1.1//EN" "http://www.w3.org/Graphics/SVG/1.1/DTD/svg11.dtd">
<svg version="1.1" id="Layer_1" xmlns:ev="http://www.w3.org/2001/xml-events"
	 xmlns="http://www.w3.org/2000/svg" xmlns:xlink="http://www.w3.org/1999/xlink" x="0px" y="0px" width="66px" height="66px"
	 viewBox="0 0 66 66" enable-background="new 0 0 66 66" xml:space="preserve">
<path d="M64.416,65.496h-19.5h-4.333h-32.5H3.75H1.583c-0.598,0-1.083-0.484-1.083-1.082s0.485-1.084,1.083-1.084h1.083V10.253
	c0-0.598,0.485-1.083,1.083-1.083h5.417V5.92c0-0.598,0.486-1.083,1.083-1.083H23.25v-3.25c0-0.599,0.484-1.083,1.082-1.083
	c0.6,0,1.085,0.484,1.085,1.083v3.25h12.999c0.6,0,1.084,0.485,1.084,1.083v3.25h5.416c0.598,0,1.083,0.485,1.083,1.083V63.33h8.668
	v-8.775c-3.667-0.531-6.501-3.662-6.501-7.471c0-2.998,2.639-18.416,7.584-18.416c4.943,0,7.583,15.418,7.583,18.416
	c0,3.809-2.834,6.939-6.5,7.471v8.775h7.583c0.6,0,1.084,0.486,1.084,1.084S65.016,65.496,64.416,65.496z M33,63.33h6.5V48.166H33
	V63.33z M35.167,22.168v4.334H39.5v-4.334H35.167z M39.5,20.002V15.67h-4.333v4.332H39.5z M35.167,28.668v4.333H39.5v-4.333H35.167z
	 M35.167,35.168V39.5H39.5v-4.332H35.167z M35.167,41.666V46H39.5v-4.334H35.167z M28.667,22.168v4.334H33v-4.334H28.667z
	 M33,20.002V15.67h-4.333v4.332H33z M28.667,28.668v4.333H33v-4.333H28.667z M28.667,35.168V39.5H33v-4.332H28.667z M28.667,41.666
	V46H33v-4.334H28.667z M25.417,63.33h5.417V48.166h-5.417V63.33z M22.167,22.168v4.334H26.5v-4.334H22.167z M26.5,20.002V15.67
	h-4.333v4.332H26.5z M22.167,28.668v4.333H26.5v-4.333H22.167z M22.167,35.168V39.5H26.5v-4.332H22.167z M22.167,41.666V46H26.5
	v-4.334H22.167z M17.833,63.33h5.418V48.166h-5.418V63.33z M15.666,22.168v4.334H20v-4.334H15.666z M20,20.002V15.67h-4.334v4.332
	H20z M15.666,28.668v4.333H20v-4.333H15.666z M15.666,35.168V39.5H20v-4.332H15.666z M15.666,41.666V46H20v-4.334H15.666z
	 M9.166,63.33h6.5V48.166h-6.5V63.33z M9.166,46h4.333v-4.334H9.166V46z M9.166,39.5h4.333v-4.332H9.166V39.5z M9.166,33.001h4.333
	v-4.333H9.166V33.001z M9.166,26.502h4.333v-4.334H9.166V26.502z M9.166,20.002h4.333V15.67H9.166V20.002z M37.333,7.003h-26V9.17
	h26V7.003z M43.833,11.337h-5.417H10.25H4.833V63.33H7V14.586c0-0.599,0.485-1.083,1.083-1.083h32.5
	c0.599,0,1.083,0.484,1.083,1.083V63.33h2.167V11.337z M61.167,47.084c0-6.461-3.847-16.249-5.417-16.249s-5.417,9.788-5.417,16.249
	c0,2.984,2.431,5.416,5.417,5.416C58.734,52.5,61.167,50.068,61.167,47.084z M54.866,38.996c-0.583,0.135-1.164-0.232-1.296-0.816
	c-0.133-0.584,0.231-1.164,0.815-1.297c1.366-0.313,2.532,0.18,3.368,1.414c0.337,0.496,0.206,1.17-0.289,1.504
	c-0.188,0.127-0.396,0.188-0.604,0.188c-0.352,0-0.69-0.166-0.899-0.479C55.588,38.959,55.28,38.906,54.866,38.996z M54.632,48.049
	c0.581,0.146,0.933,0.736,0.786,1.314c-0.125,0.492-0.566,0.82-1.05,0.82c-0.089,0-0.179-0.014-0.267-0.035
	c-0.949-0.238-2.127-0.916-2.363-2.783c-0.074-0.596,0.348-1.137,0.938-1.211c0.596-0.07,1.137,0.346,1.213,0.938
	C53.973,47.756,54.225,47.947,54.632,48.049z"/>
</svg>
