<?xml version="1.0" encoding="utf-8"?>
<!-- Generator: Adobe Illustrator 16.0.3, SVG Export Plug-In . SVG Version: 6.00 Build 0)  -->
<!DOCTYPE svg PUBLIC "-//W3C//DTD SVG 1.1//EN" "http://www.w3.org/Graphics/SVG/1.1/DTD/svg11.dtd">
<svg version="1.1" id="Layer_1" xmlns="http://www.w3.org/2000/svg" xmlns:xlink="http://www.w3.org/1999/xlink" x="0px" y="0px"
	 width="66px" height="66px" viewBox="0 0 66 66" enable-background="new 0 0 66 66" xml:space="preserve">
<title></title>
<path fill="#FFFFFF" stroke="#000000" stroke-width="2" stroke-miterlimit="10" d="M34.687,14.223L23.353,2.961
	c-3.254-3.25-8.525-3.25-11.779,0l-8.636,8.66c-3.25,3.254-3.25,8.524,0,11.779l11.262,11.261c3.114,3.111,8.113,3.26,11.406,0.338
	l8.587-8.504l0.494-0.493C37.937,22.749,37.937,17.477,34.687,14.223z M31.229,22.593l-0.493,0.494l-8.588,8.479
	c-1.392,1.047-3.341,0.913-4.577-0.313L6.347,19.992c-1.374-1.373-1.374-3.6-0.001-4.974c0,0,0,0,0.001,0l8.659-8.648
	c1.372-1.365,3.591-1.365,4.963,0l11.261,11.262C32.596,19.003,32.596,21.221,31.229,22.593z"/>
<g>
	<g>
		<path fill="none" stroke="#000000" stroke-width="2" stroke-miterlimit="10" d="M26.87,60.245
			c-0.496-0.09-0.988-0.192-1.475-0.308"/>
		<path fill="none" stroke="#000000" stroke-width="2" stroke-miterlimit="10" stroke-dasharray="2.9538,2.9538" d="M22.563,59.106
			C13.589,55.943,6.813,48.344,4.738,38.989"/>
		<path fill="none" stroke="#000000" stroke-width="2" stroke-miterlimit="10" d="M4.457,37.538c-0.082-0.492-0.15-0.989-0.206-1.49
			"/>
	</g>
</g>
<path fill="none" stroke="#000000" stroke-width="2" stroke-miterlimit="10" stroke-dasharray="3.0111" d="M39.106,5.731
	C51.169,7.905,60.37,17.747,61.726,29.928"/>
<path fill="#FFFFFF" stroke="#000000" stroke-width="2" stroke-miterlimit="10" d="M63.063,42.6L51.777,31.35
	c-3.254-3.25-8.525-3.25-11.779,0l-0.493,0.493l-8.504,8.541c-2.922,3.293-2.774,8.291,0.337,11.405l11.286,11.25
	c3.254,3.25,8.525,3.25,11.779,0l8.66-8.66C66.313,51.125,66.313,45.854,63.063,42.6z M59.606,50.958l-8.66,8.66
	c-1.372,1.366-3.59,1.366-4.962,0l-11.25-11.249c-1.227-1.236-1.36-3.186-0.313-4.577l8.479-8.539l0.493-0.494
	c1.372-1.367,3.59-1.367,4.962,0l11.25,11.237C60.972,47.368,60.972,49.586,59.606,50.958z"/>
<rect x="19.319" y="31.024" transform="matrix(0.7071 0.7071 -0.7071 0.7071 33.1801 -13.2367)" fill="#FFFFFF" stroke="#000000" stroke-width="2" stroke-miterlimit="10" width="26.498" height="4.819"/>
</svg>
