<?xml version="1.0" encoding="utf-8"?>
<!-- Generator: Adobe Illustrator 16.0.3, SVG Export Plug-In . SVG Version: 6.00 Build 0)  -->
<!DOCTYPE svg PUBLIC "-//W3C//DTD SVG 1.1//EN" "http://www.w3.org/Graphics/SVG/1.1/DTD/svg11.dtd">
<svg version="1.1"
	 id="svg8" xmlns:dc="http://purl.org/dc/elements/1.1/" xmlns:sodipodi="http://sodipodi.sourceforge.net/DTD/sodipodi-0.dtd" xmlns:svg="http://www.w3.org/2000/svg" xmlns:inkscape="http://www.inkscape.org/namespaces/inkscape" xmlns:rdf="http://www.w3.org/1999/02/22-rdf-syntax-ns#" xmlns:cc="http://creativecommons.org/ns#"
	 xmlns="http://www.w3.org/2000/svg" xmlns:xlink="http://www.w3.org/1999/xlink" x="0px" y="0px" width="66px" height="66px"
	 viewBox="0 0 66 66" enable-background="new 0 0 66 66" xml:space="preserve">
<g id="layer1" transform="translate(0,-288.53332)">
	<path id="path121" d="M31.839,295.997v1.161c-2.257-0.773-4.708-0.773-6.964,0c-2.257,0.772-4.708,0.772-6.964,0v11.606
		c2.257,0.773,4.708,0.773,6.964,0c2.257-0.772,4.708-0.772,6.964,0v5.804H16.75v4.644H0.5v27.857h65v-27.857H49.25v-4.644H34.16
		v-18.571H31.839z M28.581,298.903c1.125,0.029,2.233,0.283,3.259,0.747v6.684c-2.537-0.701-5.228-0.62-7.717,0.236
		c-1.248,0.43-2.581,0.556-3.891,0.372v-6.933c1.825,0.163,3.664-0.063,5.396-0.656C26.576,299.028,27.577,298.878,28.581,298.903z
		 M19.071,316.89h27.857v27.857h-2.321v-16.25H21.393v16.25h-2.322V316.89z M2.821,321.533H16.75v23.214H2.821V321.533z
		 M49.25,321.533h13.929v23.214H49.25V321.533z M23.714,330.818h8.125v13.929h-8.125V330.818z M34.16,330.818h8.125v13.929H34.16
		V330.818z"/>
	<path id="path435" d="M52.347,342.426h2.321v-4.643h-2.321V342.426z"/>
	<path id="path437" d="M57.761,342.426h2.321v-4.643h-2.321V342.426z"/>
	<path id="path439" d="M52.347,335.462h2.321v-4.644h-2.321V335.462z"/>
	<path id="path441" d="M57.761,335.462h2.321v-4.644h-2.321V335.462z"/>
	<path id="path443" d="M52.347,328.497h2.321v-4.643h-2.321V328.497z"/>
	<path id="path445" d="M57.761,328.497h2.321v-4.643h-2.321V328.497z"/>
	<path id="path447" d="M5.916,342.426h2.321v-4.643H5.916V342.426z"/>
	<path id="path449" d="M11.334,342.426h2.321v-4.643h-2.321V342.426z"/>
	<path id="path451" d="M5.916,335.462h2.321v-4.644H5.916V335.462z"/>
	<path id="path453" d="M11.334,335.462h2.321v-4.644h-2.321V335.462z"/>
	<path id="path455" d="M5.916,328.497h2.321v-4.643H5.916V328.497z"/>
	<path id="path457" d="M11.334,328.497h2.321v-4.643h-2.321V328.497z"/>
</g>
</svg>
