<?xml version="1.0" encoding="utf-8"?>
<!-- Generator: Adobe Illustrator 16.0.3, SVG Export Plug-In . SVG Version: 6.00 Build 0)  -->
<!DOCTYPE svg PUBLIC "-//W3C//DTD SVG 1.1//EN" "http://www.w3.org/Graphics/SVG/1.1/DTD/svg11.dtd">
<svg version="1.1" id="Camada_1" xmlns="http://www.w3.org/2000/svg" xmlns:xlink="http://www.w3.org/1999/xlink" x="0px" y="0px"
	 width="66px" height="66px" viewBox="0 0 66 66" enable-background="new 0 0 66 66" xml:space="preserve">
<g>
	<path d="M64.201,44.115h-4.746V30.79c0-0.715-0.584-1.301-1.299-1.301h-5.851H46.91h-4.551V27.67c0-0.715-0.584-1.3-1.299-1.3
		h-4.484V12.979c0-0.714-0.586-1.3-1.301-1.3h-5.851H24.03H18.18c-0.714,0-1.299,0.586-1.299,1.3V26.37h-3.186V11.095
		c0-0.715-0.585-1.299-1.3-1.299H7.39H1.801c-0.715,0-1.301,0.584-1.301,1.299v4.42c0,0.715,0.586,1.301,1.301,1.301h4.484v33.605
		c0,0.714,0.586,1.299,1.3,1.299h5.851c0.976,2.601,3.445,4.484,6.37,4.484s5.46-1.884,6.435-4.484h16.9
		c0.975,2.601,3.445,4.484,6.435,4.484c2.926,0,5.461-1.884,6.37-4.484h8.256c0.714,0,1.299-0.585,1.299-1.299v-5.006
		C65.5,44.7,64.915,44.115,64.201,44.115z M62.9,49.12h-6.565c0-0.846-0.194-1.625-0.52-2.405H62.9V49.12z M49.511,53.604
		c-2.34,0-4.226-1.885-4.226-4.225s1.886-4.225,4.226-4.225s4.225,1.885,4.225,4.225C53.735,51.655,51.851,53.604,49.511,53.604z
		 M26.63,49.12c0-0.846-0.195-1.625-0.519-2.405h15.014h2.08c-0.325,0.716-0.455,1.56-0.52,2.405H26.63z M15.58,49.314
		c0-2.339,1.886-4.224,4.226-4.224s4.225,1.885,4.225,4.224c0,2.341-1.885,4.226-4.225,4.226
		C17.53,53.604,15.58,51.655,15.58,49.314z M8.886,49.12V12.396h2.404V27.67v17.745c0,0.715,0.586,1.3,1.3,1.3h0.976
		c-0.325,0.715-0.455,1.56-0.521,2.405H8.886L8.886,49.12z M51.07,32.09v2.795h-2.795V32.09H51.07z M45.675,32.09v4.096
		c0,0.715,0.586,1.299,1.301,1.299h5.395c0.716,0,1.3-0.584,1.3-1.299V32.09h3.25v12.09h-2.925c-1.169-0.975-2.729-1.624-4.42-1.624
		s-3.185,0.584-4.419,1.624H42.49V32.09H45.675z M28.256,14.28v2.795h-2.795V14.28H28.256z M19.61,14.28h3.25v4.096
		c0,0.714,0.585,1.299,1.3,1.299h5.395c0.716,0,1.301-0.585,1.301-1.299V14.28h3.25v12.09h-4.551H24.16h-4.55V14.28z M25.461,28.97
		h2.795v2.795h-2.795V28.97z M18.31,28.97h4.551v4.096c0,0.715,0.585,1.299,1.3,1.299h5.395c0.716,0,1.301-0.584,1.301-1.299V28.97
		h4.55h4.485v1.82v13.39H24.226c-1.17-0.975-2.73-1.624-4.42-1.624c-1.69,0-3.186,0.584-4.421,1.624h-1.624V28.97H18.31z
		 M3.101,14.215v-1.819h3.185v1.819H3.101z"/>
	<circle cx="19.806" cy="49.315" r="2.08"/>
	<circle cx="49.511" cy="49.315" r="2.08"/>
</g>
</svg>
