<?xml version="1.0" encoding="utf-8"?>
<!-- Generator: Adobe Illustrator 16.0.3, SVG Export Plug-In . SVG Version: 6.00 Build 0)  -->
<!DOCTYPE svg PUBLIC "-//W3C//DTD SVG 1.1//EN" "http://www.w3.org/Graphics/SVG/1.1/DTD/svg11.dtd">
<svg version="1.1" id="Layer_1" xmlns="http://www.w3.org/2000/svg" xmlns:xlink="http://www.w3.org/1999/xlink" x="0px" y="0px"
	 width="66px" height="66px" viewBox="0 0 66 66" enable-background="new 0 0 66 66" xml:space="preserve">
<g>
	<g>
		<path d="M64.293,45.322c-0.011-1.035-0.097-3.521-0.637-6.525c-0.649-3.613-2.105-8.66-5.362-12.192
			c-0.1-0.108-0.239-0.169-0.386-0.169H45.706V12.742c0-0.289-0.234-0.524-0.524-0.524H15.074c-0.289,0-0.523,0.235-0.523,0.524
			v2.065c-0.001,0.011-0.004,0.021-0.004,0.032c0,0.012,0.003,0.022,0.004,0.033v30.428h-0.777c-0.802,0-1.455,0.652-1.455,1.453
			c0,0.803,0.653,1.453,1.455,1.453h3.465c0.174,1.969,1.355,3.65,3.023,4.527H6.804c-0.289,0-0.524,0.234-0.524,0.523
			s0.235,0.525,0.524,0.525h33.218c0.289,0,0.524-0.236,0.524-0.525s-0.235-0.523-0.524-0.523H25.53
			c1.668-0.877,2.848-2.561,3.022-4.527h18.955c0.155,1.951,1.3,3.629,2.933,4.527h-4.563c-0.289,0-0.524,0.234-0.524,0.523
			s0.235,0.525,0.524,0.525h16.125c0.289,0,0.524-0.236,0.524-0.525s-0.235-0.523-0.524-0.523h-6.103
			c1.633-0.898,2.777-2.574,2.933-4.527h5.215c0.802,0,1.453-0.65,1.453-1.453C65.5,46.037,64.978,45.439,64.293,45.322z
			 M48.899,39.26h-3.193V27.484h11.97c2.975,3.334,4.33,8.065,4.944,11.475c0.519,2.879,0.608,5.32,0.622,6.34h-4.811
			c-0.001,0-0.001,0-0.001,0h-0.138c-0.917-1.906-2.869-3.229-5.124-3.229s-4.207,1.322-5.124,3.23
			c-0.003,0-0.005-0.002-0.006-0.002h-2.333v-4.99h3.193c0.29,0,0.524-0.234,0.524-0.525C49.424,39.494,49.189,39.26,48.899,39.26z
			 M28.413,46.348h19.251c-0.067,0.264-0.116,0.535-0.146,0.811H28.551C28.524,46.883,28.478,46.611,28.413,46.348z M17.241,47.158
			h-3.468c-0.224,0-0.406-0.18-0.406-0.404c0-0.223,0.182-0.406,0.406-0.406h3.604C17.313,46.611,17.268,46.883,17.241,47.158z
			 M15.599,45.299V17.702h1.981c0.289,0,0.524-0.235,0.524-0.524s-0.235-0.524-0.524-0.524h-1.981v-1.289h8.673
			c0.289,0,0.523-0.234,0.523-0.524c0-0.289-0.234-0.523-0.523-0.523h-8.673v-1.05h29.059v32.035H28.043
			c-0.907-1.936-2.873-3.281-5.147-3.281s-4.24,1.346-5.147,3.281L15.599,45.299L15.599,45.299z M22.896,52.336
			c-2.555,0-4.633-2.08-4.633-4.635s2.078-4.633,4.633-4.633c1.929,0,3.585,1.186,4.281,2.865c0.01,0.045,0.026,0.084,0.046,0.125
			c0.194,0.512,0.307,1.064,0.307,1.643C27.529,50.256,25.45,52.336,22.896,52.336z M53.17,52.387c-2.555,0-4.634-2.08-4.634-4.635
			s2.079-4.633,4.634-4.633s4.633,2.078,4.633,4.633S55.725,52.387,53.17,52.387z M64.047,47.158h-5.229
			c-0.029-0.275-0.075-0.547-0.143-0.811h5.371c0.224,0,0.405,0.182,0.405,0.406S64.271,47.158,64.047,47.158z"/>
		<path d="M53.17,44.418c-1.84,0-3.336,1.496-3.336,3.336c0,1.838,1.496,3.334,3.336,3.334c1.839,0,3.335-1.496,3.335-3.334
			C56.505,45.914,55.009,44.418,53.17,44.418z M53.17,50.039c-1.262,0-2.287-1.025-2.287-2.287c0-1.26,1.025-2.287,2.287-2.287
			c1.261,0,2.286,1.027,2.286,2.287C55.456,49.014,54.431,50.039,53.17,50.039z"/>
		<path d="M22.896,44.367c-1.839,0-3.335,1.496-3.335,3.334c0,1.84,1.496,3.336,3.335,3.336c1.84,0,3.336-1.496,3.336-3.336
			C26.231,45.863,24.735,44.367,22.896,44.367z M22.896,49.988c-1.261,0-2.286-1.025-2.286-2.287c0-1.26,1.025-2.287,2.286-2.287
			c1.262,0,2.287,1.027,2.287,2.287C25.183,48.963,24.157,49.988,22.896,49.988z"/>
		<path d="M60.429,38.289c0.099-0.104,0.151-0.24,0.146-0.383c-0.008-0.217-0.226-5.339-3.109-8.512
			c-0.1-0.109-0.24-0.171-0.388-0.171h-9.2c-0.289,0-0.524,0.234-0.524,0.523v8.177c0,0.291,0.235,0.525,0.524,0.525h12.173
			C60.194,38.449,60.33,38.391,60.429,38.289z M48.402,37.4v-7.129h8.438c1.981,2.32,2.511,5.799,2.645,7.129H48.402z"/>
		<path d="M12.857,49.635c0-0.289-0.235-0.525-0.524-0.525H4.71c-0.29,0-0.524,0.236-0.524,0.525s0.234,0.523,0.524,0.523h7.623
			C12.623,50.158,12.857,49.924,12.857,49.635z"/>
		<path d="M10.434,46.01c0-0.289-0.235-0.525-0.524-0.525H1.024c-0.289,0-0.524,0.236-0.524,0.525s0.235,0.523,0.524,0.523h8.885
			C10.198,46.533,10.434,46.299,10.434,46.01z"/>
		<path d="M22.896,46.76c-0.52,0-0.942,0.422-0.942,0.941c0,0.521,0.423,0.943,0.942,0.943s0.942-0.422,0.942-0.943
			C23.838,47.182,23.415,46.76,22.896,46.76z"/>
		<path d="M53.17,46.811c-0.52,0-0.942,0.422-0.942,0.941s0.422,0.943,0.942,0.943c0.519,0,0.941-0.424,0.941-0.943
			S53.689,46.811,53.17,46.811z"/>
	</g>
</g>
</svg>
