<?xml version="1.0" encoding="utf-8"?>
<!-- Generator: Adobe Illustrator 16.0.3, SVG Export Plug-In . SVG Version: 6.00 Build 0)  -->
<!DOCTYPE svg PUBLIC "-//W3C//DTD SVG 1.1//EN" "http://www.w3.org/Graphics/SVG/1.1/DTD/svg11.dtd">
<svg version="1.1" id="Layer_1" xmlns="http://www.w3.org/2000/svg" xmlns:xlink="http://www.w3.org/1999/xlink" x="0px" y="0px"
	 width="66px" height="66px" viewBox="0 0 66 66" enable-background="new 0 0 66 66" xml:space="preserve">
<g id="Layer_x0020_1">
	<g id="_206305400">
		<path id="_206305904" d="M21.956,16.079l10.341-9.942c0.395-0.38,1.019-0.376,1.408,0.004l0,0l0.007,0.007l10.229,9.936
			l0.006,0.007l0.314,0.28c0.224,0.2,0.337,0.477,0.337,0.754h0.005v14.72c0,0.562-0.455,1.016-1.016,1.016H22.413
			c-0.562,0-1.016-0.454-1.016-1.016V17.045c0-0.314,0.143-0.596,0.366-0.782L21.956,16.079L21.956,16.079z M32.995,8.275
			l-9.566,9.198v13.354h19.143V17.574c-0.015-0.013-0.029-0.025-0.043-0.039L32.995,8.275L32.995,8.275z"/>
		<path id="_206305472" d="M30.218,21.878h5.563c0.562,0,1.017,0.455,1.017,1.016v8.965c0,0.561-0.455,1.016-1.017,1.016h-5.563
			c-0.561,0-1.016-0.455-1.016-1.016v-8.965C29.202,22.333,29.657,21.878,30.218,21.878z M34.766,23.909h-3.532v6.934h3.532V23.909z
			"/>
		<path id="_206305544" d="M18.905,16.388c-0.405,0.386-1.047,0.37-1.433-0.035c-0.386-0.406-0.369-1.047,0.036-1.433L32.302,0.872
			c0.393-0.374,1.008-0.37,1.396,0L48.49,14.92c0.405,0.386,0.422,1.026,0.036,1.433c-0.386,0.405-1.027,0.421-1.433,0.035L33,3.004
			L18.905,16.388z"/>
		<path id="_206305328" d="M5.261,48.612l10.342-9.942c0.395-0.38,1.019-0.376,1.408,0.004l0,0l0.006,0.006l10.229,9.937
			l0.007,0.006l0.313,0.281c0.224,0.2,0.337,0.477,0.337,0.754h0.005v14.72c0,0.561-0.455,1.016-1.017,1.016H5.719
			c-0.562,0-1.017-0.455-1.017-1.016V49.578c0-0.314,0.144-0.596,0.367-0.782L5.261,48.612L5.261,48.612z M16.301,40.809
			l-9.566,9.198v13.354h19.142V50.107c-0.015-0.013-0.028-0.025-0.043-0.039L16.301,40.809L16.301,40.809z"/>
		<path id="_206305040" d="M13.523,54.411h5.563c0.562,0,1.016,0.455,1.016,1.016v8.965c0,0.561-0.454,1.016-1.016,1.016h-5.563
			c-0.562,0-1.016-0.455-1.016-1.016v-8.965C12.508,54.866,12.962,54.411,13.523,54.411z M18.071,56.442h-3.532v6.933h3.532V56.442z
			"/>
		<path id="_206304944" d="M2.211,48.921c-0.405,0.386-1.047,0.369-1.433-0.036c-0.385-0.405-0.369-1.046,0.036-1.432l14.792-14.048
			c0.394-0.374,1.009-0.37,1.397,0l14.792,14.048c0.405,0.386,0.422,1.026,0.036,1.432s-1.027,0.422-1.433,0.036L16.306,35.537
			L2.211,48.921L2.211,48.921z"/>
		<path id="_206304920" d="M38.649,48.612l10.342-9.942c0.395-0.38,1.019-0.376,1.408,0.004l0,0l0.007,0.006l10.229,9.937
			l0.007,0.006l0.313,0.281c0.224,0.2,0.337,0.477,0.337,0.754h0.005v14.72c0,0.561-0.455,1.016-1.016,1.016H39.107
			c-0.562,0-1.016-0.455-1.016-1.016V49.578c0-0.314,0.143-0.596,0.366-0.782L38.649,48.612L38.649,48.612z M49.689,40.809
			l-9.566,9.197v13.355h19.142V50.107c-0.014-0.013-0.028-0.025-0.043-0.039L49.689,40.809L49.689,40.809z"/>
		<path id="_206305232" d="M46.912,54.411h5.564c0.561,0,1.016,0.455,1.016,1.016v8.965c0,0.561-0.455,1.016-1.016,1.016h-5.564
			c-0.561,0-1.016-0.455-1.016-1.016v-8.965C45.896,54.866,46.352,54.411,46.912,54.411z M51.46,56.442h-3.532v6.933h3.532V56.442z"
			/>
		<path id="_206304824" d="M35.6,48.921c-0.405,0.386-1.046,0.369-1.433-0.036c-0.385-0.405-0.369-1.046,0.036-1.432l14.793-14.048
			c0.393-0.374,1.008-0.37,1.396,0l14.792,14.048c0.405,0.386,0.422,1.026,0.036,1.432s-1.027,0.422-1.433,0.036L49.694,35.537
			L35.6,48.921z"/>
	</g>
</g>
</svg>
