<?xml version="1.0" encoding="utf-8"?>
<!-- Generator: Adobe Illustrator 16.0.3, SVG Export Plug-In . SVG Version: 6.00 Build 0)  -->
<!DOCTYPE svg PUBLIC "-//W3C//DTD SVG 1.1//EN" "http://www.w3.org/Graphics/SVG/1.1/DTD/svg11.dtd">
<svg version="1.1" id="Layer_1" xmlns="http://www.w3.org/2000/svg" xmlns:xlink="http://www.w3.org/1999/xlink" x="0px" y="0px"
	 width="66px" height="66px" viewBox="0 0 66 66" enable-background="new 0 0 66 66" xml:space="preserve">
<g id="Layer_x0020_1">
	<polygon points="0.5,40.554 24.908,22.248 25.856,21.537 26.689,22.371 36.436,32.116 62.168,7.854 64.035,9.838 37.339,35.009 
		36.375,35.918 35.439,34.982 25.593,25.136 2.133,42.73 	"/>
	<polygon points="54.981,6.052 64.134,6.052 65.5,6.052 65.5,7.417 65.5,16.458 62.769,16.458 62.769,8.783 54.981,8.783 	"/>
	<polygon points="7.258,43.168 7.258,59.948 4.526,59.948 4.526,43.168 	"/>
	<polygon points="17.937,37.065 17.937,59.948 15.205,59.948 15.205,37.065 	"/>
	<polygon points="28.615,31.497 28.615,59.948 25.884,59.948 25.884,31.497 	"/>
	<polygon points="39.294,40.117 39.294,59.948 36.563,59.948 36.563,40.117 	"/>
	<polygon points="49.973,32.489 49.973,59.948 47.241,59.948 47.241,32.489 	"/>
	<polygon points="59.125,20.285 59.125,59.948 56.395,59.948 56.395,20.285 	"/>
</g>
<rect fill="none" width="491.52" height="491.52"/>
</svg>
