<?xml version="1.0" encoding="utf-8"?>
<!-- Generator: Adobe Illustrator 16.0.3, SVG Export Plug-In . SVG Version: 6.00 Build 0)  -->
<!DOCTYPE svg PUBLIC "-//W3C//DTD SVG 1.1//EN" "http://www.w3.org/Graphics/SVG/1.1/DTD/svg11.dtd">
<svg version="1.1" id="Layer_1" xmlns="http://www.w3.org/2000/svg" xmlns:xlink="http://www.w3.org/1999/xlink" x="0px" y="0px"
	 width="66px" height="66px" viewBox="0 0 66 66" enable-background="new 0 0 66 66" xml:space="preserve">
<g>
	<path d="M44.31,23.64c-1.117-1.3-2.002-2.34-2.002-4.939c0-0.442-0.025-0.858-0.052-1.222c0-0.026,0.026-0.053,0.026-0.078
		c0-0.131-0.026-0.234-0.052-0.364c0-0.078-0.026-0.208-0.026-0.364c-0.052-0.26-0.078-0.572-0.104-0.78l0,0
		c-0.312-2.002-0.857-3.718-1.403-5.407l-0.156-0.469C40.462,9.73,40.358,9.47,40.28,9.21s-0.13-0.832-0.183-1.352
		c-0.052-0.391-0.078-0.729-0.13-1.015c0-0.078-0.025-0.182-0.025-0.233c-0.026-0.13-0.053-0.286-0.053-0.416l0.832-0.858
		c0.391-0.39,0.469-1.014,0.234-1.508l-1.248-2.6C39.5,0.786,39.032,0.5,38.538,0.5H27.8c-0.494,0-0.936,0.286-1.17,0.702
		l-1.326,2.6c-0.233,0.521-0.13,1.118,0.261,1.534l0.909,0.91l-0.13,0.468c-0.025,0.183-0.078,0.65-0.156,1.145
		c-0.052,0.52-0.104,1.092-0.182,1.352c-0.078,0.286-0.182,0.572-0.286,0.858l-0.182,0.52c-0.521,1.534-1.118,3.276-1.43,5.304
		c-0.026,0.208-0.053,0.521-0.078,0.78c0,0.13-0.026,0.26-0.026,0.364c-0.052,0.104-0.052,0.233-0.052,0.364
		c0,0.025,0,0.052,0.025,0.078C23.926,17.842,23.9,18.232,23.9,18.7c0,2.6-0.91,3.64-2.08,4.939C20.416,25.2,18.7,27.124,18.7,31.7
		V59c0,6.318,12.844,6.5,14.3,6.5c0.026,0,0.546,0,1.404-0.052c2.574-0.13,6.188-0.546,8.918-1.69C46.624,62.38,47.3,60.404,47.3,59
		V31.7C47.3,27.124,45.636,25.2,44.31,23.64z M44.7,31.7v19.708c-4.108,0.754-8.269,1.118-12.454,1.092
		c-3.666-0.052-7.332-0.442-10.946-1.118V31.7c0-0.364,0.026-0.702,0.052-1.04c3.589,0.624,7.229,0.988,10.868,1.04
		c0.261,0,0.521,0,0.78,0c3.9,0,7.826-0.364,11.674-1.04C44.674,30.998,44.7,31.336,44.7,31.7z M28.06,11.316l0.131-0.391
		c0-0.025,0-0.025,0.025-0.052h9.594l0.183,0.572c0.468,1.403,0.988,2.964,1.273,4.653H26.708
		C27.02,14.384,27.54,12.824,28.06,11.316z M28.58,3.1h8.84l0.521,1.066l-0.65,0.65c-0.26,0.26-0.416,0.624-0.39,1.014
		c0,0,0.052,0.78,0.13,1.196c0,0.077,0.025,0.208,0.025,0.286c0.026,0.155,0.078,0.493,0.104,0.857c0,0.052,0,0.078,0.025,0.156
		H28.71c0-0.052,0-0.078,0.026-0.156c0.052-0.364,0.078-0.702,0.104-0.832c0-0.052,0.026-0.104,0.026-0.182l0.052-0.234
		c0.156-0.52,0.39-1.43-0.286-2.105l-0.572-0.65L28.58,3.1z M26.5,18.7h13c0,3.588,1.456,5.226,2.756,6.682
		c0.729,0.832,1.404,1.586,1.846,2.73c-3.926,0.676-7.903,1.014-11.882,0.987c-3.458-0.052-6.916-0.416-10.348-1.014
		c0.442-1.118,1.118-1.872,1.846-2.704C25.044,23.926,26.5,22.288,26.5,18.7z M42.334,61.392c-2.496,1.066-6.11,1.378-8.034,1.482
		C33.494,62.9,33.026,62.9,33,62.9c-4.732,0-11.7-1.248-11.7-3.9v-4.992c3.614,0.65,7.254,1.04,10.92,1.092c0.261,0,0.521,0,0.754,0
		c3.927,0,7.853-0.363,11.727-1.04V59C44.7,59.91,43.895,60.716,42.334,61.392z M27.904,39.968l-3.068,0.91
		c-0.546,0.156-0.936,0.676-0.936,1.248v5.2c0,0.416,0.182,0.806,0.52,1.04c0.338,0.233,0.754,0.312,1.145,0.208l3.796-1.118
		c1.092,1.508,2.781,2.47,4.472,2.47c2.574,0,4.498-2.158,5.122-5.72l2.288-0.858c0.52-0.208,0.857-0.676,0.857-1.222v-5.2
		c0-0.441-0.208-0.832-0.571-1.065c-0.364-0.234-0.807-0.286-1.196-0.13l-2.6,1.014c-1.04-1.586-2.366-2.393-3.9-2.393
		C31.154,34.326,28.632,36.796,27.904,39.968z M33.832,36.926c0.313,0,1.17,0,2.158,1.977c0.312,0.598,1.014,0.884,1.638,0.624
		l1.872-0.702v2.418l-2.158,0.832c-0.441,0.182-0.779,0.572-0.832,1.065c-0.233,1.95-1.092,4.212-2.678,4.212
		c-1.014,0-2.132-0.832-2.704-1.976c-0.234-0.442-0.676-0.728-1.17-0.728c-0.13,0-0.234,0.025-0.364,0.052L26.5,45.584v-2.496
		l2.912-0.857c0.494-0.156,0.857-0.572,0.91-1.093C30.634,38.642,32.428,36.926,33.832,36.926z"/>
</g>
</svg>
