<?xml version="1.0" encoding="utf-8"?>
<!-- Generator: Adobe Illustrator 16.0.3, SVG Export Plug-In . SVG Version: 6.00 Build 0)  -->
<!DOCTYPE svg PUBLIC "-//W3C//DTD SVG 1.1//EN" "http://www.w3.org/Graphics/SVG/1.1/DTD/svg11.dtd">
<svg version="1.1" id="Слой_1" xmlns="http://www.w3.org/2000/svg" xmlns:xlink="http://www.w3.org/1999/xlink" x="0px" y="0px"
	 width="66px" height="66px" viewBox="0 0 66 66" enable-background="new 0 0 66 66" xml:space="preserve">
<rect fill="none" width="92.168" height="92.168"/>
<path d="M33.003,29.984c-1.689,0-3.052,1.36-3.052,3.043c0,1.67,1.362,3.043,3.052,3.043c1.675,0,3.053-1.373,3.053-3.043
	C36.056,31.342,34.677,29.984,33.003,29.984L33.003,29.984z M32.958,0.972c4.386,0,4.52,1.58,4.934,5.599
	c0.386,3.708,1.217,3.472,4.239,4.564c2.488,0.901,2.652,0.694,4.534-1.181c2.742-2.733,4-4.181,7.334-1.404
	c3.394,2.821,2.43,4.298,0.179,7.623c-1.867,2.747-1.72,2.763-0.12,5.702c1.513,2.777,1.498,2.659,4.697,2.407
	c3.912-0.31,5.794-0.65,6.565,3.648c0.8,4.447-1.098,4.905-5.053,5.983c-3.039,0.843-3.172,0.769-3.778,3.855
	c-0.638,3.295-0.504,3.221,2.238,5.171c3.244,2.306,4.919,3.338,2.712,7.149c-2.297,3.959-4.091,2.866-7.823,1.212
	c-2.727-1.227-3.038-1.627-5.364,0.296c-2.43,2.023-2.43,2.155-1.601,5.199c1.023,3.81,1.955,6.086-2.311,7.651
	c-4.356,1.597-5.01-0.222-6.832-3.944c-1.423-2.91-1.259-3.426-4.518-3.426c-3.127,0-3.112,0.324-4.445,3.131
	c-1.69,3.53-2.431,5.835-6.653,4.328c-4.416-1.596-3.645-3.692-2.607-7.814c0.726-2.895,0.948-3.101-1.378-4.978
	c-2.504-2.023-2.579-1.893-5.512-0.547c-3.778,1.714-5.601,2.865-7.897-1.211c-2.089-3.708-0.518-4.772,2.579-7.017
	c2.608-1.876,3.096-1.832,2.46-5.008c-0.667-3.25-0.652-3.25-3.868-4.137c-4.119-1.138-5.763-1.506-4.979-6.042
	c0.711-4.135,2.667-3.854,6.431-3.589c3.319,0.236,3.334,0.311,4.979-2.629c1.556-2.763,1.674-2.688-0.104-5.259
	c-2.327-3.383-3.512-4.815-0.061-7.726c3.394-2.851,4.639-1.477,7.482,1.359c2.164,2.157,2.134,2.098,4.978,1.005
	c3.157-1.211,3.467-1.138,3.779-4.491C28.558,2.553,28.662,0.972,32.958,0.972L32.958,0.972z M32.958,3.188
	c-2.756,0-2.296,0.561-2.577,3.471c-0.415,4.299-1.23,4.815-5.187,6.337c-3.718,1.417-4.504,1.343-7.349-1.492
	c-2.134-2.127-2.297-3.073-4.475-1.242c-2.252,1.906-1.318,2.217,0.445,4.786c2.312,3.339,2.193,4.077,0.223,7.593
	c-2.12,3.752-2.845,4.063-7.083,3.752c-2.756-0.19-3.63-0.813-4.075,1.759c-0.533,3.028,0.208,2.673,3.379,3.545
	c4.089,1.123,4.608,1.698,5.438,5.834c0.844,4.166,0.015,4.83-3.319,7.224c-2.727,1.98-3.319,1.876-1.585,4.772
	c1.155,1.934,2.741,0.546,4.682-0.34c3.749-1.714,4.593-1.773,7.823,0.841c3.082,2.496,3.082,3.473,2.134,7.226
	c-0.756,3.012-1.777,4.119,1.216,5.197c2.638,0.945,2.652-0.62,3.882-3.189c1.719-3.604,2.372-4.402,6.46-4.402
	c4.268,0,4.727,0.989,6.52,4.683c1.394,2.851,1.2,3.885,4.06,2.821c2.713-0.99,1.69-2.187,0.934-4.993
	c-1.052-3.914-0.813-4.874,2.341-7.475c3.082-2.54,4.148-2.201,7.675-0.62c2.815,1.256,3.513,2.274,4.994-0.28
	c1.438-2.467,0.355-2.541-2.074-4.269c-3.481-2.468-3.942-3.146-3.127-7.372c0.785-4.018,1.483-4.491,5.38-5.569
	c2.947-0.813,3.985-0.547,3.452-3.456c-0.489-2.732-1.289-2.083-4.223-1.847c-4.104,0.325-4.845,0.075-6.816-3.56
	c-2-3.693-2.148-4.49,0.237-7.991c1.689-2.482,2.489-2.822,0.252-4.683c-2.121-1.757-2.312-0.768-4.357,1.271
	c-3.26,3.25-4.489,2.703-8.653,1.019c-2.875-1.181-3.512-2.068-3.897-5.746C35.373,3.765,35.833,3.188,32.958,3.188L32.958,3.188z
	 M33.003,16.66c-9.067,0-16.417,7.326-16.417,16.367c0,9.026,7.35,16.353,16.417,16.353c9.053,0,16.403-7.327,16.403-16.353
	C49.406,23.987,42.056,16.66,33.003,16.66L33.003,16.66z M33.003,14.444c10.283,0,18.626,8.316,18.626,18.583
	c0,10.251-8.343,18.568-18.626,18.568c-10.297,0-18.64-8.316-18.64-18.568C14.363,22.76,22.706,14.444,33.003,14.444L33.003,14.444z
	 M33.003,27.769c2.904,0,5.274,2.349,5.274,5.258c0,2.896-2.37,5.26-5.274,5.26c-2.918,0-5.275-2.364-5.275-5.26
	C27.728,30.118,30.084,27.769,33.003,27.769L33.003,27.769z"/>
</svg>
