<?xml version="1.0" encoding="utf-8"?>
<!-- Generator: Adobe Illustrator 16.0.3, SVG Export Plug-In . SVG Version: 6.00 Build 0)  -->
<!DOCTYPE svg PUBLIC "-//W3C//DTD SVG 1.1//EN" "http://www.w3.org/Graphics/SVG/1.1/DTD/svg11.dtd">
<svg version="1.1" id="Layer_1" xmlns="http://www.w3.org/2000/svg" xmlns:xlink="http://www.w3.org/1999/xlink" x="0px" y="0px"
	 width="66px" height="66px" viewBox="0 0 66 66" enable-background="new 0 0 66 66" xml:space="preserve">
<title></title>
<g id="OutLine">
	<path d="M4.833,59h56.333c2.393,0,4.334-1.939,4.334-4.333v-3.25c0-0.599-0.486-1.084-1.084-1.084h-1.084v-39
		C63.332,8.939,61.393,7,59,7H7c-2.394,0-4.333,1.939-4.333,4.333v39H1.583c-0.599,0-1.083,0.485-1.083,1.084v3.25
		C0.5,57.061,2.44,59,4.833,59z M4.833,11.333c0-1.197,0.97-2.167,2.167-2.167h52c1.197,0,2.168,0.97,2.168,2.167v39H42.75
		c-0.287,0-0.563,0.114-0.766,0.316l-1.85,1.851h-14.27l-1.85-1.851c-0.204-0.202-0.479-0.316-0.766-0.316H4.833L4.833,11.333
		L4.833,11.333z M2.667,52.5h20.135l1.851,1.85c0.203,0.203,0.479,0.317,0.766,0.317h15.167c0.287,0,0.563-0.114,0.766-0.317
		l1.85-1.85h20.135v2.167c0,1.196-0.969,2.166-2.166,2.166H4.837c-1.197,0-2.167-0.97-2.167-2.166V52.5H2.667z"/>
	<path d="M57.918,46V13.5c0-0.598-0.486-1.083-1.084-1.083H9.167c-0.598,0-1.083,0.485-1.083,1.083V46
		c0,0.599,0.485,1.083,1.083,1.083h47.667C57.432,47.083,57.918,46.599,57.918,46z M55.75,44.917h-45.5V14.584h45.5V44.917z"/>
	<path d="M14.464,32.994l1.202,0.133v7.456c0,0.599,0.485,1.084,1.083,1.084h4.333c0.598,0,1.083-0.485,1.083-1.084V33.85
		l11.797,1.312c0.039,0.004,0.08,0.007,0.119,0.007c0.598,0,1.084-0.484,1.084-1.084V18.917c0-0.598-0.486-1.083-1.084-1.083
		c-0.039,0-0.08,0.002-0.119,0.006l-19.5,2.167c-0.549,0.062-0.964,0.525-0.964,1.077v10.833
		C13.5,32.469,13.917,32.933,14.464,32.994z M20,39.5h-2.167v-6.133L20,33.607V39.5z M33,32.873l-13-1.445V21.57l13-1.445V32.873z
		 M15.667,22.058l2.167-0.239v9.375l-2.167-0.24V22.058z"/>
	<rect x="42.75" y="17.833" width="2.168" height="2.167"/>
	<rect x="47.084" y="17.833" width="5.416" height="2.167"/>
	<rect x="38.418" y="22.167" width="14.082" height="2.167"/>
	<rect x="38.418" y="26.5" width="14.082" height="2.167"/>
	<rect x="38.418" y="30.833" width="14.082" height="2.167"/>
	<rect x="38.418" y="35.167" width="14.082" height="2.166"/>
	<rect x="38.418" y="39.5" width="9.75" height="2.167"/>
</g>
</svg>
