<?xml version="1.0" encoding="utf-8"?>
<!-- Generator: Adobe Illustrator 16.0.3, SVG Export Plug-In . SVG Version: 6.00 Build 0)  -->
<!DOCTYPE svg PUBLIC "-//W3C//DTD SVG 1.1//EN" "http://www.w3.org/Graphics/SVG/1.1/DTD/svg11.dtd">
<svg version="1.1" id="Layer_2" xmlns="http://www.w3.org/2000/svg" xmlns:xlink="http://www.w3.org/1999/xlink" x="0px" y="0px"
	 width="66px" height="66px" viewBox="0 0 66 66" enable-background="new 0 0 66 66" xml:space="preserve">
<g>
	<path id="XMLID_788_" d="M52.297,26.906c7.313,0,13.203-5.891,13.203-13.203S59.609,0.5,52.297,0.5S39.094,6.391,39.094,13.703
		c0,1.016,0.102,2.031,0.406,3.047l-15.641,7.82c-2.438-2.844-6.094-4.773-10.156-4.773C6.391,19.797,0.5,25.688,0.5,33
		s5.891,13.203,13.203,13.203c4.063,0,7.719-1.828,10.156-4.773L39.5,49.25c-0.305,1.016-0.406,2.031-0.406,3.047
		c0,7.313,5.891,13.203,13.203,13.203S65.5,59.609,65.5,52.297s-5.891-13.203-13.203-13.203c-4.063,0-7.719,1.828-10.156,4.773
		L26.5,36.047c0.203-1.016,0.406-1.93,0.406-3.047c0-1.016-0.102-2.031-0.406-3.047l15.641-7.82
		C44.578,25.078,48.234,26.906,52.297,26.906z M52.297,45.188c3.961,0,7.109,3.148,7.109,7.109s-3.148,7.109-7.109,7.109
		s-7.109-3.148-7.109-7.109S48.336,45.188,52.297,45.188z M13.703,40.109c-3.961,0-7.109-3.148-7.109-7.109s3.148-7.109,7.109-7.109
		c2.742,0,5.18,1.625,6.398,3.961l0,0l0,0c0.508,0.914,0.711,2.031,0.711,3.148s-0.305,2.234-0.711,3.148l0,0l0,0
		C18.883,38.484,16.445,40.109,13.703,40.109z M52.297,6.594c3.961,0,7.109,3.148,7.109,7.109s-3.148,7.109-7.109,7.109
		s-7.109-3.148-7.109-7.109S48.336,6.594,52.297,6.594z"/>
</g>
</svg>
