<svg xmlns="http://www.w3.org/2000/svg" viewBox="0 0 77.73 77.73">
	<defs>
		<style>
			.iconGreen {
				fill: hsl(125, 47%, 44%);
			}
		</style>
	</defs>
	<path class="iconGreen" d="M46.63,20.93a3.59,3.59,0,0,0-2.29.62,7.14,7.14,0,0,1-2.73.93c-.4.07-1.32.29-1.42.94s.66,1,.91,1.19a13.77,13.77,0,0,0,2.53,1,6.62,6.62,0,0,0,1.87.28h.1a4.2,4.2,0,0,0,1.27-.19,3.39,3.39,0,0,0,1.86-3.18C48.65,22,48.28,21.07,46.63,20.93Zm-.08.82c.84.08,1.28.37,1.35.9a2.65,2.65,0,0,1-1.31,2.28,5.11,5.11,0,0,1-2.73-.11,12.62,12.62,0,0,1-2.36-.94,2.12,2.12,0,0,1-.47-.33,2.12,2.12,0,0,1,.71-.25h0a8,8,0,0,0,3-1A3,3,0,0,1,46.55,21.75Z"/>
	<path class="iconGreen" d="M47.55,19.55a8.08,8.08,0,0,0-1.93-.08,6.19,6.19,0,0,0,.09-1v-1.1a13.59,13.59,0,0,0,0-1.52,4.12,4.12,0,0,0,.16-2,.26.26,0,0,1,.06-.24L47,12.36a.29.29,0,0,1,.26-.08,1.46,1.46,0,0,0,1.38-.47,1.42,1.42,0,0,0,0-1.84,1.44,1.44,0,0,0-.82-.46,1.36,1.36,0,0,0-.46-.82A1.41,1.41,0,0,0,45,10.06a.27.27,0,0,1-.08.26l-1.2,1.09a.26.26,0,0,1-.24.06,4.16,4.16,0,0,0-2.19.21H35.69c-4.1,0-8.2,3-9,6.53-.36,1.66-.78,4.64.37,5.95a1.93,1.93,0,0,0,1.67.61H32.1v3.13a4.34,4.34,0,0,0,.15,1.18c.29,1,1.66,4.2,7.18,4.2h0a16.26,16.26,0,0,0,2.4-.18c4.78-.67,8.66-4.72,8.67-7.63V22.4C50.5,21.5,50.12,19.93,47.55,19.55Zm-10.07-3.4a3.93,3.93,0,0,0,0,1.08,2.7,2.7,0,0,0,1,1.94,3.06,3.06,0,0,0,2,.71h.1a.5.5,0,0,0,0-1h-.08a1.94,1.94,0,0,1-2.07-1.71.78.78,0,0,0,0-.09,4.28,4.28,0,0,1,1.38-3.31,4.17,4.17,0,0,1,3.51-1.35,1.29,1.29,0,0,0,1.1-.3l1-.88.48-.53A1.23,1.23,0,0,0,46,9.85a.43.43,0,0,1,.69-.42.49.49,0,0,1,.15.27.91.91,0,0,0,.78.78.4.4,0,0,1,.26.14.42.42,0,0,1-.41.69,1.26,1.26,0,0,0-1.2.39l-1.09,1.19a1.29,1.29,0,0,0-.3,1.1c.32,1.65-1,3.74-2.88,4.57a.49.49,0,0,0,0,.91.46.46,0,0,0,.38,0,6.2,6.2,0,0,0,2.34-1.84v.84a5,5,0,0,1-.16,1.21,9.24,9.24,0,0,0-1.57.64,9.32,9.32,0,0,1-5.57,1l-.32,0h-.06a2.2,2.2,0,0,0-.36-.3l-.16-.11-1.79-1.16a.08.08,0,0,1,0-.07s0,0,0,0l.25-.36h0l0,0,0,0,0,0h0l-.07-.05.07,0h0l-.1-.06h0l.1.05,0,0h0l1.37-2a2.24,2.24,0,0,0-.27-2.84.88.88,0,0,0-1.24,0L31.24,18a2.64,2.64,0,0,0,0,3.73l.84.84a.5.5,0,0,0,.35.14h0a.52.52,0,0,0,.35-.14.5.5,0,0,0,0-.7L31.94,21a1.64,1.64,0,0,1,0-2.34l3.55-3.55a1.28,1.28,0,0,1,.08,1.52L33.94,19a1.18,1.18,0,0,0-.15.25v.8a1.14,1.14,0,0,0,.19.3l.57.42.9.59a3.93,3.93,0,0,0-2.64,1.33,3.44,3.44,0,0,0-.55,1.08H28.92a1.15,1.15,0,0,1-1-.43c-.6-.74-.66-2.47-.15-4.88.64-3.09,4.32-5.81,7.88-5.81H39.6A5.85,5.85,0,0,0,37.48,16.15Zm4.23,13.07c-6.82,1-8.36-2.39-8.66-3.43a3.16,3.16,0,0,1,.41-2.59,3.91,3.91,0,0,1,3.16-1.09l.75,0a10.05,10.05,0,0,0,6-1.09,5.89,5.89,0,0,1,4.06-.68c1,.15,2.24.63,2.24,2C49.66,25,46,28.62,41.71,29.22ZM34.88,19.11l0,0h0Zm-2,8.34c.83,1.2,2.65,2.78,6.49,2.78h0a19.53,19.53,0,0,0,2.4-.18,11.32,11.32,0,0,0,7.84-5v.45c0,2.57-3.69,6.21-8,6.81-6.81.95-8.36-2.39-8.66-3.43a3.81,3.81,0,0,1-.12-.95Z"/>
	<path class="iconGreen" d="M42.11,25.62l0,.15h0l0-.15a11.54,11.54,0,0,1-1.72-.54,2,2,0,0,1-.81-.8c-.41-.62-.87-1.33-2.88-1.5a3.36,3.36,0,0,0-2.51.85,1.88,1.88,0,0,0-.33,1.71,3.65,3.65,0,0,0,1.74,2.27,7.93,7.93,0,0,0,4.19,1,12.79,12.79,0,0,0,3-.36c1.27-.3,2.06-.6,2.07-1.2S43.93,26.11,42.11,25.62ZM36,26.9a2.83,2.83,0,0,1-1.37-1.74,1.13,1.13,0,0,1,.16-1,2.51,2.51,0,0,1,1.73-.56h.08c1.6.14,1.88.57,2.25,1.13A2.69,2.69,0,0,0,40,25.82a11.88,11.88,0,0,0,1.88.61,14,14,0,0,1,2,.64,6.54,6.54,0,0,1-1.3.41C38.89,28.35,36.77,27.37,36,26.9Z"/>
	<path class="iconGreen" d="M37.6,31.85a7.6,7.6,0,0,0,1.84.23,10.79,10.79,0,0,0,2.27-.23.41.41,0,1,0-.18-.81h0a8.29,8.29,0,0,1-3.7,0,.41.41,0,0,0-.31,0,.44.44,0,0,0-.2.25A.41.41,0,0,0,37.6,31.85Z"/>
	<path class="iconGreen" d="M42.81,31.52l.11,0a8.15,8.15,0,0,0,1.15-.38.39.39,0,0,0,.22-.23.5.5,0,0,0,0-.32.43.43,0,0,0-.55-.21,8.13,8.13,0,0,1-1,.34.42.42,0,0,0,.1.82Z"/>
	<path d="M21.68,39.55l2.59,8.12,2.6-8.12h1.61v10H27.23V45.63l.12-3.89-2.6,7.76h-1L21.2,41.77l.11,3.86V49.5H20.06v-10Z"/>
	<path d="M33.13,49.64A2.69,2.69,0,0,1,31,48.82a3.54,3.54,0,0,1-.75-2.42v-.9A4.17,4.17,0,0,1,31,42.91,2.38,2.38,0,0,1,33,42a2.31,2.31,0,0,1,1.94.83,4.23,4.23,0,0,1,.66,2.57v.8H31.46v.17a2.7,2.7,0,0,0,.45,1.73,1.55,1.55,0,0,0,1.28.54,2.13,2.13,0,0,0,.94-.2,2.39,2.39,0,0,0,.77-.64l.63.76A2.76,2.76,0,0,1,33.13,49.64ZM33,43a1.27,1.27,0,0,0-1.11.51,3,3,0,0,0-.41,1.61h2.91V45a2.8,2.8,0,0,0-.38-1.5A1.17,1.17,0,0,0,33,43Z"/>
	<path d="M40.86,49.5a2.68,2.68,0,0,1-.16-.8,1.91,1.91,0,0,1-1.64.94,2.15,2.15,0,0,1-1.57-.56,2.19,2.19,0,0,1-.56-1.59,2.23,2.23,0,0,1,.76-1.79,3.12,3.12,0,0,1,2.1-.68h.89v-.79a1.29,1.29,0,0,0-.29-.94,1.26,1.26,0,0,0-.9-.28,1.28,1.28,0,0,0-.89.32,1.09,1.09,0,0,0-.34.83H37.05a1.94,1.94,0,0,1,.34-1.09,2.35,2.35,0,0,1,.9-.81A2.78,2.78,0,0,1,39.55,42a2.45,2.45,0,0,1,1.73.56,2.25,2.25,0,0,1,.6,1.65v3.73a4.63,4.63,0,0,0,.24,1.48v.11Zm-1.62-1a1.56,1.56,0,0,0,.85-.25,1.5,1.5,0,0,0,.59-.61V45.91H40a2.27,2.27,0,0,0-1.36.39,1.21,1.21,0,0,0-.5,1,1.32,1.32,0,0,0,.25.91A1.09,1.09,0,0,0,39.24,48.54Z"/>
	<path d="M45.36,40.32v1.79h1.11v1H45.36v4.6a1.2,1.2,0,0,0,.14.66.54.54,0,0,0,.49.23,1.46,1.46,0,0,0,.49-.09l0,1a2.64,2.64,0,0,1-.84.14,1.27,1.27,0,0,1-1.09-.51,2.43,2.43,0,0,1-.38-1.45v-4.6H43v-1h1.12V40.32Z"/>
	<path d="M50.94,46.83a2.55,2.55,0,0,1,.34-1.3,5.48,5.48,0,0,1,1.3-1.39,6.82,6.82,0,0,1-.77-1.3,2.61,2.61,0,0,1-.21-1,2.54,2.54,0,0,1,.58-1.78,2.06,2.06,0,0,1,1.57-.64,2,2,0,0,1,1.48.6,2.11,2.11,0,0,1,.59,1.51,2.52,2.52,0,0,1-.24,1.09,3,3,0,0,1-.82,1l-.7.6,1.75,2.52a5,5,0,0,0,.32-1.83h1.08a5.22,5.22,0,0,1-.7,2.84l1.22,1.75H56.28l-.51-.73a2.75,2.75,0,0,1-.94.64,3,3,0,0,1-1.15.23,2.61,2.61,0,0,1-2-.78A2.81,2.81,0,0,1,50.94,46.83Zm2.74,1.78a1.93,1.93,0,0,0,1.47-.75l-2-2.88-.21.17a2.29,2.29,0,0,0-.82,1.68,1.92,1.92,0,0,0,.41,1.29A1.39,1.39,0,0,0,53.68,48.61Zm-.88-6.82a1.67,1.67,0,0,0,.19.76,6.57,6.57,0,0,0,.47.83l.53-.45a2,2,0,0,0,.57-.65,1.75,1.75,0,0,0,.15-.76,1.1,1.1,0,0,0-.27-.76.9.9,0,0,0-.7-.31.8.8,0,0,0-.69.38A1.72,1.72,0,0,0,52.8,41.79Z"/>
	<path d="M21.25,59.61V63.5H20v-10h3.17a2.88,2.88,0,0,1,2.18.83,3.52,3.52,0,0,1,0,4.42,2.91,2.91,0,0,1-2.13.81Zm0-1.08h1.92a1.6,1.6,0,0,0,1.28-.5,2.06,2.06,0,0,0,.45-1.43,2.18,2.18,0,0,0-.46-1.44,1.58,1.58,0,0,0-1.26-.54H21.25Z"/>
	<path d="M27.26,59.46A3.88,3.88,0,0,1,28,56.91,2.56,2.56,0,0,1,30.11,56a2.59,2.59,0,0,1,2.07.92,3.77,3.77,0,0,1,.8,2.49v.78a3.84,3.84,0,0,1-.78,2.54,2.55,2.55,0,0,1-2.07.94,2.58,2.58,0,0,1-2.07-.91,3.84,3.84,0,0,1-.8-2.46Zm1.21.7A3.1,3.1,0,0,0,28.92,62a1.39,1.39,0,0,0,1.21.66c1.06,0,1.61-.77,1.64-2.31v-.84a3.14,3.14,0,0,0-.45-1.79,1.42,1.42,0,0,0-2.4,0,3.12,3.12,0,0,0-.45,1.79Z"/>
	<path d="M38.33,62.85a2.07,2.07,0,0,1-1.76.79A1.79,1.79,0,0,1,35.05,63a3.48,3.48,0,0,1-.52-2V56.11h1.21v4.73c0,1.15.34,1.73,1,1.73a1.5,1.5,0,0,0,1.51-1V56.11H39.5V63.5H38.36Z"/>
	<path d="M42.64,63.5H41.43V53h1.21Z"/>
	<path d="M46.14,54.32v1.79h1.12v1H46.14v4.6a1.19,1.19,0,0,0,.15.66.53.53,0,0,0,.49.23,1.36,1.36,0,0,0,.48-.09v1a2.64,2.64,0,0,1-.84.14,1.27,1.27,0,0,1-1.09-.51,2.43,2.43,0,0,1-.38-1.45v-4.6H43.81v-1h1.13V54.32Z"/>
	<path d="M51.76,57.24a3.1,3.1,0,0,0-.54-.05,1.32,1.32,0,0,0-1.3,1V63.5H48.71V56.11h1.17l0,.75A1.52,1.52,0,0,1,51.28,56a1,1,0,0,1,.48.1Z"/>
	<path d="M55,61.49l1.35-5.38h1.28l-2.42,8.44A3.37,3.37,0,0,1,54.44,66a1.56,1.56,0,0,1-1.13.49,2.45,2.45,0,0,1-.63-.11v-1l.27,0a1.22,1.22,0,0,0,.82-.25,1.69,1.69,0,0,0,.48-.86l.24-.83-2.17-7.33h1.32Z"/>
</svg>