<svg xmlns="http://www.w3.org/2000/svg" viewBox="0 0 77.73 77.73">
	<defs>
		<style>
			.iconGreen {
				fill: hsl(125, 47%, 44%);
			}
		</style>
	</defs>
	<path d="M16.11,45.63v3.89H14.86v-10H18a2.88,2.88,0,0,1,2.18.83,3.52,3.52,0,0,1,0,4.42,2.91,2.91,0,0,1-2.13.81Zm0-1.08H18a1.6,1.6,0,0,0,1.28-.5,2.06,2.06,0,0,0,.44-1.43,2.18,2.18,0,0,0-.45-1.44A1.58,1.58,0,0,0,18,40.64H16.11Z"/>
	<path d="M25.52,43.26a3.12,3.12,0,0,0-.55,0,1.33,1.33,0,0,0-1.3,1v5.29H22.46V42.13h1.18l0,.75A1.49,1.49,0,0,1,25,42a1.14,1.14,0,0,1,.48.09Z"/>
	<path d="M29.38,49.66a2.7,2.7,0,0,1-2.12-.83,3.54,3.54,0,0,1-.75-2.41v-.9a4.17,4.17,0,0,1,.72-2.59,2.38,2.38,0,0,1,2-.94,2.27,2.27,0,0,1,1.94.83,4.23,4.23,0,0,1,.66,2.57v.8H27.71v.17a2.7,2.7,0,0,0,.45,1.73,1.58,1.58,0,0,0,1.29.54,2,2,0,0,0,.94-.21,2.3,2.3,0,0,0,.76-.63l.63.76A2.73,2.73,0,0,1,29.38,49.66ZM29.24,43a1.27,1.27,0,0,0-1.11.51,3.09,3.09,0,0,0-.41,1.61h2.91V45a2.8,2.8,0,0,0-.38-1.5A1.17,1.17,0,0,0,29.24,43Z"/>
	<path d="M38.65,46.18A4.46,4.46,0,0,1,38,48.8a2.1,2.1,0,0,1-1.79.86,2,2,0,0,1-1.72-.84v3.55h-1.2V42.13H34.4l.07.82a1.93,1.93,0,0,1,1.74-1,2.07,2.07,0,0,1,1.82.85,4.44,4.44,0,0,1,.62,2.53Zm-1.2-.69a3.43,3.43,0,0,0-.39-1.84,1.35,1.35,0,0,0-1.23-.59,1.43,1.43,0,0,0-1.32.87v3.85a1.45,1.45,0,0,0,1.34.85,1.33,1.33,0,0,0,1.2-.59,3.44,3.44,0,0,0,.4-1.81Z"/>
	<path d="M44,49.52a2.68,2.68,0,0,1-.16-.8,1.93,1.93,0,0,1-1.64.94,2.12,2.12,0,0,1-1.57-.57,2.14,2.14,0,0,1-.56-1.58,2.24,2.24,0,0,1,.77-1.8A3.15,3.15,0,0,1,43,45h.89v-.79a1.25,1.25,0,0,0-2.08-.9,1.12,1.12,0,0,0-.34.83H40.22a1.94,1.94,0,0,1,.34-1.09,2.35,2.35,0,0,1,.9-.81A2.78,2.78,0,0,1,42.72,42a2.43,2.43,0,0,1,1.73.56,2.21,2.21,0,0,1,.61,1.65v3.73a4.38,4.38,0,0,0,.23,1.48v.11Zm-1.61-1a1.52,1.52,0,0,0,.84-.25,1.5,1.5,0,0,0,.59-.61V45.93h-.68a2.29,2.29,0,0,0-1.36.39,1.24,1.24,0,0,0-.5,1,1.32,1.32,0,0,0,.25.91A1.11,1.11,0,0,0,42.42,48.56Z"/>
	<path d="M50,43.26a3.12,3.12,0,0,0-.55,0,1.33,1.33,0,0,0-1.3,1v5.29H46.94V42.13h1.18l0,.75A1.49,1.49,0,0,1,49.51,42a1.14,1.14,0,0,1,.48.09Z"/>
	<path d="M53.86,49.66a2.7,2.7,0,0,1-2.12-.83A3.54,3.54,0,0,1,51,46.42v-.9a4.17,4.17,0,0,1,.72-2.59,2.38,2.38,0,0,1,2-.94,2.3,2.3,0,0,1,2,.83,4.31,4.31,0,0,1,.65,2.57v.8H52.19v.17a2.7,2.7,0,0,0,.45,1.73,1.58,1.58,0,0,0,1.29.54,2,2,0,0,0,.94-.21,2.3,2.3,0,0,0,.76-.63l.63.76A2.73,2.73,0,0,1,53.86,49.66ZM53.72,43a1.27,1.27,0,0,0-1.11.51,3.09,3.09,0,0,0-.41,1.61h2.91V45a2.8,2.8,0,0,0-.38-1.5A1.16,1.16,0,0,0,53.72,43Z"/>
	<path d="M57.53,45.49a4.53,4.53,0,0,1,.64-2.61A2.14,2.14,0,0,1,60,42a1.91,1.91,0,0,1,1.65.86V39h1.21v10.5H61.76l-.06-.79a1.89,1.89,0,0,1-1.7.93,2.1,2.1,0,0,1-1.8-.89,4.27,4.27,0,0,1-.67-2.52Zm1.21.69A3.56,3.56,0,0,0,59.11,48a1.32,1.32,0,0,0,1.2.59,1.44,1.44,0,0,0,1.35-.91V44a1.46,1.46,0,0,0-1.34-.89,1.3,1.3,0,0,0-1.2.59,3.43,3.43,0,0,0-.38,1.79Z"/>
	<path d="M27.49,59.13H24.12v4.39H22.87v-10h5.18v1.07H24.12v3.41h3.37Z"/>
	<path d="M29.05,59.48a3.88,3.88,0,0,1,.78-2.55,2.76,2.76,0,0,1,4.13,0,3.78,3.78,0,0,1,.81,2.49v.78A3.84,3.84,0,0,1,34,62.72a2.78,2.78,0,0,1-4.14,0,3.73,3.73,0,0,1-.8-2.46Zm1.21.7A3.1,3.1,0,0,0,30.7,62a1.39,1.39,0,0,0,1.21.66q1.6,0,1.65-2.31v-.84a3.14,3.14,0,0,0-.45-1.79A1.42,1.42,0,0,0,31.9,57a1.39,1.39,0,0,0-1.2.66,3.12,3.12,0,0,0-.44,1.79Z"/>
	<path d="M36.09,59.48a3.88,3.88,0,0,1,.78-2.55A2.55,2.55,0,0,1,38.94,56a2.59,2.59,0,0,1,2.07.92,3.83,3.83,0,0,1,.8,2.49v.78A3.84,3.84,0,0,1,41,62.72a2.78,2.78,0,0,1-4.14,0,3.73,3.73,0,0,1-.8-2.46Zm1.21.7A3.18,3.18,0,0,0,37.74,62a1.39,1.39,0,0,0,1.21.66q1.61,0,1.65-2.31v-.84a3.14,3.14,0,0,0-.45-1.79A1.4,1.4,0,0,0,38.94,57a1.39,1.39,0,0,0-1.2.66,3.2,3.2,0,0,0-.44,1.79Z"/>
	<path d="M43.13,59.49a4.45,4.45,0,0,1,.64-2.61A2.11,2.11,0,0,1,45.6,56a1.92,1.92,0,0,1,1.66.86V53h1.21v10.5H47.36l-.06-.79a1.91,1.91,0,0,1-1.7.93,2.14,2.14,0,0,1-1.81-.89,4.34,4.34,0,0,1-.66-2.52Zm1.21.69A3.46,3.46,0,0,0,44.71,62a1.3,1.3,0,0,0,1.2.59,1.45,1.45,0,0,0,1.35-.91V58a1.46,1.46,0,0,0-1.34-.89,1.33,1.33,0,0,0-1.21.59,3.44,3.44,0,0,0-.37,1.79Z"/>
	<path d="M53.94,61.63a.89.89,0,0,0-.3-.67,4.09,4.09,0,0,0-1.13-.66,7.82,7.82,0,0,1-1.38-.69,1.93,1.93,0,0,1-.6-.65,1.83,1.83,0,0,1-.2-.87,1.94,1.94,0,0,1,.66-1.5,2.41,2.41,0,0,1,1.69-.6,2.37,2.37,0,0,1,1.73.63,2.13,2.13,0,0,1,.66,1.61h-1.2a1.18,1.18,0,0,0-.34-.85,1.14,1.14,0,0,0-.85-.35,1.21,1.21,0,0,0-.84.27,1,1,0,0,0-.3.74.81.81,0,0,0,.22.6,4.06,4.06,0,0,0,1.07.59,5.21,5.21,0,0,1,1.83,1,1.79,1.79,0,0,1,.49,1.28,1.92,1.92,0,0,1-.67,1.54,2.57,2.57,0,0,1-1.77.58A2.68,2.68,0,0,1,50.83,63a2.21,2.21,0,0,1-.72-1.69h1.22a1.38,1.38,0,0,0,.38,1,1.63,1.63,0,0,0,1.91.08A.93.93,0,0,0,53.94,61.63Z"/>
	<path class="iconGreen" d="M35.26,22.46v1.29a.7.7,0,1,0,1.39,0V22.46a.7.7,0,1,0-1.39,0Z"/>
	<path class="iconGreen" d="M32.88,21.51l-1.21,1.21a.7.7,0,0,0,.5,1.19.7.7,0,0,0,.49-.2l1.21-1.21a.7.7,0,0,0,.2-.49.72.72,0,0,0-.2-.5A.71.71,0,0,0,32.88,21.51Z"/>
	<path class="iconGreen" d="M39.25,23.71a.71.71,0,0,0,1,0,.71.71,0,0,0,0-1L39,21.51a.7.7,0,1,0-1,1Z"/>
	<path class="iconGreen" d="M35.2,17.26a.71.71,0,0,0,.28.95.81.81,0,0,0,.34.08.7.7,0,0,0,.61-.36,3.6,3.6,0,0,0,.2-2.94,2.25,2.25,0,0,1,.08-1.91.68.68,0,0,0,0-.54.71.71,0,0,0-.33-.41.71.71,0,0,0-1,.28,3.6,3.6,0,0,0-.2,2.94A2.25,2.25,0,0,1,35.2,17.26Z"/>
	<path class="iconGreen" d="M32.83,17.26a.71.71,0,0,0,.28.95.76.76,0,0,0,.33.08.72.72,0,0,0,.62-.36,3.64,3.64,0,0,0,.2-2.94,2.25,2.25,0,0,1,.07-1.91.73.73,0,0,0,.06-.54.7.7,0,0,0-1.28-.13,3.56,3.56,0,0,0-.2,2.94A2.29,2.29,0,0,1,32.83,17.26Z"/>
	<path class="iconGreen" d="M37.58,17.26a.7.7,0,0,0,.28.95.73.73,0,0,0,.33.08.69.69,0,0,0,.61-.36A3.56,3.56,0,0,0,39,15a2.29,2.29,0,0,1,.08-1.91.73.73,0,0,0,.06-.54.76.76,0,0,0-.34-.41.66.66,0,0,0-.53-.05.7.7,0,0,0-.42.33,3.64,3.64,0,0,0-.2,2.94A2.25,2.25,0,0,1,37.58,17.26Z"/>
	<path class="iconGreen" d="M51.54,31.84a.58.58,0,0,0,.45-.22l.57-.72a3.27,3.27,0,0,0,.69-2.07v-5a.58.58,0,1,0-1.16,0v5a2.12,2.12,0,0,1-.44,1.35l-.56.72a.56.56,0,0,0-.13.43.6.6,0,0,0,.21.38A.59.59,0,0,0,51.54,31.84Z"/>
	<path class="iconGreen" d="M54.46,16.52l0-.05a4.63,4.63,0,0,0-.32-.42L54,15.94a5.4,5.4,0,0,1-.69-1,.88.88,0,0,0,.71-.85V12.81a.88.88,0,0,0-.86-.86h-10a.86.86,0,0,0-.87.86v1.26a.86.86,0,0,0,.69.84,3.1,3.1,0,0,1-.65,1c-.15.19-.3.38-.43.56a1.93,1.93,0,0,0-.34,1.29v2.38A12.48,12.48,0,0,0,36,18.8C31,18.8,26.52,21.74,25,26a2.72,2.72,0,0,0-2.18,2.65,1.58,1.58,0,0,0,1.52,1.57l1.26,2.69a.7.7,0,0,0,.63.4H52a2.51,2.51,0,0,0,1.61-.52,3,3,0,0,0,1.18-2.56V17.76A2.33,2.33,0,0,0,54.46,16.52Zm-11-2.75v-.66h9.4v.66Zm8.86,1Zm-9.07,1.91a3.61,3.61,0,0,0,.93-1.72h7.92a4.65,4.65,0,0,0,1,1.72c.13.16.26.33.37.49a1.22,1.22,0,0,1,.13.62V30.25a1.84,1.84,0,0,1-.75,1.6,1.42,1.42,0,0,1-.87.26h-7.7a.85.85,0,0,1-.62-.14l-.05,0a2,2,0,0,1-.87-1.72V17.76a.94.94,0,0,1,.09-.56l0-.05c.1-.15.22-.29.34-.44ZM41.58,30.2h0A3.35,3.35,0,0,0,42,31.89H26.7l-.79-1.69Zm0-4.24a3,3,0,0,0-.42,0,2.61,2.61,0,0,0-1.72.62,1.32,1.32,0,0,1-1.77,0,2.68,2.68,0,0,0-3.43,0,1.26,1.26,0,0,1-.89.34,1.24,1.24,0,0,1-.88-.34,2.64,2.64,0,0,0-1.72-.62,2.6,2.6,0,0,0-1.71.62,1.26,1.26,0,0,1-.89.34,1.24,1.24,0,0,1-.88-.34,3,3,0,0,0-.79-.46A10,10,0,0,1,36,20.2a11,11,0,0,1,5.63,1.53ZM29.87,27.67a1.24,1.24,0,0,1,.88-.34,1.26,1.26,0,0,1,.89.34,2.6,2.6,0,0,0,1.71.62,2.64,2.64,0,0,0,1.72-.62,1.24,1.24,0,0,1,.88-.34,1.26,1.26,0,0,1,.89.34,2.68,2.68,0,0,0,3.43,0,1.26,1.26,0,0,1,.89-.34,1.21,1.21,0,0,1,.42.06v1.42H24.43a.18.18,0,0,1-.18-.18,1.3,1.3,0,0,1,1.3-1.3,1.26,1.26,0,0,1,.89.34,2.6,2.6,0,0,0,1.71.62A2.66,2.66,0,0,0,29.87,27.67Z"/>
</svg>