<svg xmlns="http://www.w3.org/2000/svg" viewBox="0 0 77.73 77.73">
	<defs>
		<style>
			.iconGreen {
				fill: hsl(125, 47%, 44%);
			}
		</style>
	</defs>
	<path class="iconGreen" d="M35.26,33.21a15.62,15.62,0,0,0,3.91.52c3.17,0,5-1.07,7.22-2.58L49.62,29l-.35-.53a3.17,3.17,0,0,0-3.84-1.17,5.85,5.85,0,0,0-4.79-3.73,8.22,8.22,0,0,1,1.89-4.7,3.19,3.19,0,0,0,4-.42,6.76,6.76,0,0,0,2-4.83v-1.7h-1.7a6.72,6.72,0,0,0-4.8,2,3.21,3.21,0,0,0-.4,4.05A9.52,9.52,0,0,0,40,20.68a9.49,9.49,0,0,0-1.63-2.76,3.21,3.21,0,0,0-.4-4.05,6.74,6.74,0,0,0-4.8-2h-1.7v1.7a6.8,6.8,0,0,0,2,4.83,3.21,3.21,0,0,0,4,.42,8.22,8.22,0,0,1,1.89,4.7,5.75,5.75,0,0,0-3.76,2,4,4,0,0,0-1.82-.67,4.93,4.93,0,0,0-2.92,1.16h-3v6.4h.64A26.11,26.11,0,0,1,35.26,33.21Zm7.65-18.43a5.48,5.48,0,0,1,3.9-1.63h.42v.42a5.49,5.49,0,0,1-1.6,3.92,1.93,1.93,0,0,1-2.19.38l2.19-2.19-.91-.9L42.54,17A1.91,1.91,0,0,1,42.91,14.78ZM37.41,17l-2.18-2.18-.91.9,2.19,2.19a1.93,1.93,0,0,1-2.19-.38,5.49,5.49,0,0,1-1.6-3.92v-.42h.42A5.5,5.5,0,0,1,37,14.78,1.91,1.91,0,0,1,37.41,17ZM40,24.77a4.55,4.55,0,0,1,4.33,3.15,9.46,9.46,0,0,1-1.39.69A3.2,3.2,0,0,0,40,26.69H37.72a1.46,1.46,0,0,1-.81-.25l-.27-.19A4.46,4.46,0,0,1,40,24.77ZM29,27.33H31.2c.65-.41,1.69-1.21,2.45-1.16a6.36,6.36,0,0,1,2.54,1.33,2.76,2.76,0,0,0,1.53.47H40a1.91,1.91,0,0,1,1.71,1,8.18,8.18,0,0,1-2.17.25,10.08,10.08,0,0,1-2.83-.5l-.35-.12-.4,1.22.35.11a11,11,0,0,0,3.43.57,10.64,10.64,0,0,0,5.86-1.91,1.87,1.87,0,0,1,2.19,0l-2.09,1.42c-2.45,1.66-3.9,2.36-6.5,2.36A14.53,14.53,0,0,1,35.55,32,26.92,26.92,0,0,0,29,31.17Z"/>
	<path d="M24.83,45.41A5,5,0,0,1,24,48.55a3,3,0,0,1-2.47,1.1,3,3,0,0,1-2.43-1.07,4.76,4.76,0,0,1-.92-3V43.68A5,5,0,0,1,19,40.55a3,3,0,0,1,2.46-1.13,3,3,0,0,1,2.45,1.08,4.87,4.87,0,0,1,.9,3.1Zm-1.25-1.74a4.2,4.2,0,0,0-.52-2.35,2,2,0,0,0-3.14,0,4.18,4.18,0,0,0-.54,2.29v1.79a4.21,4.21,0,0,0,.53,2.32,1.75,1.75,0,0,0,1.58.8,1.73,1.73,0,0,0,1.56-.74,4.07,4.07,0,0,0,.53-2.26Z"/>
	<path d="M29.66,43.25a3,3,0,0,0-.54,0,1.32,1.32,0,0,0-1.3,1v5.29H26.61v-7.4h1.17l0,.76A1.51,1.51,0,0,1,29.18,42a1.14,1.14,0,0,1,.48.09Z"/>
	<path d="M30.64,45.48a4.5,4.5,0,0,1,.63-2.62A2.11,2.11,0,0,1,33.11,42a1.88,1.88,0,0,1,1.71,1l.07-.83H36v7.47a2.92,2.92,0,0,1-.7,2.11,2.6,2.6,0,0,1-2,.73,3.34,3.34,0,0,1-1.22-.27,2.5,2.5,0,0,1-1-.66l.49-.84a2.33,2.33,0,0,0,1.66.74c1,0,1.52-.55,1.55-1.65v-1a1.9,1.9,0,0,1-1.67.87,2.11,2.11,0,0,1-1.79-.87,4.21,4.21,0,0,1-.67-2.48Zm1.21.68A3.48,3.48,0,0,0,32.22,48a1.29,1.29,0,0,0,1.2.58,1.43,1.43,0,0,0,1.35-.92V44a1.45,1.45,0,0,0-1.34-.91,1.32,1.32,0,0,0-1.2.58,3.49,3.49,0,0,0-.38,1.8Z"/>
	<path d="M41.6,49.51a2.69,2.69,0,0,1-.16-.81,1.92,1.92,0,0,1-1.64.95,2.12,2.12,0,0,1-1.57-.57,2.15,2.15,0,0,1-.56-1.59,2.26,2.26,0,0,1,.76-1.79,3.18,3.18,0,0,1,2.1-.67h.89v-.79A1,1,0,0,0,40.23,43a1.23,1.23,0,0,0-.89.32,1.12,1.12,0,0,0-.34.82H37.79a1.94,1.94,0,0,1,.34-1.08,2.35,2.35,0,0,1,.9-.81A2.78,2.78,0,0,1,40.29,42a2.39,2.39,0,0,1,1.73.56,2.25,2.25,0,0,1,.61,1.65v3.73a4.38,4.38,0,0,0,.23,1.48v.11Zm-1.61-1a1.61,1.61,0,0,0,.84-.25,1.5,1.5,0,0,0,.59-.61V45.92h-.68a2.27,2.27,0,0,0-1.36.39,1.23,1.23,0,0,0-.5,1,1.34,1.34,0,0,0,.25.91A1.11,1.11,0,0,0,40,48.55Z"/>
	<path d="M45.65,42.11l0,.8a2.17,2.17,0,0,1,1.8-.93c1.3,0,2,.87,2,2.62v4.91H48.27V44.65A2,2,0,0,0,48,43.42a1,1,0,0,0-.87-.37,1.23,1.23,0,0,0-.81.3,2.17,2.17,0,0,0-.58.79v5.37H44.51v-7.4Z"/>
	<path d="M52.7,40.15a.77.77,0,0,1-.17.51.63.63,0,0,1-.52.21.61.61,0,0,1-.51-.21.77.77,0,0,1-.17-.51.83.83,0,0,1,.17-.52.61.61,0,0,1,.51-.21.62.62,0,0,1,.52.22A.8.8,0,0,1,52.7,40.15Zm-.09,9.36H51.4v-7.4h1.21Z"/>
	<path d="M57.09,48.62a1.27,1.27,0,0,0,1-.38,1.53,1.53,0,0,0,.4-1.06h1.14A2.52,2.52,0,0,1,58.84,49a2.44,2.44,0,0,1-1.75.7A2.56,2.56,0,0,1,55,48.78a3.86,3.86,0,0,1-.73-2.57V45.4A3.92,3.92,0,0,1,55,42.85,2.56,2.56,0,0,1,57.08,42a2.36,2.36,0,0,1,1.81.72,2.88,2.88,0,0,1,.7,2H58.45a2,2,0,0,0-.39-1.23,1.21,1.21,0,0,0-1-.41,1.37,1.37,0,0,0-1.19.53,3,3,0,0,0-.41,1.74v.94a3.3,3.3,0,0,0,.39,1.85A1.4,1.4,0,0,0,57.09,48.62Z"/>
</svg>