<svg xmlns="http://www.w3.org/2000/svg" viewBox="0 0 77.73 77.73">
	<defs>
		<style>
			.iconGreen {
				fill: hsl(125, 47%, 44%);
			}
		</style>
	</defs>
	<path class="iconGreen" d="M53.89,30.79a.18.18,0,0,0-.12-.05H23.67a.17.17,0,0,0-.12.05.15.15,0,0,0,0,.13s.45,2.81,4,2.81H49.94c3.52,0,4-2.79,4-2.81A.15.15,0,0,0,53.89,30.79ZM41,32.76H36.45v-1H41Z"/>
	<path class="iconGreen" d="M26.8,29.66H50.64a.63.63,0,0,0,.63-.63V12.82a.63.63,0,0,0-.63-.62H26.8a.63.63,0,0,0-.63.62V29A.63.63,0,0,0,26.8,29.66ZM27,13H50.45V28.83H27Z"/>
	<path class="iconGreen" d="M44.41,16.85H34.34l-.44-1.69a.39.39,0,0,0-.38-.3H31.47a.4.4,0,1,0,0,.79h1.74l.44,1.69h0l1.55,6a.41.41,0,0,0,.39.29h7.27a.41.41,0,0,0,.39-.29l1.55-6a.41.41,0,0,0-.07-.34A.39.39,0,0,0,44.41,16.85Zm-7.12,6h-1.4l-.31-1.2h1.71Zm0-2H35.38l-.31-1.19h2.22Zm0-2H34.86l-.31-1.19h2.74Zm3.08,4H38.08v-1.2h2.29Zm0-2H38.08V19.63h2.29Zm0-2H38.08V17.64h2.29Zm2.19,4h-1.4v-1.2h1.71Zm.51-2H41.16V19.63h2.22Zm.52-2H41.16V17.64H43.9Z"/>
	<path class="iconGreen" d="M36.64,23.92a1.45,1.45,0,1,0,1.44,1.45A1.45,1.45,0,0,0,36.64,23.92Zm0,2.1a.65.65,0,1,1,0-1.3.65.65,0,1,1,0,1.3Z"/>
	<path class="iconGreen" d="M41.81,23.92a1.45,1.45,0,1,0,1.45,1.45A1.45,1.45,0,0,0,41.81,23.92Zm0,2.1a.65.65,0,1,1,0-1.3.65.65,0,1,1,0,1.3Z"/>
	<path d="M28.76,45.41a5,5,0,0,1-.87,3.14,3,3,0,0,1-2.46,1.1A3,3,0,0,1,23,48.58a4.7,4.7,0,0,1-.93-3V43.68A5,5,0,0,1,23,40.55a3,3,0,0,1,2.46-1.13,3,3,0,0,1,2.45,1.08,4.87,4.87,0,0,1,.9,3.1Zm-1.25-1.74A4.2,4.2,0,0,0,27,41.32a2,2,0,0,0-3.14,0,4.18,4.18,0,0,0-.54,2.29v1.79a4.21,4.21,0,0,0,.53,2.32,1.77,1.77,0,0,0,1.59.8A1.72,1.72,0,0,0,27,47.79a4.07,4.07,0,0,0,.53-2.26Z"/>
	<path d="M31.68,42.11l0,.8a2.17,2.17,0,0,1,1.8-.93c1.31,0,2,.87,2,2.62v4.91H34.3V44.65A2,2,0,0,0,34,43.42a1,1,0,0,0-.87-.37,1.23,1.23,0,0,0-.81.3,2.17,2.17,0,0,0-.58.79v5.37H30.54v-7.4Z"/>
	<path d="M38.63,49.51H37.42V39h1.21Z"/>
	<path d="M42,40.15a.77.77,0,0,1-.17.51.64.64,0,0,1-.52.21.61.61,0,0,1-.51-.21.72.72,0,0,1-.18-.51.78.78,0,0,1,.18-.52.61.61,0,0,1,.51-.21.59.59,0,0,1,.51.22A.76.76,0,0,1,42,40.15Zm-.1,9.36H40.64v-7.4h1.21Z"/>
	<path d="M44.91,42.11l0,.8a2.17,2.17,0,0,1,1.8-.93c1.31,0,2,.87,2,2.62v4.91h-1.2V44.65a2,2,0,0,0-.29-1.23,1,1,0,0,0-.87-.37,1.2,1.2,0,0,0-.81.3,2.06,2.06,0,0,0-.58.79v5.37H43.77v-7.4Z"/>
	<path d="M53.2,49.65a2.7,2.7,0,0,1-2.12-.83,3.56,3.56,0,0,1-.75-2.41v-.9a4.15,4.15,0,0,1,.72-2.59,2.38,2.38,0,0,1,2-.94A2.32,2.32,0,0,1,55,42.8a4.34,4.34,0,0,1,.65,2.58v.79H51.53v.18A2.71,2.71,0,0,0,52,48.08a1.58,1.58,0,0,0,1.29.54,2,2,0,0,0,.94-.21,2.22,2.22,0,0,0,.76-.64l.63.77A2.73,2.73,0,0,1,53.2,49.65ZM53.06,43a1.27,1.27,0,0,0-1.11.51,3.09,3.09,0,0,0-.41,1.61h2.91V45a2.8,2.8,0,0,0-.38-1.5A1.16,1.16,0,0,0,53.06,43Z"/>
	<path d="M29.07,61.62a.9.9,0,0,0-.29-.67,4.36,4.36,0,0,0-1.14-.66,7.3,7.3,0,0,1-1.37-.69,1.93,1.93,0,0,1-.6-.65,1.86,1.86,0,0,1-.2-.87,1.91,1.91,0,0,1,.66-1.5,2.69,2.69,0,0,1,3.42,0,2.12,2.12,0,0,1,.66,1.61H29a1.19,1.19,0,0,0-.33-.85,1.11,1.11,0,0,0-.86-.35,1.2,1.2,0,0,0-.83.27.94.94,0,0,0-.31.74.79.79,0,0,0,.23.59,3.58,3.58,0,0,0,1.07.6,5.41,5.41,0,0,1,1.83,1,1.77,1.77,0,0,1,.48,1.28,2,2,0,0,1-.66,1.54,2.58,2.58,0,0,1-1.78.58A2.62,2.62,0,0,1,26,63a2.18,2.18,0,0,1-.72-1.68h1.22a1.24,1.24,0,0,0,1.37,1.32,1.33,1.33,0,0,0,.92-.28A.9.9,0,0,0,29.07,61.62Z"/>
	<path d="M33.46,54.32v1.79h1.11v1H33.46v4.59a1.22,1.22,0,0,0,.14.67.53.53,0,0,0,.49.22,1.44,1.44,0,0,0,.49-.08l0,1a2.64,2.64,0,0,1-.84.14,1.25,1.25,0,0,1-1.09-.52,2.4,2.4,0,0,1-.38-1.44v-4.6H31.12v-1h1.13V54.32Z"/>
	<path d="M35.63,59.47a3.87,3.87,0,0,1,.78-2.55A2.55,2.55,0,0,1,38.48,56a2.58,2.58,0,0,1,2.07.91,3.8,3.8,0,0,1,.8,2.5v.78a3.84,3.84,0,0,1-.78,2.54,2.78,2.78,0,0,1-4.14,0,3.84,3.84,0,0,1-.8-2.46Zm1.21.7A3.1,3.1,0,0,0,37.29,62a1.39,1.39,0,0,0,1.2.66c1.07,0,1.62-.78,1.65-2.32v-.83a3.12,3.12,0,0,0-.45-1.79A1.39,1.39,0,0,0,38.48,57a1.37,1.37,0,0,0-1.19.66,3.11,3.11,0,0,0-.45,1.78Z"/>
	<path d="M46,57.25a3.12,3.12,0,0,0-.55,0,1.33,1.33,0,0,0-1.3,1v5.29H42.92v-7.4H44.1l0,.76A1.49,1.49,0,0,1,45.49,56a1.11,1.11,0,0,1,.48.09Z"/>
	<path d="M49.84,63.65a2.7,2.7,0,0,1-2.12-.83A3.56,3.56,0,0,1,47,60.41v-.9a4.15,4.15,0,0,1,.72-2.59,2.39,2.39,0,0,1,2-.94,2.31,2.31,0,0,1,1.94.82,4.34,4.34,0,0,1,.65,2.58v.79H48.17v.18a2.71,2.71,0,0,0,.45,1.73,1.58,1.58,0,0,0,1.29.54,2,2,0,0,0,.94-.21,2.13,2.13,0,0,0,.76-.64l.63.77A2.73,2.73,0,0,1,49.84,63.65ZM49.71,57a1.27,1.27,0,0,0-1.12.51,3.09,3.09,0,0,0-.41,1.61h2.91V59a2.8,2.8,0,0,0-.38-1.5A1.15,1.15,0,0,0,49.71,57Z"/>
</svg>