<svg xmlns="http://www.w3.org/2000/svg" viewBox="0 0 77.73 77.73">
	<defs>
		<style>
			.iconGreen {
				fill: hsl(125, 47%, 44%);
			}
		</style>
	</defs>
	<path class="iconGreen" d="M52.31,28.26,45,13a1.75,1.75,0,0,0-1.56-1h0l-3.46.1c-.33,0-.83.48-1,.89L34,23.14c-1-1.95-2.34-3.05-3.81-3.05-2.93,0-5,4.33-5,8.22a5,5,0,0,0,8.65,3.35,13.11,13.11,0,0,0,6.33,1.63h3.18a12.21,12.21,0,0,0,8.54-3,1.71,1.71,0,0,0,.38-2Zm-18.43,0a3.67,3.67,0,0,1-7.33,0c0-3.55,1.78-6.91,3.66-6.91S33.88,24.76,33.88,28.31Zm14.24,1A10.93,10.93,0,0,1,40.47,32h-.25a11.8,11.8,0,0,1-5.58-1.39,5,5,0,0,0,.55-2.27,12.21,12.21,0,0,0-.52-3.5l5.42-11.27a.45.45,0,0,1,.39-.23.44.44,0,0,1,.38.22l7.35,15.3A.41.41,0,0,1,48.12,29.31Zm1.28-1-7.19-15h1.18a.42.42,0,0,1,.38.23l7.36,15.3a.45.45,0,0,1-.09.48,9.92,9.92,0,0,1-3.29,2,11.17,11.17,0,0,0,1.27-1A1.73,1.73,0,0,0,49.4,28.26Z"/>
	<path class="iconGreen" d="M38.05,26.57a2,2,0,1,0,2,2A2,2,0,0,0,38.05,26.57Zm.69,2a.7.7,0,1,1-.69-.7A.69.69,0,0,1,38.74,28.58Z"/>
	<path class="iconGreen" d="M39.4,20.09a1.74,1.74,0,1,0,1.73,1.73A1.74,1.74,0,0,0,39.4,20.09Zm.42,1.73a.43.43,0,1,1-.42-.42A.42.42,0,0,1,39.82,21.82Z"/>
	<path class="iconGreen" d="M43.45,29.5A2.55,2.55,0,1,0,40.9,27,2.55,2.55,0,0,0,43.45,29.5ZM42.21,27a1.24,1.24,0,1,1,2.47,0,1.24,1.24,0,0,1-2.47,0Z"/>
	<path class="iconGreen" d="M29.7,22.71a.63.63,0,0,0-.63.23h0a8.7,8.7,0,0,0-1.68,5.37.66.66,0,0,0,1.32,0,7.32,7.32,0,0,1,1.36-4.51.65.65,0,0,0-.37-1.08Z"/>
	<path d="M25.9,49.52v-10h2.37A3.43,3.43,0,0,1,31,40.66a4.49,4.49,0,0,1,1,3.06v1.67a4.41,4.41,0,0,1-1,3.06,3.64,3.64,0,0,1-2.83,1.07Zm1.25-8.88v7.81h1a2.31,2.31,0,0,0,1.93-.76,3.54,3.54,0,0,0,.62-2.24V43.69a3.63,3.63,0,0,0-.6-2.31,2.24,2.24,0,0,0-1.83-.74Z"/>
	<path d="M37.54,49.52a2.68,2.68,0,0,1-.16-.8,1.93,1.93,0,0,1-1.64.94,2.12,2.12,0,0,1-1.57-.57,2.14,2.14,0,0,1-.56-1.58,2.26,2.26,0,0,1,.76-1.8,3.16,3.16,0,0,1,2.1-.67h.89v-.79a1.25,1.25,0,0,0-2.08-.9,1.12,1.12,0,0,0-.34.83H33.73a1.94,1.94,0,0,1,.34-1.09,2.35,2.35,0,0,1,.9-.81A2.78,2.78,0,0,1,36.23,42a2.43,2.43,0,0,1,1.73.56,2.21,2.21,0,0,1,.6,1.65v3.73a4.63,4.63,0,0,0,.24,1.48v.11Zm-1.61-1a1.55,1.55,0,0,0,.84-.25,1.5,1.5,0,0,0,.59-.61V45.93h-.68a2.27,2.27,0,0,0-1.36.39,1.24,1.24,0,0,0-.5,1,1.32,1.32,0,0,0,.25.91A1.11,1.11,0,0,0,35.93,48.56Z"/>
	<path d="M41.85,40.16a.76.76,0,0,1-.17.52.64.64,0,0,1-.52.2.63.63,0,0,1-.51-.2.81.81,0,0,1-.17-.52.85.85,0,0,1,.17-.52.61.61,0,0,1,.51-.21.62.62,0,0,1,.52.22A.8.8,0,0,1,41.85,40.16Zm-.09,9.36H40.55V42.13h1.21Z"/>
	<path d="M46.73,43.26a3.12,3.12,0,0,0-.55,0,1.33,1.33,0,0,0-1.3,1v5.29H43.67V42.13h1.18l0,.75A1.49,1.49,0,0,1,46.24,42a1.14,1.14,0,0,1,.48.09Z"/>
	<path d="M50,47.51l1.34-5.38H52.6l-2.42,8.44A3.27,3.27,0,0,1,49.41,52a1.57,1.57,0,0,1-1.14.5,2.6,2.6,0,0,1-.63-.11v-1l.27,0a1.2,1.2,0,0,0,.82-.25,1.77,1.77,0,0,0,.49-.86l.24-.83-2.18-7.33H48.6Z"/>
	<path d="M20.55,60.85a2.55,2.55,0,0,1,.34-1.3,5.23,5.23,0,0,1,1.29-1.39,7.4,7.4,0,0,1-.77-1.3,2.65,2.65,0,0,1-.21-1,2.55,2.55,0,0,1,.59-1.78,2,2,0,0,1,1.57-.64,2,2,0,0,1,1.48.6,2.08,2.08,0,0,1,.58,1.51,2.58,2.58,0,0,1-.23,1.08,3.31,3.31,0,0,1-.82,1l-.7.6,1.75,2.52a5,5,0,0,0,.32-1.83h1.08a5.33,5.33,0,0,1-.7,2.84l1.22,1.75H25.89l-.51-.73a2.85,2.85,0,0,1-.94.64,3,3,0,0,1-1.15.23,2.65,2.65,0,0,1-2-.78A2.85,2.85,0,0,1,20.55,60.85Zm2.74,1.78a2,2,0,0,0,1.47-.76l-2-2.87-.2.17a2.3,2.3,0,0,0-.83,1.68,1.93,1.93,0,0,0,.41,1.28A1.39,1.39,0,0,0,23.29,62.63Zm-.88-6.82a1.8,1.8,0,0,0,.18.76,6.21,6.21,0,0,0,.48.83L23.6,57a2.12,2.12,0,0,0,.56-.65,1.75,1.75,0,0,0,.15-.76,1.1,1.1,0,0,0-.27-.76.86.86,0,0,0-.69-.31.78.78,0,0,0-.69.38A1.72,1.72,0,0,0,22.41,55.81Z"/>
	<path d="M36.53,58.92H33v3.53h4.1v1.07H31.76v-10H37v1.07H33v3.21h3.52Z"/>
	<path d="M38.32,59.49a4.53,4.53,0,0,1,.62-2.62A2.12,2.12,0,0,1,40.78,56a1.89,1.89,0,0,1,1.72,1l.06-.82h1.09v7.46A2.92,2.92,0,0,1,43,65.7a2.58,2.58,0,0,1-2,.73,3.35,3.35,0,0,1-1.23-.27,2.65,2.65,0,0,1-1-.66l.49-.84a2.3,2.3,0,0,0,1.66.74c1,0,1.53-.55,1.55-1.65v-1a1.88,1.88,0,0,1-1.66.87A2.08,2.08,0,0,1,39,62.79a4.14,4.14,0,0,1-.67-2.48Zm1.21.69A3.58,3.58,0,0,0,39.89,62a1.3,1.3,0,0,0,1.2.59,1.44,1.44,0,0,0,1.35-.93V58a1.45,1.45,0,0,0-1.34-.91,1.32,1.32,0,0,0-1.2.59,3.44,3.44,0,0,0-.37,1.79Z"/>
	<path d="M45.23,59.49a4.52,4.52,0,0,1,.63-2.62A2.1,2.1,0,0,1,47.69,56a1.89,1.89,0,0,1,1.72,1l.06-.82h1.1v7.46a2.93,2.93,0,0,1-.71,2.11,2.58,2.58,0,0,1-2,.73,3.43,3.43,0,0,1-1.23-.27,2.65,2.65,0,0,1-1-.66l.49-.84a2.3,2.3,0,0,0,1.66.74q1.52,0,1.56-1.65v-1a1.91,1.91,0,0,1-1.67.87,2.09,2.09,0,0,1-1.79-.87,4.21,4.21,0,0,1-.67-2.48Zm1.21.69A3.58,3.58,0,0,0,46.8,62a1.32,1.32,0,0,0,1.2.59,1.45,1.45,0,0,0,1.36-.93V58A1.47,1.47,0,0,0,48,57.06a1.33,1.33,0,0,0-1.21.59,3.44,3.44,0,0,0-.37,1.79Z"/>
	<path d="M56,61.63a.87.87,0,0,0-.29-.67,4.19,4.19,0,0,0-1.14-.66,7.3,7.3,0,0,1-1.37-.69,1.93,1.93,0,0,1-.6-.65,1.83,1.83,0,0,1-.2-.87,1.94,1.94,0,0,1,.66-1.5,2.69,2.69,0,0,1,3.42,0,2.12,2.12,0,0,1,.66,1.61H55.9a1.19,1.19,0,0,0-.33-.85,1.1,1.1,0,0,0-.85-.35,1.21,1.21,0,0,0-.84.27,1,1,0,0,0-.31.74.81.81,0,0,0,.23.6,3.89,3.89,0,0,0,1.07.59,5.41,5.41,0,0,1,1.83,1,1.78,1.78,0,0,1,.48,1.28,2,2,0,0,1-.66,1.54,2.58,2.58,0,0,1-1.78.58A2.65,2.65,0,0,1,52.87,63a2.21,2.21,0,0,1-.72-1.69h1.22a1.45,1.45,0,0,0,2.29,1A.92.92,0,0,0,56,61.63Z"/>
</svg>