<svg xmlns="http://www.w3.org/2000/svg" viewBox="0 0 77.73 77.73">
	<defs>
		<style>
			.iconGreen {
				fill: hsl(125, 47%, 44%);
			}
		</style>
	</defs>
	<path d="M31.92,45.42a5,5,0,0,1-.87,3.14,3,3,0,0,1-2.47,1.1,3,3,0,0,1-2.43-1.07,4.82,4.82,0,0,1-.93-3V43.69a5,5,0,0,1,.89-3.13,2.93,2.93,0,0,1,2.46-1.13A3,3,0,0,1,31,40.51a5,5,0,0,1,.9,3.1Zm-1.25-1.74a4.28,4.28,0,0,0-.52-2.35,1.75,1.75,0,0,0-1.58-.77,1.79,1.79,0,0,0-1.57.78,4.1,4.1,0,0,0-.53,2.29v1.79A4.24,4.24,0,0,0,27,47.74a2,2,0,0,0,3.14.06,4.15,4.15,0,0,0,.53-2.26Z"/>
	<path d="M39,46.18a4.46,4.46,0,0,1-.63,2.62,2.1,2.1,0,0,1-1.79.86,2,2,0,0,1-1.72-.84v3.54H33.7V42.12h1.09l.07.82A1.94,1.94,0,0,1,36.6,42a2.09,2.09,0,0,1,1.82.84A4.48,4.48,0,0,1,39,45.37Zm-1.2-.69a3.43,3.43,0,0,0-.39-1.84,1.35,1.35,0,0,0-1.23-.59,1.43,1.43,0,0,0-1.32.87v3.85a1.44,1.44,0,0,0,1.34.84,1.31,1.31,0,0,0,1.2-.59,3.39,3.39,0,0,0,.4-1.81Z"/>
	<path d="M43.26,49.66a2.7,2.7,0,0,1-2.12-.83,3.56,3.56,0,0,1-.75-2.41v-.9a4.15,4.15,0,0,1,.72-2.59,2.38,2.38,0,0,1,2-.94,2.3,2.3,0,0,1,1.94.82,4.26,4.26,0,0,1,.66,2.58v.79H41.59v.17A2.68,2.68,0,0,0,42,48.08a1.58,1.58,0,0,0,1.29.54,2.06,2.06,0,0,0,.94-.2,2.22,2.22,0,0,0,.76-.64l.63.77A2.76,2.76,0,0,1,43.26,49.66ZM43.12,43a1.27,1.27,0,0,0-1.11.51,3.08,3.08,0,0,0-.41,1.6h2.91V45a2.8,2.8,0,0,0-.38-1.5A1.17,1.17,0,0,0,43.12,43Z"/>
	<path d="M48.32,42.12l0,.8a2.17,2.17,0,0,1,1.8-.93c1.3,0,2,.87,2,2.61v4.92H50.94V44.66a2,2,0,0,0-.29-1.23,1,1,0,0,0-.87-.37,1.23,1.23,0,0,0-.81.3,2.17,2.17,0,0,0-.58.79v5.37H47.18v-7.4Z"/>
	<path d="M14.25,61a1.54,1.54,0,0,0-.41-1.14,4.09,4.09,0,0,0-1.45-.77,6.17,6.17,0,0,1-1.61-.79,2.81,2.81,0,0,1-.83-.94,2.78,2.78,0,0,1,.51-3.16,2.79,2.79,0,0,1,2.07-.77,3.05,3.05,0,0,1,1.55.39,2.65,2.65,0,0,1,1.06,1.09,3.26,3.26,0,0,1,.37,1.53H14.25A2.08,2.08,0,0,0,13.8,55a1.59,1.59,0,0,0-1.27-.51,1.56,1.56,0,0,0-1.18.43,1.61,1.61,0,0,0-.42,1.19,1.38,1.38,0,0,0,.45,1.05,3.85,3.85,0,0,0,1.4.76,4.88,4.88,0,0,1,2.1,1.2A2.69,2.69,0,0,1,15.51,61a2.53,2.53,0,0,1-.78,1.94,3.07,3.07,0,0,1-2.14.73A3.5,3.5,0,0,1,11,63.28a2.9,2.9,0,0,1-1.15-1.07,3,3,0,0,1-.42-1.58h1.26a2,2,0,0,0,.51,1.44,1.92,1.92,0,0,0,1.41.51,1.68,1.68,0,0,0,1.24-.42A1.57,1.57,0,0,0,14.25,61Z"/>
	<path d="M19.64,63.66a2.71,2.71,0,0,1-2.12-.83,3.56,3.56,0,0,1-.75-2.41v-.9a4.15,4.15,0,0,1,.72-2.59,2.39,2.39,0,0,1,2-.94,2.31,2.31,0,0,1,1.94.82,4.34,4.34,0,0,1,.65,2.58v.79H18v.17a2.68,2.68,0,0,0,.45,1.73,1.58,1.58,0,0,0,1.29.54,2,2,0,0,0,.94-.2,2.13,2.13,0,0,0,.76-.64l.63.77A2.73,2.73,0,0,1,19.64,63.66ZM19.51,57a1.27,1.27,0,0,0-1.12.51,3.08,3.08,0,0,0-.41,1.6h2.91V59a2.72,2.72,0,0,0-.38-1.5A1.15,1.15,0,0,0,19.51,57Z"/>
	<path d="M27.37,63.52a2.76,2.76,0,0,1-.15-.81,1.93,1.93,0,0,1-1.64.95,2,2,0,0,1-2.14-2.16,2.25,2.25,0,0,1,.77-1.79,3.11,3.11,0,0,1,2.1-.67h.89v-.79a1.23,1.23,0,0,0-.3-.94,1.47,1.47,0,0,0-1.78,0,1.08,1.08,0,0,0-.34.82H23.57a2,2,0,0,1,.33-1.08,2.35,2.35,0,0,1,.9-.81A2.67,2.67,0,0,1,26.07,56a2.38,2.38,0,0,1,1.72.56,2.19,2.19,0,0,1,.61,1.64v3.74a4.38,4.38,0,0,0,.23,1.48v.11Zm-1.61-1a1.65,1.65,0,0,0,.85-.25,1.52,1.52,0,0,0,.59-.62V59.93h-.69a2.29,2.29,0,0,0-1.36.39,1.23,1.23,0,0,0-.5,1,1.34,1.34,0,0,0,.26.91A1.07,1.07,0,0,0,25.76,62.56Z"/>
	<path d="M33.88,61.63a.9.9,0,0,0-.29-.67,4.36,4.36,0,0,0-1.14-.66,7.3,7.3,0,0,1-1.37-.69,1.93,1.93,0,0,1-.6-.65,1.86,1.86,0,0,1-.2-.87,2,2,0,0,1,.66-1.51A2.44,2.44,0,0,1,32.62,56a2.42,2.42,0,0,1,1.74.63A2.1,2.1,0,0,1,35,58.23H33.81a1.19,1.19,0,0,0-.33-.85,1.11,1.11,0,0,0-.86-.35,1.2,1.2,0,0,0-.83.27.94.94,0,0,0-.31.74.82.82,0,0,0,.22.59,4.18,4.18,0,0,0,1.07.6,5.37,5.37,0,0,1,1.84,1,1.76,1.76,0,0,1,.48,1.27,2,2,0,0,1-.66,1.55,2.65,2.65,0,0,1-1.78.58A2.62,2.62,0,0,1,30.78,63a2.18,2.18,0,0,1-.72-1.68h1.22a1.4,1.4,0,0,0,.37,1,1.67,1.67,0,0,0,1.92.07A.9.9,0,0,0,33.88,61.63Z"/>
	<path d="M36.43,59.48a3.85,3.85,0,0,1,.78-2.55A2.55,2.55,0,0,1,39.28,56a2.57,2.57,0,0,1,2.06.91,3.79,3.79,0,0,1,.81,2.5v.78a3.84,3.84,0,0,1-.78,2.54,2.78,2.78,0,0,1-4.14,0,3.73,3.73,0,0,1-.8-2.46Zm1.21.7A3.1,3.1,0,0,0,38.08,62a1.38,1.38,0,0,0,1.21.65q1.6,0,1.65-2.31v-.83a3.12,3.12,0,0,0-.45-1.79A1.4,1.4,0,0,0,39.28,57a1.39,1.39,0,0,0-1.2.66,3.11,3.11,0,0,0-.44,1.78Z"/>
	<path d="M44.86,56.12l0,.8A2.14,2.14,0,0,1,46.69,56c1.31,0,2,.87,2,2.61v4.92h-1.2V58.66a2,2,0,0,0-.29-1.23,1,1,0,0,0-.87-.37,1.23,1.23,0,0,0-.81.3,2.06,2.06,0,0,0-.58.79v5.37H43.72v-7.4Z"/>
	<path d="M54.32,63.52a2.41,2.41,0,0,1-.16-.81,1.93,1.93,0,0,1-1.64.95,2,2,0,0,1-2.14-2.16,2.25,2.25,0,0,1,.77-1.79,3.11,3.11,0,0,1,2.1-.67h.89v-.79a1.23,1.23,0,0,0-.3-.94,1.47,1.47,0,0,0-1.78,0,1.08,1.08,0,0,0-.34.82H50.51a2,2,0,0,1,.33-1.08,2.51,2.51,0,0,1,.9-.81A2.67,2.67,0,0,1,53,56a2.4,2.4,0,0,1,1.73.56,2.22,2.22,0,0,1,.6,1.64v3.74a4.65,4.65,0,0,0,.23,1.48v.11Zm-1.62-1a1.65,1.65,0,0,0,.85-.25,1.52,1.52,0,0,0,.59-.62V59.93h-.69a2.31,2.31,0,0,0-1.36.39,1.23,1.23,0,0,0-.5,1,1.34,1.34,0,0,0,.26.91A1.09,1.09,0,0,0,52.7,62.56Z"/>
	<path d="M58.53,63.52H57.32V53h1.21Z"/>
	<path d="M61.75,63.52H60.54V53h1.21Z"/>
	<path d="M65.69,61.51,67,56.12h1.28L65.9,64.57A3.27,3.27,0,0,1,65.13,66a1.57,1.57,0,0,1-1.13.5,2.45,2.45,0,0,1-.63-.11v-1l.26,0a1.23,1.23,0,0,0,.83-.25,1.74,1.74,0,0,0,.48-.86l.24-.83L63,56.12h1.32Z"/>
	<path class="iconGreen" d="M51.43,27.54a.55.55,0,0,0-.23-.29l-2.15-1.2,1.21-2.15a.45.45,0,0,0,0-.36.44.44,0,0,0-.22-.29.45.45,0,0,0-.36,0,.46.46,0,0,0-.29.22l-1.34,2.39-2.52.71L46.21,24v0l2.35-1.4a.46.46,0,0,0,.22-.53.61.61,0,0,0,0-.12.48.48,0,0,0-.29-.21.42.42,0,0,0-.36.05L46,23l0,0-1.26-2.12a.46.46,0,0,0-.29-.22.5.5,0,0,0-.36.05.48.48,0,0,0-.21.54.27.27,0,0,0,0,.11l1.39,2.34v0l-.63,2.46,0,.08-1.86-1.82h0l0-2.74a.69.69,0,0,0,0-.13.47.47,0,0,0-.46-.34h0a.44.44,0,0,0-.33.14.48.48,0,0,0-.14.34l0,2.46-2.46,0a.45.45,0,0,0-.34.15.42.42,0,0,0-.13.33.45.45,0,0,0,.48.47h0l2.72,0h0l1.82,1.77L44,27l-2.5.7h0l-2.39-1.35a.5.5,0,0,0-.36,0,.43.43,0,0,0-.28.23.45.45,0,0,0,0,.36.49.49,0,0,0,.23.28l2.11,1.19,0,0-1.21,2.15a.45.45,0,0,0,0,.36.44.44,0,0,0,.22.28.46.46,0,0,0,.36,0,.51.51,0,0,0,.29-.23l1.34-2.39,2.52-.71-.64,2.52v0l-2.35,1.4a.47.47,0,0,0-.22.54.37.37,0,0,0,0,.11.46.46,0,0,0,.29.22.5.5,0,0,0,.36-.05l2.08-1.24,0,0,1.26,2.12a.5.5,0,0,0,.29.22h.12a.44.44,0,0,0,.24-.07.46.46,0,0,0,.21-.53.36.36,0,0,0,0-.11l-1.41-2.37.65-2.53L47,29.94l0,0,0,2.74a.5.5,0,0,0,0,.12.47.47,0,0,0,.45.35.46.46,0,0,0,.34-.14.48.48,0,0,0,.14-.34l0-2.47,2.46,0a.48.48,0,0,0,.34-.14.47.47,0,0,0,.13-.34.25.25,0,0,0,0-.12.47.47,0,0,0-.45-.35h0l-2.72,0h0l-1.88-1.83,2.53-.71,2.39,1.34a.46.46,0,0,0,.64-.18A.46.46,0,0,0,51.43,27.54Z"/>
	<path class="iconGreen" d="M46.7,14.22a.57.57,0,0,0-.17-.41.59.59,0,0,0-.83,0L30.61,28.9a.58.58,0,0,0-.17.41.61.61,0,0,0,.17.42.58.58,0,0,0,.82,0l15.1-15.1A.58.58,0,0,0,46.7,14.22Z"/>
	<path class="iconGreen" d="M32.33,20.23v1.64a.62.62,0,1,0,1.24,0V20.23a.53.53,0,0,0,0-.25,4.59,4.59,0,0,0,2.14-.91.57.57,0,0,0,.13.21L37,20.45a.66.66,0,0,0,.88,0A.67.67,0,0,0,38,20a.63.63,0,0,0-.18-.44L36.67,18.4a.54.54,0,0,0-.22-.13,4.53,4.53,0,0,0,.89-2.16.46.46,0,0,0,.23.05h1.65a.62.62,0,1,0,0-1.24H37.57a.69.69,0,0,0-.24.05,4.5,4.5,0,0,0-.91-2.14.57.57,0,0,0,.21-.13l1.16-1.17a.63.63,0,0,0,.18-.44.62.62,0,0,0-1.06-.44l-1.17,1.17a.54.54,0,0,0-.13.22,4.52,4.52,0,0,0-2.15-.88.69.69,0,0,0,0-.24V9.27a.63.63,0,0,0-1.25,0v1.65a.64.64,0,0,0,.05.24,4.46,4.46,0,0,0-2.12.9.39.39,0,0,0-.12-.19l-1.16-1.16a.62.62,0,1,0-.88.88l1.16,1.16a.53.53,0,0,0,.2.13A4.54,4.54,0,0,0,28.5,15a.59.59,0,0,0-.23,0H26.62a.63.63,0,1,0,0,1.25h1.65a.69.69,0,0,0,.24-.05,4.41,4.41,0,0,0,.91,2.14.57.57,0,0,0-.21.13l-1.16,1.16a.62.62,0,0,0-.18.44.59.59,0,0,0,.18.44.65.65,0,0,0,.88,0l1.16-1.16a.64.64,0,0,0,.14-.22,4.58,4.58,0,0,0,2.15.88A.52.52,0,0,0,32.33,20.23Zm-1.75-2.32a3.34,3.34,0,0,1,0-4.67,3.29,3.29,0,0,1,5.63,2.33,3.28,3.28,0,0,1-1,2.34,3.33,3.33,0,0,1-4.68,0Z"/>
</svg>