<svg xmlns="http://www.w3.org/2000/svg" viewBox="0 0 77.73 77.73">
	<defs>
		<style>
			.iconGreen {
				fill: hsl(125, 47%, 44%);
			}
		</style>
	</defs>
	<path class="iconGreen" d="M36.74,25.72l-2.18,2.34v5.68H29.24V12.19h5.32V21.7L36.4,19l4.76-6.77h6.57l-7.45,9.53,7.45,12h-6.3Z"/>
	<path d="M22.53,44.93l-1,1.19v3.4H20.31v-10h1.25v4.8l.82-1.08,2.68-3.72h1.5L23.33,44l3.48,5.57H25.32Z"/>
	<path d="M27.34,45.48a3.87,3.87,0,0,1,.78-2.55A2.55,2.55,0,0,1,30.19,42a2.58,2.58,0,0,1,2.07.91,3.8,3.8,0,0,1,.8,2.5v.78a3.84,3.84,0,0,1-.78,2.54,2.55,2.55,0,0,1-2.08.94,2.61,2.61,0,0,1-2.06-.91,3.84,3.84,0,0,1-.8-2.46Zm1.21.7A3.1,3.1,0,0,0,29,48a1.39,1.39,0,0,0,1.2.66c1.07,0,1.62-.78,1.65-2.32v-.83a3.12,3.12,0,0,0-.45-1.79A1.39,1.39,0,0,0,30.19,43a1.37,1.37,0,0,0-1.19.66,3.11,3.11,0,0,0-.45,1.78Z"/>
	<path d="M38.23,47.63a.9.9,0,0,0-.29-.67,4.36,4.36,0,0,0-1.14-.66,7.82,7.82,0,0,1-1.38-.69,2,2,0,0,1-.59-.65,1.75,1.75,0,0,1-.2-.87,1.91,1.91,0,0,1,.66-1.5,2.69,2.69,0,0,1,3.42,0,2.11,2.11,0,0,1,.65,1.61h-1.2a1.19,1.19,0,0,0-.33-.85A1.12,1.12,0,0,0,37,43a1.25,1.25,0,0,0-.84.27,1,1,0,0,0-.3.74.82.82,0,0,0,.22.6,4.25,4.25,0,0,0,1.07.59,5.21,5.21,0,0,1,1.83,1,1.73,1.73,0,0,1,.49,1.28,2,2,0,0,1-.66,1.54A3,3,0,0,1,35.13,49a2.18,2.18,0,0,1-.72-1.68h1.22a1.35,1.35,0,0,0,.37,1,1.38,1.38,0,0,0,1,.35,1.33,1.33,0,0,0,.92-.28A.91.91,0,0,0,38.23,47.63Z"/>
	<path d="M42.24,42.88A2.13,2.13,0,0,1,44,42c1.31,0,2,.87,2,2.62v4.91h-1.2V44.66a2,2,0,0,0-.29-1.23,1.05,1.05,0,0,0-.88-.37,1.23,1.23,0,0,0-.81.3,2,2,0,0,0-.57.79v5.37H41V39h1.21Z"/>
	<path d="M50.45,49.66a2.7,2.7,0,0,1-2.12-.83,3.51,3.51,0,0,1-.75-2.41v-.9a4.15,4.15,0,0,1,.72-2.59,2.38,2.38,0,0,1,2-.94,2.3,2.3,0,0,1,1.94.82,4.26,4.26,0,0,1,.66,2.58v.79H48.78v.18a2.71,2.71,0,0,0,.45,1.73,1.55,1.55,0,0,0,1.28.54,2,2,0,0,0,.94-.21,2.16,2.16,0,0,0,.77-.64l.63.77A2.76,2.76,0,0,1,50.45,49.66ZM50.31,43a1.27,1.27,0,0,0-1.11.51,3,3,0,0,0-.41,1.61H51.7V45a2.8,2.8,0,0,0-.38-1.5A1.17,1.17,0,0,0,50.31,43Z"/>
	<path d="M57.43,43.26a3.21,3.21,0,0,0-.55,0,1.33,1.33,0,0,0-1.3,1v5.29H54.37v-7.4h1.18l0,.76A1.49,1.49,0,0,1,56.94,42a1.14,1.14,0,0,1,.48.09Z"/>
</svg>