<svg xmlns="http://www.w3.org/2000/svg" viewBox="0 0 77.73 77.73">
	<defs>
		<style>
			.iconGreen {
				fill: hsl(125, 47%, 44%);
			}
		</style>
	</defs>
	<path class="iconGreen" d="M30.49,12.31a9.53,9.53,0,0,0,.94-1.64,6.76,6.76,0,0,0,.64,1.55,2.06,2.06,0,0,0,.61.7,4.39,4.39,0,0,0-.47,1.49,10.12,10.12,0,0,0,.08,2.06c.12,1,.26,1.91.34,2.87a18.74,18.74,0,0,1,.09,2.9,4.08,4.08,0,0,1-1.25,2.64A4.84,4.84,0,0,1,29,26.19a4.39,4.39,0,0,1-1.73.06,3.87,3.87,0,0,1-2.18-.91,2.92,2.92,0,0,1-.91-1.64,9,9,0,0,1,0-1.16A6,6,0,0,1,25.39,20c.08-.1.14-.22.27-.26a8.76,8.76,0,0,0-.61,2.2,3.41,3.41,0,0,0,.11,1.35,1.64,1.64,0,0,0,.55.77,3.67,3.67,0,0,0,2.22.68,4.36,4.36,0,0,0,3.28-1.47,2.77,2.77,0,0,0,.5-1.42,17,17,0,0,0-.16-4,1.94,1.94,0,0,1,0-.59l0,.14c-.08-.85-.26-1.7-.41-2.54s-.37-1.72-.58-2.58"/>
	<path class="iconGreen" d="M40.55,13.08l.19-.05a.89.89,0,0,1,.29.47,5.71,5.71,0,0,1,.24,1.36c.07.73.08,1.47.09,2.21,0,.49,0,1,0,1.48.05.29,0,.59.07.88a10.09,10.09,0,0,0,.35,2.12,2.37,2.37,0,0,0,.87,1.37,2.79,2.79,0,0,0,1.18.23,9,9,0,0,0,3.61-.41,3.21,3.21,0,0,0,1.1-.65A9.73,9.73,0,0,0,46,21.17a6,6,0,0,0-.95,0,1.89,1.89,0,0,0-.86.33,3.9,3.9,0,0,0-.91.69l-.14.07a8.08,8.08,0,0,1,.76-1.6,3,3,0,0,1,1.65-1.41,4.13,4.13,0,0,1,2.32.38c.91.39,1.72,1,2.63,1.37a6,6,0,0,0,2,.39,6.35,6.35,0,0,0,1.07,0l0,.11c-.42.59-.8,1.2-1.2,1.8a5,5,0,0,0-1,0,5.63,5.63,0,0,0-1.42.16,11.24,11.24,0,0,0-1.49.48,24.85,24.85,0,0,1-3.17.89,7.74,7.74,0,0,1-1.6.14,2.78,2.78,0,0,1-2-.8A4.08,4.08,0,0,1,40.78,22a18.63,18.63,0,0,1-.27-3.07c0-.24,0-.49,0-.75,0-.5,0-1,0-1.51-.07.24-.1.49-.15.73-.24,1.15-.52,2.29-.86,3.42a8.45,8.45,0,0,1-1.21,2.62A7.32,7.32,0,0,1,33.41,26a11.8,11.8,0,0,1-2.59,0l0-.08a11.46,11.46,0,0,0,2.29-.71,10.69,10.69,0,0,0,4.47-3.36,9.39,9.39,0,0,0,1.69-3.77c.28-1.35.55-2.7.9-4a8,8,0,0,1,.36-1"/>
	<path class="iconGreen" d="M32.87,14.23l.18,0a7.25,7.25,0,0,1,3.23,2.48,6.61,6.61,0,0,1,1.1,4.55L37.23,21a7.44,7.44,0,0,0-1.17-2.44,2.77,2.77,0,0,0-1.21-.84A5.71,5.71,0,0,1,33.37,17a1.36,1.36,0,0,1-.49-1,15.25,15.25,0,0,1,0-1.79"/>
	<path class="iconGreen" d="M24.56,27.11H26c0,.85,0,1.71,0,2.56h2.43V27.11H30v6.62c-.49,0-1,0-1.48,0V31H26v2.76c-.49,0-1,0-1.48,0V27.11"/>
	<path class="iconGreen" d="M32.81,27.11h2c.67,2.21,1.36,4.42,2,6.62H35.19c-.17-.56-.33-1.13-.5-1.69-.63,0-1.24,0-1.87,0-.15.56-.31,1.12-.46,1.68-.51,0-1,0-1.55,0q1-3.32,2-6.63m.91,1.14c-.19.91-.44,1.8-.69,2.68h1.44c-.2-.69-.41-1.37-.59-2.05a3.42,3.42,0,0,0-.16-.63"/>
	<path class="iconGreen" d="M37.66,27.11h1.48c0,1.79,0,3.58,0,5.37h2.61c0,.41,0,.83,0,1.25H37.66V27.11"/>
	<path class="iconGreen" d="M44.24,27.11h2q1,3.32,2,6.62H46.63L46.12,32H44.26c-.15.56-.31,1.12-.46,1.69-.52,0-1,0-1.55,0,.66-2.2,1.34-4.41,2-6.62m.92,1.14c-.18.9-.43,1.79-.68,2.67h1.43c-.19-.69-.4-1.36-.58-2.05-.06-.2-.09-.42-.17-.62"/>
	<path class="iconGreen" d="M49.09,27.11h1.48v5.37h2.62c0,.41,0,.83,0,1.25h-4.1V27.11"/>
	<path d="M32.17,49.52H30.91v-4.6h-4v4.6H25.65v-10H26.9v4.28h4V39.57h1.26Z"/>
	<path d="M38,49.52a2.76,2.76,0,0,1-.15-.81,1.93,1.93,0,0,1-1.64.95,2,2,0,0,1-2.14-2.16,2.26,2.26,0,0,1,.77-1.79,3.16,3.16,0,0,1,2.1-.67h.89v-.79a1.23,1.23,0,0,0-.3-.94,1.47,1.47,0,0,0-1.78,0,1.08,1.08,0,0,0-.34.82H34.18a2,2,0,0,1,.33-1.08,2.35,2.35,0,0,1,.9-.81A2.79,2.79,0,0,1,36.68,42a2.38,2.38,0,0,1,1.72.56A2.21,2.21,0,0,1,39,44.2v3.73a4.38,4.38,0,0,0,.23,1.48v.11Zm-1.61-1a1.65,1.65,0,0,0,.85-.25,1.56,1.56,0,0,0,.59-.61V45.93h-.69a2.29,2.29,0,0,0-1.36.39,1.23,1.23,0,0,0-.5,1,1.34,1.34,0,0,0,.26.91A1.07,1.07,0,0,0,36.37,48.56Z"/>
	<path d="M42.2,49.52H41V39H42.2Z"/>
	<path d="M47.92,49.52a2.76,2.76,0,0,1-.15-.81,1.93,1.93,0,0,1-1.64.95A2,2,0,0,1,44,47.5a2.26,2.26,0,0,1,.77-1.79,3.16,3.16,0,0,1,2.1-.67h.89v-.79a1.23,1.23,0,0,0-.3-.94,1.47,1.47,0,0,0-1.78,0,1.08,1.08,0,0,0-.34.82H44.12a2,2,0,0,1,.33-1.08,2.35,2.35,0,0,1,.9-.81A2.79,2.79,0,0,1,46.62,42a2.38,2.38,0,0,1,1.72.56A2.21,2.21,0,0,1,49,44.2v3.73a4.38,4.38,0,0,0,.23,1.48v.11Zm-1.61-1a1.65,1.65,0,0,0,.85-.25,1.56,1.56,0,0,0,.59-.61V45.93h-.69a2.29,2.29,0,0,0-1.36.39,1.23,1.23,0,0,0-.5,1,1.34,1.34,0,0,0,.26.91A1.07,1.07,0,0,0,46.31,48.56Z"/>
	<path d="M52.14,49.52H50.93V39h1.21Z"/>
</svg>