<svg xmlns="http://www.w3.org/2000/svg" viewBox="0 0 77.73 77.73">
	<defs>
		<style>
			.iconGreen {
				fill: hsl(125, 47%, 44%);
			}
		</style>
	</defs>
	<path class="iconGreen" d="M38.78,17.43a.52.52,0,0,0-.55.47V32.82a.56.56,0,0,0,1.11,0V17.9A.52.52,0,0,0,38.78,17.43Z"/>
	<path class="iconGreen" d="M35.88,16.73a6.85,6.85,0,0,0-4-1.26.52.52,0,0,0-.55.46,4.7,4.7,0,0,0,1.5,3.38,6.86,6.86,0,0,0,4,1.26h0a.51.51,0,0,0,.54-.46A4.6,4.6,0,0,0,35.88,16.73ZM33.6,18.65a3.54,3.54,0,0,1-1.12-2.21,5,5,0,0,1,2.61.95,3.56,3.56,0,0,1,1.13,2.21A5,5,0,0,1,33.6,18.65Z"/>
	<path class="iconGreen" d="M35.88,21.87a6.78,6.78,0,0,0-4-1.26.52.52,0,0,0-.55.46,4.7,4.7,0,0,0,1.5,3.38,6.86,6.86,0,0,0,4,1.26h0a.51.51,0,0,0,.54-.46A4.6,4.6,0,0,0,35.88,21.87ZM33.6,23.79a3.54,3.54,0,0,1-1.12-2.21,5,5,0,0,1,2.61,1,3.56,3.56,0,0,1,1.13,2.21A5,5,0,0,1,33.6,23.79Z"/>
	<path class="iconGreen" d="M35.88,27a6.9,6.9,0,0,0-4-1.27.53.53,0,0,0-.55.47,4.7,4.7,0,0,0,1.5,3.38,6.86,6.86,0,0,0,4,1.26h0a.51.51,0,0,0,.54-.46A4.6,4.6,0,0,0,35.88,27ZM33.6,28.93a3.54,3.54,0,0,1-1.12-2.21,5,5,0,0,1,2.61,1,3.56,3.56,0,0,1,1.13,2.21A5,5,0,0,1,33.6,28.93Z"/>
	<path class="iconGreen" d="M46.25,15.93a.52.52,0,0,0-.55-.46,6.85,6.85,0,0,0-4,1.26,4.67,4.67,0,0,0-1.5,3.38.52.52,0,0,0,.55.46h0a6.86,6.86,0,0,0,4-1.26A4.7,4.7,0,0,0,46.25,15.93ZM44,18.65a5,5,0,0,1-2.62,1,3.54,3.54,0,0,1,1.12-2.21,5,5,0,0,1,2.62-.95A3.54,3.54,0,0,1,44,18.65Z"/>
	<path class="iconGreen" d="M46.25,21.07a.52.52,0,0,0-.55-.46,6.78,6.78,0,0,0-4,1.26,4.67,4.67,0,0,0-1.5,3.38.52.52,0,0,0,.55.46h0a6.86,6.86,0,0,0,4-1.26A4.7,4.7,0,0,0,46.25,21.07ZM44,23.79a5.13,5.13,0,0,1-2.63.95,3.62,3.62,0,0,1,1.13-2.21,5,5,0,0,1,2.62-1A3.57,3.57,0,0,1,44,23.79Z"/>
	<path class="iconGreen" d="M46.25,26.21a.53.53,0,0,0-.55-.47,6.9,6.9,0,0,0-4,1.27,4.67,4.67,0,0,0-1.5,3.38.52.52,0,0,0,.55.46h0a6.86,6.86,0,0,0,4-1.26A4.7,4.7,0,0,0,46.25,26.21ZM44,28.93a5.22,5.22,0,0,1-2.63.95,3.62,3.62,0,0,1,1.13-2.21,5,5,0,0,1,2.62-1A3.54,3.54,0,0,1,44,28.93Z"/>
	<path class="iconGreen" d="M40.39,13a.52.52,0,0,0-.55.46,3.59,3.59,0,0,1-1.06,2.24,3.64,3.64,0,0,1-1.05-2.24,3.58,3.58,0,0,1,1.05-2.23,1,1,0,0,1,.14.15.62.62,0,0,0,.77.1.43.43,0,0,0,.13-.65,5.5,5.5,0,0,0-.65-.65.62.62,0,0,0-.77,0,4.89,4.89,0,0,0-1.78,3.28,4.9,4.9,0,0,0,1.78,3.29.65.65,0,0,0,.38.13.68.68,0,0,0,.39-.13A4.94,4.94,0,0,0,41,13.43.51.51,0,0,0,40.39,13Z"/>
	<path class="iconGreen" d="M40,11.73a.47.47,0,1,0,0,.94A.47.47,0,1,0,40,11.73Z"/>
	<path d="M28.38,48.28l-.22.28a3.45,3.45,0,0,1-2.76,1.1,3.17,3.17,0,0,1-2.53-1.07,4.57,4.57,0,0,1-.94-3v-2a4.89,4.89,0,0,1,.84-3.13,3,3,0,0,1,2.5-1,3.08,3.08,0,0,1,2.23.79,3.31,3.31,0,0,1,.88,2.26H27.13A2.47,2.47,0,0,0,26.61,41a1.62,1.62,0,0,0-1.33-.52,1.78,1.78,0,0,0-1.57.7,3.89,3.89,0,0,0-.52,2.23v2a3.92,3.92,0,0,0,.57,2.3,1.89,1.89,0,0,0,1.65.81A2.22,2.22,0,0,0,27,48.1l.18-.17V45.64H25.31V44.57h3.07Z"/>
	<path d="M33.32,43.26a3,3,0,0,0-.54,0,1.33,1.33,0,0,0-1.3,1v5.29H30.27V42.13h1.17l0,.75A1.49,1.49,0,0,1,32.84,42a1.14,1.14,0,0,1,.48.09Z"/>
	<path d="M38.08,49.52a2.4,2.4,0,0,1-.16-.8,2,2,0,0,1-1.64.94,2,2,0,0,1-2.13-2.15,2.26,2.26,0,0,1,.76-1.8A3.16,3.16,0,0,1,37,45h.89v-.79a1.23,1.23,0,0,0-.3-.94,1.22,1.22,0,0,0-.89-.28,1.26,1.26,0,0,0-.89.32,1.09,1.09,0,0,0-.34.83H34.27a2,2,0,0,1,.33-1.09,2.46,2.46,0,0,1,.91-.81A2.75,2.75,0,0,1,36.77,42a2.45,2.45,0,0,1,1.73.56,2.25,2.25,0,0,1,.6,1.65v3.73a4.65,4.65,0,0,0,.23,1.48v.11Zm-1.62-1a1.7,1.7,0,0,0,1.44-.86V45.93h-.69a2.31,2.31,0,0,0-1.36.39,1.23,1.23,0,0,0-.49,1,1.32,1.32,0,0,0,.25.91A1.09,1.09,0,0,0,36.46,48.56Z"/>
	<path d="M42.39,40.16a.81.81,0,0,1-.17.52.66.66,0,0,1-.52.2.63.63,0,0,1-.51-.2.76.76,0,0,1-.17-.52.79.79,0,0,1,.17-.52.61.61,0,0,1,.51-.21.62.62,0,0,1,.52.22A.8.8,0,0,1,42.39,40.16Zm-.1,9.36H41.08V42.13h1.21Z"/>
	<path d="M45.35,42.13l0,.8a2.15,2.15,0,0,1,1.8-.94c1.31,0,2,.87,2,2.62v4.91H48V44.66a2,2,0,0,0-.29-1.23,1,1,0,0,0-.87-.37,1.23,1.23,0,0,0-.81.3,2.14,2.14,0,0,0-.58.79v5.37H44.21V42.13Z"/>
	<path d="M54.59,47.63A.92.92,0,0,0,54.3,47a4.36,4.36,0,0,0-1.14-.66,7.3,7.3,0,0,1-1.37-.69,1.93,1.93,0,0,1-.6-.65,1.83,1.83,0,0,1-.2-.87,1.94,1.94,0,0,1,.66-1.5,2.69,2.69,0,0,1,3.42,0,2.12,2.12,0,0,1,.66,1.61H54.52a1.19,1.19,0,0,0-.33-.85,1.15,1.15,0,0,0-.86-.35,1.2,1.2,0,0,0-.83.27.94.94,0,0,0-.31.74.81.81,0,0,0,.23.6,3.94,3.94,0,0,0,1.06.59,5.37,5.37,0,0,1,1.84,1,1.78,1.78,0,0,1,.48,1.28,2,2,0,0,1-.66,1.54,2.6,2.6,0,0,1-1.78.58A2.65,2.65,0,0,1,51.49,49a2.21,2.21,0,0,1-.72-1.69H52a1.45,1.45,0,0,0,2.29,1A.92.92,0,0,0,54.59,47.63Z"/>
</svg>