<svg xmlns="http://www.w3.org/2000/svg" viewBox="0 0 77.73 77.73">
	<defs>
		<style>
			.iconGreen {
				fill: hsl(125, 47%, 44%);
			}
		</style>
	</defs>
	<path d="M18.61,46.92H15.24l-.77,2.6H13.19l3.2-10h1.07l3.22,10H19.39Zm-3-1.08h2.71l-1.36-4.52Z"/>
	<path d="M23.18,49.52H22V39h1.21Z"/>
	<path d="M27.66,48.63a1.3,1.3,0,0,0,1-.38A1.55,1.55,0,0,0,29,47.19h1.15A2.53,2.53,0,0,1,29.41,49a2.4,2.4,0,0,1-1.75.7,2.56,2.56,0,0,1-2.09-.87,3.92,3.92,0,0,1-.72-2.57v-.81a3.92,3.92,0,0,1,.72-2.55A2.54,2.54,0,0,1,27.66,42a2.35,2.35,0,0,1,1.8.72,2.93,2.93,0,0,1,.71,2H29a1.92,1.92,0,0,0-.39-1.23,1.19,1.19,0,0,0-1-.41,1.37,1.37,0,0,0-1.2.53,3,3,0,0,0-.4,1.74v.94a3.38,3.38,0,0,0,.38,1.85A1.41,1.41,0,0,0,27.66,48.63Z"/>
	<path d="M31.32,45.48a3.87,3.87,0,0,1,.78-2.55,2.78,2.78,0,0,1,4.14,0,3.8,3.8,0,0,1,.8,2.5v.78a3.84,3.84,0,0,1-.78,2.54,2.77,2.77,0,0,1-4.13,0,3.78,3.78,0,0,1-.81-2.46Zm1.21.7A3.1,3.1,0,0,0,33,48a1.39,1.39,0,0,0,1.21.66c1.06,0,1.61-.77,1.64-2.31v-.84a3.12,3.12,0,0,0-.45-1.79,1.42,1.42,0,0,0-2.4,0,3.11,3.11,0,0,0-.45,1.78Z"/>
	<path d="M39.83,42.88A2.13,2.13,0,0,1,41.59,42c1.31,0,2,.87,2,2.62v4.91h-1.2V44.66a2,2,0,0,0-.29-1.23,1.05,1.05,0,0,0-.88-.37,1.23,1.23,0,0,0-.81.3,2.12,2.12,0,0,0-.57.79v5.37H38.62V39h1.21Z"/>
	<path d="M45.14,45.48a3.87,3.87,0,0,1,.78-2.55A2.55,2.55,0,0,1,48,42a2.59,2.59,0,0,1,2.07.91,3.8,3.8,0,0,1,.8,2.5v.78a3.84,3.84,0,0,1-.78,2.54,2.78,2.78,0,0,1-4.14,0,3.78,3.78,0,0,1-.8-2.46Zm1.21.7A3.1,3.1,0,0,0,46.8,48a1.38,1.38,0,0,0,1.2.66q1.61,0,1.65-2.31v-.84a3.12,3.12,0,0,0-.45-1.79A1.4,1.4,0,0,0,48,43a1.36,1.36,0,0,0-1.19.66,3.11,3.11,0,0,0-.45,1.78Z"/>
	<path d="M53.74,49.52H52.53V39h1.21Z"/>
	<path d="M57.05,40.16a.76.76,0,0,1-.17.52.76.76,0,0,1-1,0,.81.81,0,0,1-.17-.52.85.85,0,0,1,.17-.52.72.72,0,0,1,1,0A.75.75,0,0,1,57.05,40.16ZM57,49.52H55.75V42.13H57Z"/>
	<path d="M61.44,48.63a1.31,1.31,0,0,0,1-.38,1.55,1.55,0,0,0,.39-1.06h1.14A2.48,2.48,0,0,1,63.19,49a2.4,2.4,0,0,1-1.75.7,2.56,2.56,0,0,1-2.09-.87,3.92,3.92,0,0,1-.72-2.57v-.81a4,4,0,0,1,.71-2.55,2.57,2.57,0,0,1,2.1-.87,2.35,2.35,0,0,1,1.8.72,2.88,2.88,0,0,1,.7,2H62.8a2,2,0,0,0-.39-1.23,1.2,1.2,0,0,0-1-.41,1.37,1.37,0,0,0-1.2.53,3,3,0,0,0-.4,1.74v.94a3.29,3.29,0,0,0,.38,1.85A1.41,1.41,0,0,0,61.44,48.63Z"/>
	<path d="M11.1,63.52v-10h2.83a2.85,2.85,0,0,1,2.05.66,2.64,2.64,0,0,1,.69,2,2.19,2.19,0,0,1-.35,1.23,2.36,2.36,0,0,1-.94.83,1.94,1.94,0,0,1,1.08.84,2.77,2.77,0,0,1,.4,1.53,2.93,2.93,0,0,1-.74,2.11,2.75,2.75,0,0,1-2.09.76Zm1.25-5.71H14A1.34,1.34,0,0,0,15,57.38,2,2,0,0,0,15,55a1.51,1.51,0,0,0-1.11-.37H12.35Zm0,1.06v3.58h1.71A1.42,1.42,0,0,0,15.18,62a1.9,1.9,0,0,0,.42-1.32c0-1.19-.5-1.79-1.52-1.79Z"/>
	<path d="M21.22,63.66a2.7,2.7,0,0,1-2.12-.83,3.54,3.54,0,0,1-.75-2.41v-.9a4.15,4.15,0,0,1,.72-2.59,2.38,2.38,0,0,1,2-.94,2.3,2.3,0,0,1,2,.83,4.31,4.31,0,0,1,.65,2.57v.8H19.55v.17A2.7,2.7,0,0,0,20,62.09a1.58,1.58,0,0,0,1.29.54,2,2,0,0,0,.94-.21,2.3,2.3,0,0,0,.76-.63l.63.76A2.73,2.73,0,0,1,21.22,63.66ZM21.08,57a1.27,1.27,0,0,0-1.11.51,3.09,3.09,0,0,0-.41,1.61h2.91V59a2.8,2.8,0,0,0-.38-1.5A1.16,1.16,0,0,0,21.08,57Z"/>
	<path d="M27.15,61.68l1.41-5.55h1.23l-2.2,7.39h-.9l-2.22-7.39H25.7Z"/>
	<path d="M33.7,63.66a2.68,2.68,0,0,1-2.11-.83,3.5,3.5,0,0,1-.76-2.41v-.9a4.15,4.15,0,0,1,.72-2.59,2.41,2.41,0,0,1,2-.94,2.29,2.29,0,0,1,1.94.83,4.23,4.23,0,0,1,.66,2.57v.8H32v.17a2.76,2.76,0,0,0,.44,1.73,1.58,1.58,0,0,0,1.29.54,2,2,0,0,0,.94-.21,2.21,2.21,0,0,0,.76-.63l.63.76A2.73,2.73,0,0,1,33.7,63.66ZM33.57,57a1.28,1.28,0,0,0-1.12.51A3.09,3.09,0,0,0,32,59.15H35V59a2.9,2.9,0,0,0-.38-1.5A1.19,1.19,0,0,0,33.57,57Z"/>
	<path d="M40.68,57.26a3,3,0,0,0-.54,0,1.32,1.32,0,0,0-1.3,1v5.29H37.63V56.13H38.8l0,.75A1.51,1.51,0,0,1,40.2,56a1.14,1.14,0,0,1,.48.09Z"/>
	<path d="M45.44,63.52a2.4,2.4,0,0,1-.16-.8,2,2,0,0,1-1.64.94,2,2,0,0,1-2.14-2.15,2.27,2.27,0,0,1,.77-1.8,3.16,3.16,0,0,1,2.1-.67h.89v-.79a1.23,1.23,0,0,0-.3-.94,1.22,1.22,0,0,0-.89-.28,1.26,1.26,0,0,0-.89.32,1.09,1.09,0,0,0-.34.83H41.63A2,2,0,0,1,42,57.09a2.51,2.51,0,0,1,.9-.81A2.79,2.79,0,0,1,44.13,56a2.45,2.45,0,0,1,1.73.56,2.25,2.25,0,0,1,.6,1.65v3.73a4.38,4.38,0,0,0,.23,1.48v.11Zm-1.62-1a1.7,1.7,0,0,0,1.44-.86V59.93h-.69a2.31,2.31,0,0,0-1.36.39,1.24,1.24,0,0,0-.5,1,1.32,1.32,0,0,0,.26.91A1.09,1.09,0,0,0,43.82,62.56Z"/>
	<path d="M48.11,59.49a4.52,4.52,0,0,1,.63-2.62A2.11,2.11,0,0,1,50.58,56a1.88,1.88,0,0,1,1.71,1l.06-.82h1.1v7.46a2.93,2.93,0,0,1-.71,2.11,2.58,2.58,0,0,1-2,.73,3.43,3.43,0,0,1-1.23-.27,2.65,2.65,0,0,1-1-.66l.49-.84a2.32,2.32,0,0,0,1.67.74c1,0,1.52-.55,1.55-1.65v-1a1.9,1.9,0,0,1-1.67.87,2.09,2.09,0,0,1-1.79-.87,4.21,4.21,0,0,1-.67-2.48Zm1.21.69A3.58,3.58,0,0,0,49.68,62a1.32,1.32,0,0,0,1.2.59,1.44,1.44,0,0,0,1.36-.93V58a1.46,1.46,0,0,0-1.34-.91,1.33,1.33,0,0,0-1.21.59,3.44,3.44,0,0,0-.37,1.79Z"/>
	<path d="M57.9,63.66a2.68,2.68,0,0,1-2.11-.83A3.5,3.5,0,0,1,55,60.42v-.9a4.15,4.15,0,0,1,.72-2.59,2.41,2.41,0,0,1,2-.94,2.29,2.29,0,0,1,1.94.83,4.23,4.23,0,0,1,.66,2.57v.8H56.24v.17a2.76,2.76,0,0,0,.44,1.73,1.58,1.58,0,0,0,1.29.54,2,2,0,0,0,.94-.21,2.33,2.33,0,0,0,.77-.63l.62.76A2.73,2.73,0,0,1,57.9,63.66ZM57.77,57a1.3,1.3,0,0,0-1.12.51,3.19,3.19,0,0,0-.41,1.61h2.92V59a2.9,2.9,0,0,0-.38-1.5A1.17,1.17,0,0,0,57.77,57Z"/>
	<path d="M65.42,61.63a.87.87,0,0,0-.29-.67A4.26,4.26,0,0,0,64,60.3a7.14,7.14,0,0,1-1.38-.69A1.93,1.93,0,0,1,62,59a1.83,1.83,0,0,1-.2-.87,1.94,1.94,0,0,1,.66-1.5,2.41,2.41,0,0,1,1.69-.6,2.37,2.37,0,0,1,1.73.63,2.12,2.12,0,0,1,.66,1.61h-1.2a1.2,1.2,0,0,0-.34-.85,1.1,1.1,0,0,0-.85-.35,1.21,1.21,0,0,0-.84.27A1,1,0,0,0,63,58a.81.81,0,0,0,.23.6,4.06,4.06,0,0,0,1.07.59,5.31,5.31,0,0,1,1.83,1,1.78,1.78,0,0,1,.48,1.28A2,2,0,0,1,66,63.08a2.58,2.58,0,0,1-1.78.58A2.65,2.65,0,0,1,62.32,63a2.21,2.21,0,0,1-.72-1.69h1.22a1.34,1.34,0,0,0,.38,1,1.36,1.36,0,0,0,1,.35,1.38,1.38,0,0,0,.92-.27A.92.92,0,0,0,65.42,61.63Z"/>
	<path class="iconGreen" d="M47.34,32.45h0a3.28,3.28,0,0,0-2.55-2.6v-2a2.43,2.43,0,0,0,1.5-.83,2.46,2.46,0,0,0,.57-2l-.56-3.65a1.06,1.06,0,0,0-1-.9H42.92a1.07,1.07,0,0,0-1.06.9L41.3,25a2.47,2.47,0,0,0,2.07,2.81v2a3.31,3.31,0,0,0-2.54,2.54H39.62V25.09a.71.71,0,1,0-1.41,0v1.53l-3.39,1.19a0,0,0,0,1,0,0l-3.37-1.19V21.05h6.8v1.1a.71.71,0,0,0,1.41,0v-1.1a4.08,4.08,0,0,0-.07-.77s0-.06,0-.09a4.69,4.69,0,0,0-1.84-2.92l-.49-.36V10.42A1.18,1.18,0,0,0,36,9.24H33.6a1.18,1.18,0,0,0-1.19,1.18v6.49l-.49.36a4.83,4.83,0,0,0-1.84,2.92s0,.06,0,.09a4.08,4.08,0,0,0-.07.77V33.62l17.26.12h.08Zm-13.67-22H36v2.72H33.67Zm-2.12,9.19a3.61,3.61,0,0,1,1.39-1.6,1.54,1.54,0,0,0,.22-.17h0a1.24,1.24,0,0,0,.5-1v-2.6H36v2.6a1.24,1.24,0,0,0,.5,1l.24.18a3.63,3.63,0,0,1,1.39,1.59l0,.1H31.5Zm6.66,12.69h-6.8V28.11l2.9,1a1.5,1.5,0,0,0,1,0l2.92-1Zm4.67-6.25a1.15,1.15,0,0,1-.26-.91l.53-3.42H45l.52,3.42a1.13,1.13,0,0,1-1.11,1.3h-.68A1.14,1.14,0,0,1,42.88,26.13Zm-.69,6.32a2,2,0,0,1,3.77,0Z"/>
</svg>