<svg xmlns="http://www.w3.org/2000/svg" viewBox="0 0 77.73 77.73">
	<defs>
		<style>
			.iconGreen {
				fill: hsl(125, 47%, 44%);
			}
		</style>
	</defs>
	<path class="iconGreen" d="M45.22,14.69a.62.62,0,0,0-.44-.19h-1v1.21h.35l-.07,1.07-1,.58a4.17,4.17,0,0,1-3.55.22V15.74h2.37V14.52H39.47V13.07l3-1.94-.65-1-3.28,2.13a.59.59,0,0,0-.28.51v1.8l-5.32,0a.64.64,0,0,0-.43.18.66.66,0,0,0-.17.47L33.5,33v0a.63.63,0,0,0,.63.61h9.4a.63.63,0,0,0,.59-.41h0l1.24-18h0A.6.6,0,0,0,45.22,14.69ZM43,32.45H34.67l-.84-13,1.26-.7c.12-.06.24-.09.35-.14a4.12,4.12,0,0,1,3.37,0A5,5,0,0,0,40,19a5.29,5.29,0,0,0,3.61-.57l.36-.2ZM38.26,17.18a5.32,5.32,0,0,0-3.75.53l-.76.42-.16-2.36,4.67,0Z"/>
	<path d="M7.66,49.83H6.4l-4-7.67v7.67H1.16V39.88H2.42l4,7.7v-7.7H7.66Z"/>
	<path d="M9.42,45.79a3.88,3.88,0,0,1,.78-2.55,2.55,2.55,0,0,1,2.07-.94,2.6,2.6,0,0,1,2.07.92,3.77,3.77,0,0,1,.8,2.49v.78A3.84,3.84,0,0,1,14.36,49a2.55,2.55,0,0,1-2.08.94,2.57,2.57,0,0,1-2.06-.91,3.78,3.78,0,0,1-.8-2.46Zm1.21.7a3.1,3.1,0,0,0,.45,1.79,1.38,1.38,0,0,0,1.2.66q1.61,0,1.65-2.31v-.84A3.14,3.14,0,0,0,13.48,44a1.4,1.4,0,0,0-1.21-.66,1.36,1.36,0,0,0-1.19.66,3.12,3.12,0,0,0-.45,1.79Z"/>
	<path d="M17.85,42.44l0,.8a2.15,2.15,0,0,1,1.8-.94c1.3,0,2,.87,2,2.62v4.91h-1.2V45a2,2,0,0,0-.29-1.23,1,1,0,0,0-.87-.37,1.23,1.23,0,0,0-.81.3,2.25,2.25,0,0,0-.58.79v5.37H16.71V42.44Z"/>
	<path d="M25.74,46.12H22.92v-1h2.82Z"/>
	<path d="M31.8,47.23H28.44l-.78,2.6H26.38l3.21-9.95h1.07l3.21,9.95H32.59Zm-3-1.07h2.72l-1.36-4.53Z"/>
	<path d="M36.37,49.83H35.16V39.33h1.21Z"/>
	<path d="M40.86,48.94a1.3,1.3,0,0,0,1-.37,1.6,1.6,0,0,0,.4-1.07h1.14a2.56,2.56,0,0,1-.75,1.77,2.4,2.4,0,0,1-1.75.7,2.57,2.57,0,0,1-2.1-.87A3.92,3.92,0,0,1,38,46.53v-.81a3.92,3.92,0,0,1,.72-2.55,2.56,2.56,0,0,1,2.09-.87,2.32,2.32,0,0,1,1.8.72,2.9,2.9,0,0,1,.71,2H42.22a2,2,0,0,0-.39-1.23,1.24,1.24,0,0,0-1-.41,1.4,1.4,0,0,0-1.2.53,3.13,3.13,0,0,0-.4,1.74v.94a3.28,3.28,0,0,0,.39,1.85A1.4,1.4,0,0,0,40.86,48.94Z"/>
	<path d="M44.52,45.79a3.88,3.88,0,0,1,.78-2.55,2.55,2.55,0,0,1,2.07-.94,2.58,2.58,0,0,1,2.06.92,3.78,3.78,0,0,1,.81,2.49v.78A3.84,3.84,0,0,1,49.46,49a2.78,2.78,0,0,1-4.14,0,3.73,3.73,0,0,1-.8-2.46Zm1.21.7a3.18,3.18,0,0,0,.44,1.79,1.39,1.39,0,0,0,1.21.66q1.6,0,1.65-2.31v-.84A3.14,3.14,0,0,0,48.58,44a1.4,1.4,0,0,0-1.21-.66,1.39,1.39,0,0,0-1.2.66,3.2,3.2,0,0,0-.44,1.79Z"/>
	<path d="M53,43.2a2.13,2.13,0,0,1,1.76-.9c1.31,0,2,.87,2,2.62v4.91h-1.2V45a2,2,0,0,0-.29-1.23,1.06,1.06,0,0,0-.87-.37,1.23,1.23,0,0,0-.81.3,2.25,2.25,0,0,0-.58.79v5.37H51.81V39.33H53Z"/>
	<path d="M58.33,45.79a3.88,3.88,0,0,1,.78-2.55,2.77,2.77,0,0,1,4.14,0,3.77,3.77,0,0,1,.8,2.49v.78A3.84,3.84,0,0,1,63.27,49a2.77,2.77,0,0,1-4.13,0,3.78,3.78,0,0,1-.81-2.46Zm1.21.7A3.1,3.1,0,0,0,60,48.28a1.39,1.39,0,0,0,1.21.66c1.06,0,1.61-.77,1.64-2.31v-.84A3.14,3.14,0,0,0,62.39,44,1.42,1.42,0,0,0,60,44a3.12,3.12,0,0,0-.45,1.79Z"/>
	<path d="M66.93,49.83H65.72V39.33h1.21Z"/>
	<path d="M70.25,40.47a.81.81,0,0,1-.17.52.78.78,0,0,1-1,0,.81.81,0,0,1-.17-.52A.8.8,0,0,1,69,40a.62.62,0,0,1,.52-.22.63.63,0,0,1,.51.22A.76.76,0,0,1,70.25,40.47Zm-.1,9.36H68.94V42.44h1.21Z"/>
	<path d="M74.64,48.94a1.3,1.3,0,0,0,1-.37A1.65,1.65,0,0,0,76,47.5h1.14a2.53,2.53,0,0,1-.76,1.77,2.38,2.38,0,0,1-1.74.7,2.57,2.57,0,0,1-2.1-.87,3.92,3.92,0,0,1-.72-2.57v-.81a3.92,3.92,0,0,1,.72-2.55,2.55,2.55,0,0,1,2.09-.87,2.32,2.32,0,0,1,1.8.72,2.9,2.9,0,0,1,.71,2H76a2,2,0,0,0-.4-1.23,1.22,1.22,0,0,0-1-.41,1.4,1.4,0,0,0-1.2.53,3,3,0,0,0-.4,1.74v.94a3.28,3.28,0,0,0,.39,1.85A1.38,1.38,0,0,0,74.64,48.94Z"/>
	<path d="M11.29,63.83V53.88h2.84a2.87,2.87,0,0,1,2,.66,2.69,2.69,0,0,1,.68,2,2.12,2.12,0,0,1-.35,1.23,2.3,2.3,0,0,1-.94.83,1.88,1.88,0,0,1,1.08.84,2.79,2.79,0,0,1,.4,1.53,2.91,2.91,0,0,1-.73,2.11,2.77,2.77,0,0,1-2.1.76Zm1.25-5.71h1.61a1.37,1.37,0,0,0,1-.43,1.71,1.71,0,0,0,.4-1.17,1.66,1.66,0,0,0-.36-1.19A1.51,1.51,0,0,0,14.13,55H12.54Zm0,1.06v3.58h1.71a1.44,1.44,0,0,0,1.13-.47A1.89,1.89,0,0,0,15.8,61c0-1.2-.51-1.8-1.52-1.8Z"/>
	<path d="M21.42,64a2.69,2.69,0,0,1-2.12-.82,3.54,3.54,0,0,1-.76-2.42v-.9a4.11,4.11,0,0,1,.73-2.59,2.38,2.38,0,0,1,2-.94,2.32,2.32,0,0,1,1.94.83,4.23,4.23,0,0,1,.66,2.57v.8H19.75v.17a2.7,2.7,0,0,0,.45,1.73,1.55,1.55,0,0,0,1.28.54,2.13,2.13,0,0,0,.94-.2,2.5,2.5,0,0,0,.77-.64l.62.76A2.73,2.73,0,0,1,21.42,64Zm-.14-6.63a1.3,1.3,0,0,0-1.12.51,3.19,3.19,0,0,0-.41,1.61h2.92v-.17a2.9,2.9,0,0,0-.38-1.5A1.17,1.17,0,0,0,21.28,57.34Z"/>
	<path d="M27.35,62l1.4-5.55H30l-2.19,7.39h-.91l-2.22-7.39h1.23Z"/>
	<path d="M33.9,64a2.69,2.69,0,0,1-2.12-.82A3.59,3.59,0,0,1,31,60.73v-.9a4.17,4.17,0,0,1,.72-2.59,2.38,2.38,0,0,1,2-.94,2.31,2.31,0,0,1,1.94.83,4.23,4.23,0,0,1,.66,2.57v.8H32.23v.17a2.7,2.7,0,0,0,.45,1.73,1.58,1.58,0,0,0,1.29.54,2.16,2.16,0,0,0,.94-.2,2.47,2.47,0,0,0,.76-.64l.63.76A2.76,2.76,0,0,1,33.9,64Zm-.14-6.63a1.27,1.27,0,0,0-1.11.51,3.09,3.09,0,0,0-.41,1.61h2.91v-.17a2.8,2.8,0,0,0-.38-1.5A1.17,1.17,0,0,0,33.76,57.34Z"/>
	<path d="M40.88,57.57a3.12,3.12,0,0,0-.55,0,1.33,1.33,0,0,0-1.3,1v5.29H37.82V56.44H39l0,.75a1.5,1.5,0,0,1,1.37-.89,1,1,0,0,1,.48.1Z"/>
	<path d="M45.63,63.83a2.68,2.68,0,0,1-.16-.8,1.91,1.91,0,0,1-1.64.94,2.15,2.15,0,0,1-1.57-.56,2.19,2.19,0,0,1-.56-1.59A2.23,2.23,0,0,1,42.46,60a3.13,3.13,0,0,1,2.1-.68h.89v-.79a1.29,1.29,0,0,0-.29-.94,1.26,1.26,0,0,0-.9-.28,1.28,1.28,0,0,0-.89.32,1.12,1.12,0,0,0-.34.83H41.82a1.94,1.94,0,0,1,.34-1.09,2.35,2.35,0,0,1,.9-.81,2.78,2.78,0,0,1,1.26-.29,2.43,2.43,0,0,1,1.73.56,2.21,2.21,0,0,1,.6,1.65v3.73a4.63,4.63,0,0,0,.24,1.48v.11Zm-1.61-1a1.52,1.52,0,0,0,.84-.25,1.5,1.5,0,0,0,.59-.61V60.24h-.68a2.27,2.27,0,0,0-1.36.39,1.24,1.24,0,0,0-.5,1,1.32,1.32,0,0,0,.25.91A1.11,1.11,0,0,0,44,62.87Z"/>
	<path d="M48.3,59.8a4.54,4.54,0,0,1,.63-2.62,2.11,2.11,0,0,1,1.84-.88,1.91,1.91,0,0,1,1.72,1l.06-.82h1.09V63.9a2.92,2.92,0,0,1-.7,2.11,2.6,2.6,0,0,1-2,.74,3.35,3.35,0,0,1-1.23-.27,2.7,2.7,0,0,1-1-.67l.49-.84a2.29,2.29,0,0,0,1.66.74c1,0,1.52-.55,1.55-1.64v-1a1.9,1.9,0,0,1-1.67.87A2.11,2.11,0,0,1,49,63.1a4.21,4.21,0,0,1-.67-2.48Zm1.21.69a3.56,3.56,0,0,0,.37,1.82,1.3,1.3,0,0,0,1.2.59A1.44,1.44,0,0,0,52.43,62V58.28a1.47,1.47,0,0,0-1.34-.91,1.32,1.32,0,0,0-1.2.59,3.45,3.45,0,0,0-.38,1.79Z"/>
	<path d="M58.1,64A2.69,2.69,0,0,1,56,63.15a3.59,3.59,0,0,1-.75-2.42v-.9A4.17,4.17,0,0,1,56,57.24a2.38,2.38,0,0,1,2-.94,2.29,2.29,0,0,1,1.94.83,4.23,4.23,0,0,1,.66,2.57v.8H56.43v.17a2.7,2.7,0,0,0,.45,1.73,1.58,1.58,0,0,0,1.29.54,2.16,2.16,0,0,0,.94-.2,2.47,2.47,0,0,0,.76-.64l.63.76A2.73,2.73,0,0,1,58.1,64ZM58,57.34a1.27,1.27,0,0,0-1.11.51,3.09,3.09,0,0,0-.41,1.61h2.91v-.17a2.8,2.8,0,0,0-.38-1.5A1.17,1.17,0,0,0,58,57.34Z"/>
	<path d="M65.62,61.94a.89.89,0,0,0-.3-.67,4.09,4.09,0,0,0-1.13-.66,7.82,7.82,0,0,1-1.38-.69,2.16,2.16,0,0,1-.6-.65A1.8,1.8,0,0,1,62,58.4a1.94,1.94,0,0,1,.66-1.5,2.69,2.69,0,0,1,3.42,0,2.16,2.16,0,0,1,.65,1.61h-1.2a1.21,1.21,0,0,0-.33-.85,1.16,1.16,0,0,0-.86-.35,1.2,1.2,0,0,0-.84.28.93.93,0,0,0-.3.73.81.81,0,0,0,.22.6,4.25,4.25,0,0,0,1.07.59,5.37,5.37,0,0,1,1.83,1,1.75,1.75,0,0,1,.49,1.28,1.94,1.94,0,0,1-.66,1.54,3,3,0,0,1-3.65-.08,2.21,2.21,0,0,1-.72-1.69H63a1.37,1.37,0,0,0,.38,1,1.38,1.38,0,0,0,1,.35,1.34,1.34,0,0,0,.91-.27A.91.91,0,0,0,65.62,61.94Z"/>
</svg>