<svg xmlns="http://www.w3.org/2000/svg" viewBox="0 0 77.73 77.73">
	<defs>
		<style>
			.iconGreen {
				fill: hsl(125, 47%, 44%);
			}
		</style>
	</defs>
	<path class="iconGreen" d="M53.28,24.63h0c-1.16-1.56-4.34-5.25-9.06-6.17A7.29,7.29,0,0,0,35,15.75a.7.7,0,0,0-.36.41.7.7,0,0,0,0,.55,7.51,7.51,0,0,0,2.49,2.6,16.27,16.27,0,0,0-5.39,4.1,7.31,7.31,0,0,0-1.88-3.27A7.43,7.43,0,0,0,25,18h0a.67.67,0,0,0-.48.2.7.7,0,0,0-.2.51,7.33,7.33,0,0,0,2.13,4.87A7.25,7.25,0,0,0,28.51,25a7,7,0,0,0-2.06,1.44,7.33,7.33,0,0,0-2.13,4.87.7.7,0,0,0,.2.51.73.73,0,0,0,.5.2h0a7.43,7.43,0,0,0,4.87-2.13,7.31,7.31,0,0,0,1.88-3.27,17.05,17.05,0,0,0,4,3.36,5,5,0,0,0-1.59,2.2.7.7,0,0,0,0,.55.71.71,0,0,0,.43.35,5.23,5.23,0,0,0,1.31.17,4.86,4.86,0,0,0,2.25-.55,4.76,4.76,0,0,0,1.47-1.17,12,12,0,0,0,1.86.24h0a.69.69,0,0,0,0-1.37C37,30.25,33.76,27,32.2,25c1.62-2.05,5-5.41,9.83-5.41A10.62,10.62,0,0,1,47,20.86a7.15,7.15,0,0,0-1.39,4.68,7.28,7.28,0,0,0,1.38,3.67,11.08,11.08,0,0,1-1.17.53.63.63,0,0,0-.37.36.67.67,0,0,0,0,.52.69.69,0,0,0,.89.39,16.61,16.61,0,0,0,7-5.57A.68.68,0,0,0,53.28,24.63ZM51.86,25a16.61,16.61,0,0,1-3.73,3.47,5.94,5.94,0,0,1-1.2-3.08,5.8,5.8,0,0,1,1.21-3.87A16.54,16.54,0,0,1,51.86,25Zm-9.54-6.78a11.81,11.81,0,0,0-3.38.41,5.87,5.87,0,0,1-2.62-2,5.83,5.83,0,0,1,6,1.55ZM30.57,25.81a5.91,5.91,0,0,1-4.79,4.79,5.84,5.84,0,0,1,4.79-4.79Zm0-1.55a5.84,5.84,0,0,1-4.79-4.79,5.91,5.91,0,0,1,4.79,4.79Zm7,7.27a3.65,3.65,0,0,1-1.71.39,3.48,3.48,0,0,1,1.29-1.17c.34.15.67.28,1,.4a3.87,3.87,0,0,1-.58.38Z"/>
	<path class="iconGreen" d="M43.84,30.3a.68.68,0,1,0,.68.68A.68.68,0,0,0,43.84,30.3Z"/>
	<path class="iconGreen" d="M49.48,24.35a.69.69,0,1,0,.68.69A.69.69,0,0,0,49.48,24.35Z"/>
	<path d="M33,45.12H29.63v4.4H28.37v-10h5.19v1.07H29.63v3.41H33Z"/>
	<path d="M36.35,40.16a.77.77,0,0,1-.17.51.75.75,0,0,1-1,0,.77.77,0,0,1-.17-.51.83.83,0,0,1,.17-.52.64.64,0,0,1,.52-.21.6.6,0,0,1,.51.22A.76.76,0,0,1,36.35,40.16Zm-.1,9.36H35v-7.4h1.21Z"/>
	<path d="M41.76,47.63a.9.9,0,0,0-.29-.67,4.36,4.36,0,0,0-1.14-.66A7.82,7.82,0,0,1,39,45.61a2,2,0,0,1-.59-.65,1.75,1.75,0,0,1-.2-.87,2,2,0,0,1,.66-1.51A2.44,2.44,0,0,1,40.5,42a2.42,2.42,0,0,1,1.74.63,2.11,2.11,0,0,1,.65,1.61h-1.2a1.19,1.19,0,0,0-.33-.85A1.12,1.12,0,0,0,40.5,43a1.25,1.25,0,0,0-.84.27,1,1,0,0,0-.3.74.78.78,0,0,0,.22.59,3.89,3.89,0,0,0,1.07.6,5.21,5.21,0,0,1,1.83,1A1.73,1.73,0,0,1,43,47.54a2,2,0,0,1-.66,1.54,2.65,2.65,0,0,1-1.78.58A2.62,2.62,0,0,1,38.66,49a2.18,2.18,0,0,1-.72-1.68h1.22a1.35,1.35,0,0,0,.37,1,1.38,1.38,0,0,0,1,.34,1.33,1.33,0,0,0,.92-.27A.9.9,0,0,0,41.76,47.63Z"/>
	<path d="M45.77,42.88A2.13,2.13,0,0,1,47.53,42c1.31,0,2,.87,2,2.62v4.91h-1.2V44.66A2,2,0,0,0,48,43.43a1.05,1.05,0,0,0-.88-.37,1.23,1.23,0,0,0-.81.3,2,2,0,0,0-.57.79v5.37H44.56V39h1.21Z"/>
</svg>