<svg xmlns="http://www.w3.org/2000/svg" viewBox="0 0 77.73 77.73">
	<defs>
		<style>
			.iconGreen {
				fill: hsl(125, 47%, 44%);
			}
		</style>
	</defs>
	<path class="iconGreen" d="M47.39,13.66l2.19-1.76-.83-1-2.24,1.79V10.72H45.19v1.94L43,10.87l-.83,1,2.19,1.76a4.34,4.34,0,0,0-2.8,4.4l.22,3.26a4.47,4.47,0,0,0-5.18-.84,3.78,3.78,0,0,0-.33-1.38,4.45,4.45,0,0,0,.5,0,2.94,2.94,0,0,0,1.58-.46,6.1,6.1,0,0,0,2.08-3l.19-.48-.51-.06a5.16,5.16,0,0,0-4.12,1,2.87,2.87,0,0,0-.86,1.47,3.89,3.89,0,0,0-2.51-.92V18a2.66,2.66,0,0,1,2.65,2.47A4.58,4.58,0,0,0,29.43,22a7.88,7.88,0,0,0,0,9.26,5.77,5.77,0,0,0,6.49,1.61A5.55,5.55,0,0,0,42.55,31a3.53,3.53,0,0,0,6.82-1l.82-12A4.34,4.34,0,0,0,47.39,13.66ZM36.48,16.71a4.13,4.13,0,0,1,3-.85A4.74,4.74,0,0,1,37.87,18a2.35,2.35,0,0,1-2.09.17A2.14,2.14,0,0,1,36.48,16.71ZM38.55,32c-.79,0-1.81-.54-2.63-.54S34,32,33.24,32c-2.2,0-4-2.38-4-5.31s1.79-5.31,4-5.31c.79,0,1.92.65,2.65.67s1.87-.67,2.66-.67a3.91,3.91,0,0,1,3.35,2.46l.34,4.85C41.62,30.63,40.15,32,38.55,32Zm10-10H46.51v1.33h2l-.27,4H46.51v1.33h1.63l-.09,1.29a2.21,2.21,0,0,1-4.4,0L43.38,26h1.81V24.65h-1.9l-.27-4h2.17V19.34H42.93c0-.48,0-.21-.1-1.38a3,3,0,1,1,6,0Z"/>
	<path d="M26.84,45.12H23.47v4.39H22.22V39.56H27.4v1.07H23.47V44h3.37Z"/>
	<path d="M31.67,43.25a3.12,3.12,0,0,0-.55,0,1.33,1.33,0,0,0-1.3,1v5.29H28.61V42.12h1.18l0,.75A1.49,1.49,0,0,1,31.18,42a1.08,1.08,0,0,1,.48.09Z"/>
	<path d="M36.66,48.86a2.07,2.07,0,0,1-1.76.79A1.75,1.75,0,0,1,33.39,49a3.34,3.34,0,0,1-.52-2V42.12h1.2v4.73c0,1.15.35,1.73,1,1.73a1.52,1.52,0,0,0,1.52-1V42.12h1.21v7.39H36.69Z"/>
	<path d="M41.07,40.15a.81.81,0,0,1-.17.52.66.66,0,0,1-.52.2.63.63,0,0,1-.51-.2.76.76,0,0,1-.17-.52.79.79,0,0,1,.17-.52.61.61,0,0,1,.51-.21.62.62,0,0,1,.52.22A.8.8,0,0,1,41.07,40.15ZM41,49.51H39.76V42.12H41Z"/>
	<path d="M44.47,40.32v1.8h1.12v1H44.47v4.6a1.19,1.19,0,0,0,.15.66.53.53,0,0,0,.49.23,1.46,1.46,0,0,0,.49-.09l0,1a2.64,2.64,0,0,1-.84.14,1.27,1.27,0,0,1-1.09-.51,2.45,2.45,0,0,1-.38-1.45v-4.6H42.14v-1h1.13v-1.8Z"/>
	<path d="M50.06,46.84a2.55,2.55,0,0,1,.34-1.3,5.4,5.4,0,0,1,1.29-1.39,6.68,6.68,0,0,1-.76-1.3,2.65,2.65,0,0,1-.21-1,2.54,2.54,0,0,1,.58-1.78,2,2,0,0,1,1.57-.64,2,2,0,0,1,1.48.6,2.08,2.08,0,0,1,.58,1.51,2.44,2.44,0,0,1-.23,1.08,3.17,3.17,0,0,1-.82,1l-.7.6,1.75,2.52a5,5,0,0,0,.32-1.83h1.08a5.24,5.24,0,0,1-.7,2.84l1.22,1.75H55.4l-.51-.73a2.85,2.85,0,0,1-.94.64,3,3,0,0,1-1.15.23,2.61,2.61,0,0,1-2-.78A2.81,2.81,0,0,1,50.06,46.84Zm2.74,1.78a2,2,0,0,0,1.47-.76L52.3,45l-.21.17a2.3,2.3,0,0,0-.83,1.68,1.93,1.93,0,0,0,.41,1.28A1.4,1.4,0,0,0,52.8,48.62Zm-.88-6.82a1.8,1.8,0,0,0,.18.76,9.58,9.58,0,0,0,.48.83l.53-.45a2,2,0,0,0,.57-.65,1.75,1.75,0,0,0,.15-.76,1.07,1.07,0,0,0-.28-.76.86.86,0,0,0-.69-.31.8.8,0,0,0-.69.38A1.72,1.72,0,0,0,51.92,41.8Z"/>
	<path d="M12,61.59l2.28-8h1.37L12.6,63.51H11.5L8.41,53.56H9.78Z"/>
	<path d="M19.53,63.65a2.7,2.7,0,0,1-2.12-.83,3.54,3.54,0,0,1-.75-2.41v-.9a4.15,4.15,0,0,1,.72-2.59,2.38,2.38,0,0,1,2-.94,2.27,2.27,0,0,1,1.94.83A4.23,4.23,0,0,1,22,59.38v.8H17.86v.17a2.7,2.7,0,0,0,.45,1.73,1.58,1.58,0,0,0,1.29.54,2,2,0,0,0,.94-.21,2.3,2.3,0,0,0,.76-.63l.63.76A2.76,2.76,0,0,1,19.53,63.65ZM19.39,57a1.27,1.27,0,0,0-1.11.51,3.09,3.09,0,0,0-.41,1.61h2.91V59a2.8,2.8,0,0,0-.38-1.5A1.17,1.17,0,0,0,19.39,57Z"/>
	<path d="M23.21,59.48a4.52,4.52,0,0,1,.63-2.62A2.11,2.11,0,0,1,25.68,56a1.9,1.9,0,0,1,1.72,1l.06-.82h1.09v7.46a2.92,2.92,0,0,1-.7,2.11,2.59,2.59,0,0,1-2,.73,3.35,3.35,0,0,1-1.23-.27,2.65,2.65,0,0,1-1-.66l.49-.84a2.29,2.29,0,0,0,1.66.74c1,0,1.53-.55,1.55-1.65v-1a1.9,1.9,0,0,1-1.67.87,2.11,2.11,0,0,1-1.79-.87,4.28,4.28,0,0,1-.67-2.48Zm1.21.69A3.56,3.56,0,0,0,24.79,62a1.3,1.3,0,0,0,1.2.59,1.44,1.44,0,0,0,1.35-.93V58A1.45,1.45,0,0,0,26,57.05a1.32,1.32,0,0,0-1.2.59,3.43,3.43,0,0,0-.38,1.79Z"/>
	<path d="M33,63.65a2.7,2.7,0,0,1-2.12-.83,3.54,3.54,0,0,1-.75-2.41v-.9a4.15,4.15,0,0,1,.72-2.59,2.38,2.38,0,0,1,2-.94,2.27,2.27,0,0,1,1.94.83,4.23,4.23,0,0,1,.66,2.57v.8H31.34v.17a2.7,2.7,0,0,0,.45,1.73,1.58,1.58,0,0,0,1.29.54,2,2,0,0,0,.94-.21,2.3,2.3,0,0,0,.76-.63l.63.76A2.73,2.73,0,0,1,33,63.65ZM32.87,57a1.27,1.27,0,0,0-1.11.51,3.09,3.09,0,0,0-.41,1.61h2.91V59a2.8,2.8,0,0,0-.38-1.5A1.17,1.17,0,0,0,32.87,57Z"/>
	<path d="M38.52,54.32v1.8h1.11v1H38.52v4.6a1.3,1.3,0,0,0,.14.66.55.55,0,0,0,.5.23,1.36,1.36,0,0,0,.48-.09v1a2.74,2.74,0,0,1-.84.14,1.28,1.28,0,0,1-1.1-.51,2.45,2.45,0,0,1-.37-1.45v-4.6H36.19v-1h1.13v-1.8Z"/>
	<path d="M44.89,63.51a3.05,3.05,0,0,1-.16-.8,1.92,1.92,0,0,1-1.64.94,2.12,2.12,0,0,1-1.57-.57A2.14,2.14,0,0,1,41,61.5a2.27,2.27,0,0,1,.77-1.8A3.15,3.15,0,0,1,43.82,59h.89v-.79a1.23,1.23,0,0,0-.29-.94,1.47,1.47,0,0,0-1.78,0,1.09,1.09,0,0,0-.35.83H41.08a2,2,0,0,1,.34-1.09,2.35,2.35,0,0,1,.9-.81A2.79,2.79,0,0,1,43.59,56a2.42,2.42,0,0,1,1.72.56,2.21,2.21,0,0,1,.61,1.65v3.73a4.38,4.38,0,0,0,.23,1.48v.11Zm-1.61-1a1.58,1.58,0,0,0,.85-.25,1.54,1.54,0,0,0,.58-.61V59.92H44a2.29,2.29,0,0,0-1.36.39,1.24,1.24,0,0,0-.5,1,1.37,1.37,0,0,0,.25.91A1.11,1.11,0,0,0,43.28,62.55Z"/>
	<path d="M53.16,60.17a4.44,4.44,0,0,1-.62,2.6,2,2,0,0,1-1.8.88,1.93,1.93,0,0,1-1.77-1l-.06.87h-1.1V53H49v3.92a1.9,1.9,0,0,1,1.71-1,2.11,2.11,0,0,1,1.83.86,4.55,4.55,0,0,1,.61,2.6ZM52,59.48a3.48,3.48,0,0,0-.37-1.87,1.3,1.3,0,0,0-1.18-.56,1.49,1.49,0,0,0-1.4,1v3.52a1.49,1.49,0,0,0,1.41,1A1.29,1.29,0,0,0,51.6,62,3.51,3.51,0,0,0,52,60.22Z"/>
	<path d="M56,63.51H54.82V53H56Z"/>
	<path d="M60.59,63.65a2.7,2.7,0,0,1-2.12-.83,3.54,3.54,0,0,1-.75-2.41v-.9a4.15,4.15,0,0,1,.72-2.59,2.38,2.38,0,0,1,2-.94,2.28,2.28,0,0,1,1.94.83,4.23,4.23,0,0,1,.66,2.57v.8H58.92v.17a2.7,2.7,0,0,0,.45,1.73,1.58,1.58,0,0,0,1.29.54,2.06,2.06,0,0,0,.94-.21,2.3,2.3,0,0,0,.76-.63l.63.76A2.76,2.76,0,0,1,60.59,63.65ZM60.45,57a1.27,1.27,0,0,0-1.11.51,3.09,3.09,0,0,0-.41,1.61h2.91V59a2.8,2.8,0,0,0-.38-1.5A1.17,1.17,0,0,0,60.45,57Z"/>
	<path d="M68.11,61.62a.87.87,0,0,0-.3-.67,4.09,4.09,0,0,0-1.13-.66,7.82,7.82,0,0,1-1.38-.69,2,2,0,0,1-.6-.65,1.83,1.83,0,0,1-.19-.87,1.93,1.93,0,0,1,.65-1.5,2.7,2.7,0,0,1,3.43,0,2.15,2.15,0,0,1,.65,1.61H68a1.16,1.16,0,0,0-.34-.85,1.09,1.09,0,0,0-.85-.35,1.23,1.23,0,0,0-.84.27,1,1,0,0,0-.3.74.81.81,0,0,0,.22.6,4.25,4.25,0,0,0,1.07.59,5.21,5.21,0,0,1,1.83,1,1.75,1.75,0,0,1,.49,1.28,1.93,1.93,0,0,1-.67,1.54,2.57,2.57,0,0,1-1.77.58A2.68,2.68,0,0,1,65,63a2.24,2.24,0,0,1-.71-1.69H65.5a1.26,1.26,0,0,0,1.38,1.32,1.35,1.35,0,0,0,.91-.27A.93.93,0,0,0,68.11,61.62Z"/>
</svg>