<svg xmlns="http://www.w3.org/2000/svg" viewBox="0 0 77.73 77.73">
	<defs>
		<style>
			.iconGreen {
				fill: hsl(125, 47%, 44%);
			}
		</style>
	</defs>
	<path class="iconGreen" d="M51.93,23.38l-1.82-.79-1.54-4.38a2.41,2.41,0,0,0-2.18-1.32H43.73V14.07A2.45,2.45,0,0,0,41.3,11.6H26.54a2.45,2.45,0,0,0-2.43,2.47V29a1.5,1.5,0,0,0,1.48,1.52h.34c0,.06,0,.08,0,.12a3.09,3.09,0,0,0,6.17,0v0a.57.57,0,0,0,0-.12H44.4v.12a3.09,3.09,0,1,0,6.17,0v-.15h.76a1.5,1.5,0,0,0,1.5-1.5V24.76A1.49,1.49,0,0,0,51.93,23.38ZM29,32.55a1.9,1.9,0,1,1,1.89-1.89A1.89,1.89,0,0,1,29,32.55Zm13.53-3.21H31.8a3.08,3.08,0,0,0-5.58,0h-.61A.31.31,0,0,1,25.3,29V26H42.54Zm0-15.27V24.76H25.3V14.07a1.25,1.25,0,0,1,1.24-1.27H41.3a1.26,1.26,0,0,1,1.24,1.27Zm1.19,4h2.66a1.26,1.26,0,0,1,1.13.68l1.19,3.68h-5Zm3.76,14.47a1.9,1.9,0,1,1,1.89-1.89A1.89,1.89,0,0,1,47.49,32.55ZM51.65,29a.31.31,0,0,1-.31.33H50.28a3.08,3.08,0,0,0-5.58,0h-1V23.63h5.84l1.89.83a.36.36,0,0,1,.19.32Z"/>
	<path d="M17.69,49.51V39.56h2.38a3.4,3.4,0,0,1,2.7,1.09,4.43,4.43,0,0,1,1,3.06v1.67a4.37,4.37,0,0,1-1,3,3.63,3.63,0,0,1-2.84,1.08Zm1.25-8.88v7.81h1a2.32,2.32,0,0,0,1.93-.76,3.6,3.6,0,0,0,.62-2.24V43.68a3.57,3.57,0,0,0-.61-2.31,2.22,2.22,0,0,0-1.82-.74Z"/>
	<path d="M28.17,49.65a2.71,2.71,0,0,1-2.12-.83,3.56,3.56,0,0,1-.75-2.41v-.9A4.15,4.15,0,0,1,26,42.92,2.4,2.4,0,0,1,28,42,2.31,2.31,0,0,1,30,42.8a4.2,4.2,0,0,1,.65,2.58v.79H26.51v.18A2.72,2.72,0,0,0,27,48.08a1.58,1.58,0,0,0,1.29.54,2,2,0,0,0,.94-.21,2.13,2.13,0,0,0,.76-.64l.63.77A2.73,2.73,0,0,1,28.17,49.65ZM28,43a1.28,1.28,0,0,0-1.12.51,3.09,3.09,0,0,0-.41,1.61h2.91V45a2.72,2.72,0,0,0-.38-1.5A1.15,1.15,0,0,0,28,43Z"/>
	<path d="M33.4,49.51H32.19V39H33.4Z"/>
	<path d="M36.72,40.15a.77.77,0,0,1-.17.51.64.64,0,0,1-.52.21.61.61,0,0,1-.51-.21.72.72,0,0,1-.18-.51.78.78,0,0,1,.18-.52.61.61,0,0,1,.51-.21.59.59,0,0,1,.51.22A.76.76,0,0,1,36.72,40.15Zm-.1,9.36H35.41v-7.4h1.21Z"/>
	<path d="M40.64,47.67,42,42.11h1.23l-2.2,7.4h-.9L38,42.11h1.23Z"/>
	<path d="M47.19,49.65a2.68,2.68,0,0,1-2.12-.83,3.51,3.51,0,0,1-.76-2.41v-.9A4.09,4.09,0,0,1,45,42.92a2.38,2.38,0,0,1,2-.94A2.31,2.31,0,0,1,49,42.8a4.26,4.26,0,0,1,.66,2.58v.79H45.52v.18A2.78,2.78,0,0,0,46,48.08a1.58,1.58,0,0,0,1.29.54,2,2,0,0,0,.94-.21,2.25,2.25,0,0,0,.77-.64l.62.77A2.73,2.73,0,0,1,47.19,49.65ZM47.05,43a1.3,1.3,0,0,0-1.12.51,3.19,3.19,0,0,0-.41,1.61h2.92V45a2.9,2.9,0,0,0-.38-1.5A1.17,1.17,0,0,0,47.05,43Z"/>
	<path d="M54.17,43.25a3.21,3.21,0,0,0-.55,0,1.33,1.33,0,0,0-1.3,1v5.29H51.11v-7.4h1.18l0,.76A1.49,1.49,0,0,1,53.68,42a1.14,1.14,0,0,1,.48.09Z"/>
	<path d="M57.41,47.5l1.34-5.39H60l-2.42,8.45A3.27,3.27,0,0,1,56.85,52a1.61,1.61,0,0,1-1.14.5,2.6,2.6,0,0,1-.63-.11v-1l.27,0a1.22,1.22,0,0,0,.82-.25,1.74,1.74,0,0,0,.48-.86l.24-.83-2.17-7.34H56Z"/>
</svg>