<svg xmlns="http://www.w3.org/2000/svg" viewBox="0 0 77.73 77.73">
	<defs>
		<style>
			.iconGreen {
				fill: hsl(125, 47%, 44%);
			}
		</style>
	</defs>
	<path class="iconGreen" d="M44.59,16.83h.08a2.21,2.21,0,0,0,2.21-2.21V14.3H45.3a2.22,2.22,0,0,0-1.72.82,2.22,2.22,0,0,0-2.07-1.45h-.32v.95a2.22,2.22,0,0,0,1.32,2c-.23.15-.5.34-.8.57a9.43,9.43,0,0,0-5.55-2.59l-.34,0v.35a9.67,9.67,0,0,1-.49,3,9.53,9.53,0,0,0-.46,2.74c0,.08,0,.16,0,.24a11.13,11.13,0,0,0-3,2.15c-4.61,4.61-2.57,9.55-2.54,9.6l0,.12.11,0a7.77,7.77,0,0,0,2.78.47,9.48,9.48,0,0,0,6.82-3c.16-.16.32-.33.47-.5a8.49,8.49,0,0,0,3.71,3.51l.12,0,.11,0s4.94-2.05,4.94-8.52a9.17,9.17,0,0,0-3.87-7.9Zm.71-1.89h.92a1.59,1.59,0,0,1-1.55,1.26h-.92A1.59,1.59,0,0,1,45.3,14.94Zm-3.48-.32v-.28a1.57,1.57,0,0,1,1.27,1.54v.29A1.6,1.6,0,0,1,41.82,14.62Zm-5.88,3.45a10.57,10.57,0,0,0,.5-2.77,8.55,8.55,0,0,1,4.79,2.33,8.83,8.83,0,0,0-1.59,2c-.11-.21-.22-.41-.34-.61l.31-2.13L39,16.79l-.19,1.37C38,16.92,37.35,16,37.34,16l-.51.38a35.31,35.31,0,0,1,2,3,11,11,0,0,0-2.3-.67l-.1.63a9.1,9.1,0,0,1,2.86,1,10,10,0,0,0-.9,3.8c-1.68-.79-2.86-2.22-2.86-3.52a8.75,8.75,0,0,1,.44-2.56Zm2.72,11.72c-3.9,3.91-8,2.73-8.78,2.46-.26-.75-1.46-4.86,2.46-8.78a10.35,10.35,0,0,1,2.67-2,5.69,5.69,0,0,0,3.34,3.33,10.07,10.07,0,0,0,.92,4.3c-.19.22-.39.44-.61.65Zm4.75,2.82C42.7,32.27,39,30.23,39,24.73s3.69-7.53,4.42-7.87c.71.34,4.43,2.38,4.43,7.87S44.14,32.27,43.41,32.61Z"/>
	<path class="iconGreen" d="M44.76,25a3.48,3.48,0,0,1,.86,2.3h.63a4.09,4.09,0,0,0-1-2.75Z"/>
	<path class="iconGreen" d="M43.5,29.57,44,30a3.66,3.66,0,0,0,1-2.12h-.64a3,3,0,0,1-.85,1.67Z"/>
	<path class="iconGreen" d="M35.64,30.52l.3.55q.29-.15.57-.33l-.35-.53-.52.31Z"/>
	<path class="iconGreen" d="M37.77,28.9l-.17.17.44.45.18-.17.27-.29L38,28.63l-.26.27Z"/>
	<path class="iconGreen" d="M36.67,29.86l.37.51c.18-.13.35-.27.51-.41l-.41-.48-.47.38Z"/>
	<path class="iconGreen" d="M34.06,24.52l-.45-.44,0,0A8.36,8.36,0,0,0,30.9,30h.64A7.69,7.69,0,0,1,34,24.55Z"/>
	<path d="M13.37,49.53H12.11l-4-7.67v7.67H6.87v-10H8.13l4,7.71V39.57h1.24Z"/>
	<path d="M19.16,48.88a2.09,2.09,0,0,1-1.76.78A1.77,1.77,0,0,1,15.88,49a3.45,3.45,0,0,1-.52-2V42.13h1.21v4.73c0,1.15.34,1.73,1,1.73a1.52,1.52,0,0,0,1.52-1V42.13h1.21v7.4H19.18Z"/>
	<path d="M23.75,40.34v1.79h1.11v1H23.75V47.7a1.3,1.3,0,0,0,.14.66.53.53,0,0,0,.5.23,1.61,1.61,0,0,0,.48-.08v1a2.72,2.72,0,0,1-.84.13,1.28,1.28,0,0,1-1.1-.51,2.41,2.41,0,0,1-.37-1.45V43.11H21.42v-1h1.13V40.34Z"/>
	<path d="M29.91,47.63a.92.92,0,0,0-.29-.67,4.72,4.72,0,0,0-1.14-.65,7.82,7.82,0,0,1-1.38-.69,1.93,1.93,0,0,1-.59-.66,1.7,1.7,0,0,1-.2-.87,1.94,1.94,0,0,1,.66-1.5,2.69,2.69,0,0,1,3.42,0A2.13,2.13,0,0,1,31,44.24h-1.2a1.22,1.22,0,0,0-.33-.86,1.16,1.16,0,0,0-.86-.35,1.2,1.2,0,0,0-.84.28,1,1,0,0,0-.3.74.8.8,0,0,0,.22.59,4,4,0,0,0,1.07.59,5.55,5.55,0,0,1,1.83,1,1.77,1.77,0,0,1,.49,1.28,2,2,0,0,1-.66,1.55A3,3,0,0,1,26.81,49a2.18,2.18,0,0,1-.72-1.68h1.22a1.31,1.31,0,0,0,.37,1,1.34,1.34,0,0,0,1,.35,1.38,1.38,0,0,0,.92-.27A.94.94,0,0,0,29.91,47.63Z"/>
	<path d="M32.72,51.51,32,51a3.3,3.3,0,0,0,.67-1.85V48h1.24v1a3.05,3.05,0,0,1-.34,1.38A3.22,3.22,0,0,1,32.72,51.51Z"/>
	<path d="M43.21,47a1.51,1.51,0,0,0-.41-1.14,4.18,4.18,0,0,0-1.45-.77,6.5,6.5,0,0,1-1.61-.79,2.89,2.89,0,0,1-.84-1,2.82,2.82,0,0,1,.52-3.16,2.82,2.82,0,0,1,2.06-.76,3.06,3.06,0,0,1,1.56.39,2.69,2.69,0,0,1,1.06,1.08,3.32,3.32,0,0,1,.36,1.53H43.21A2.05,2.05,0,0,0,42.76,41a1.59,1.59,0,0,0-1.28-.51,1.55,1.55,0,0,0-1.17.43,1.6,1.6,0,0,0-.42,1.19,1.38,1.38,0,0,0,.45,1,4,4,0,0,0,1.4.76,4.78,4.78,0,0,1,2.1,1.2A2.69,2.69,0,0,1,44.47,47a2.55,2.55,0,0,1-.78,1.94,3.06,3.06,0,0,1-2.14.72,3.38,3.38,0,0,1-1.61-.38,2.8,2.8,0,0,1-1.15-1.06,3,3,0,0,1-.42-1.58h1.25a2,2,0,0,0,.52,1.44,1.91,1.91,0,0,0,1.41.51,1.68,1.68,0,0,0,1.24-.42A1.59,1.59,0,0,0,43.21,47Z"/>
	<path d="M48.6,49.66a2.69,2.69,0,0,1-2.12-.82,3.59,3.59,0,0,1-.75-2.42v-.89a4.2,4.2,0,0,1,.72-2.6,2.41,2.41,0,0,1,2-.94,2.33,2.33,0,0,1,1.95.83,4.32,4.32,0,0,1,.65,2.58v.79H46.93v.17a2.7,2.7,0,0,0,.45,1.73,1.58,1.58,0,0,0,1.29.54,2.16,2.16,0,0,0,.94-.2,2.34,2.34,0,0,0,.76-.64l.63.77A2.75,2.75,0,0,1,48.6,49.66ZM48.46,43a1.25,1.25,0,0,0-1.11.52,3,3,0,0,0-.41,1.6h2.91V45a2.85,2.85,0,0,0-.38-1.51A1.16,1.16,0,0,0,48.46,43Z"/>
	<path d="M55.17,49.66a2.69,2.69,0,0,1-2.12-.82,3.59,3.59,0,0,1-.75-2.42v-.89a4.2,4.2,0,0,1,.72-2.6A2.41,2.41,0,0,1,55,42a2.29,2.29,0,0,1,1.94.83,4.24,4.24,0,0,1,.66,2.58v.79H53.5v.17A2.7,2.7,0,0,0,54,48.09a1.58,1.58,0,0,0,1.29.54,2.16,2.16,0,0,0,.94-.2,2.34,2.34,0,0,0,.76-.64l.63.77A2.75,2.75,0,0,1,55.17,49.66ZM55,43a1.25,1.25,0,0,0-1.11.52,3,3,0,0,0-.41,1.6h2.91V45A2.85,2.85,0,0,0,56,43.48,1.17,1.17,0,0,0,55,43Z"/>
	<path d="M58.84,45.49a4.42,4.42,0,0,1,.64-2.6,2.12,2.12,0,0,1,1.84-.9,1.9,1.9,0,0,1,1.65.87V39h1.21v10.5H63.07l-.06-.8a1.9,1.9,0,0,1-1.7.93,2.08,2.08,0,0,1-1.8-.89,4.22,4.22,0,0,1-.67-2.52Zm1.21.69A3.48,3.48,0,0,0,60.42,48a1.32,1.32,0,0,0,1.2.58A1.43,1.43,0,0,0,63,47.68V44a1.45,1.45,0,0,0-1.34-.88,1.29,1.29,0,0,0-1.2.58,3.48,3.48,0,0,0-.38,1.79Z"/>
	<path d="M69.65,47.63a.92.92,0,0,0-.29-.67,4.72,4.72,0,0,0-1.14-.65,7.82,7.82,0,0,1-1.38-.69,1.93,1.93,0,0,1-.59-.66,1.7,1.7,0,0,1-.2-.87,1.94,1.94,0,0,1,.66-1.5,2.69,2.69,0,0,1,3.42,0,2.13,2.13,0,0,1,.65,1.62h-1.2a1.22,1.22,0,0,0-.33-.86,1.16,1.16,0,0,0-.86-.35,1.2,1.2,0,0,0-.84.28,1,1,0,0,0-.3.74.8.8,0,0,0,.22.59,4,4,0,0,0,1.07.59,5.55,5.55,0,0,1,1.83,1,1.77,1.77,0,0,1,.49,1.28,2,2,0,0,1-.66,1.55A3,3,0,0,1,66.55,49a2.18,2.18,0,0,1-.72-1.68H67a1.36,1.36,0,0,0,.38,1,1.34,1.34,0,0,0,1,.35,1.38,1.38,0,0,0,.92-.27A.94.94,0,0,0,69.65,47.63Z"/>
	<path d="M17.53,60.85a2.55,2.55,0,0,1,.34-1.3,5.38,5.38,0,0,1,1.29-1.39,7.06,7.06,0,0,1-.77-1.3,2.86,2.86,0,0,1,.38-2.78,2,2,0,0,1,1.57-.64,2,2,0,0,1,1.48.6,2.06,2.06,0,0,1,.58,1.5,2.48,2.48,0,0,1-.23,1.09,3.14,3.14,0,0,1-.82,1l-.7.6,1.75,2.53a5.11,5.11,0,0,0,.32-1.84H23.8a5.28,5.28,0,0,1-.7,2.85l1.22,1.75H22.87l-.51-.73a3,3,0,0,1-2.09.86,2.65,2.65,0,0,1-2-.78A2.83,2.83,0,0,1,17.53,60.85Zm2.74,1.78a2,2,0,0,0,1.47-.75l-2-2.88-.2.17a2.34,2.34,0,0,0-.83,1.68,2,2,0,0,0,.41,1.29A1.39,1.39,0,0,0,20.27,62.63Zm-.88-6.81a1.75,1.75,0,0,0,.18.75,8.29,8.29,0,0,0,.48.83l.53-.45a1.94,1.94,0,0,0,.57-.65,1.72,1.72,0,0,0,.15-.76,1.13,1.13,0,0,0-.28-.76.89.89,0,0,0-.69-.3.77.77,0,0,0-.69.38A1.67,1.67,0,0,0,19.39,55.82Z"/>
	<path d="M35.26,63.53H34v-4.6H30v4.6H28.74v-10H30v4.28h4V53.57h1.26Z"/>
	<path d="M39.91,63.66a2.69,2.69,0,0,1-2.12-.82A3.59,3.59,0,0,1,37,60.42v-.89a4.2,4.2,0,0,1,.72-2.6,2.41,2.41,0,0,1,2-.94,2.33,2.33,0,0,1,1.95.83,4.32,4.32,0,0,1,.65,2.58v.79H38.24v.17a2.7,2.7,0,0,0,.45,1.73,1.58,1.58,0,0,0,1.29.54,2.13,2.13,0,0,0,.94-.2,2.34,2.34,0,0,0,.76-.64l.63.77A2.75,2.75,0,0,1,39.91,63.66ZM39.77,57a1.25,1.25,0,0,0-1.11.52,3,3,0,0,0-.41,1.6h2.91V59a2.85,2.85,0,0,0-.38-1.51A1.16,1.16,0,0,0,39.77,57Z"/>
	<path d="M46.89,57.27a2.39,2.39,0,0,0-.55-.05,1.31,1.31,0,0,0-1.29,1v5.29H43.84v-7.4H45l0,.75A1.52,1.52,0,0,1,46.41,56a1.06,1.06,0,0,1,.47.1Z"/>
	<path d="M53.47,60.18a4.53,4.53,0,0,1-.62,2.61,2.09,2.09,0,0,1-1.81.87,1.9,1.9,0,0,1-1.76-1l-.06.88H48.11V53h1.21v3.91A1.89,1.89,0,0,1,51,56a2.07,2.07,0,0,1,1.82.87,4.53,4.53,0,0,1,.62,2.59Zm-1.21-.69a3.61,3.61,0,0,0-.36-1.87,1.32,1.32,0,0,0-1.19-.55,1.47,1.47,0,0,0-1.39,1v3.51a1.48,1.48,0,0,0,1.41,1A1.27,1.27,0,0,0,51.9,62a3.48,3.48,0,0,0,.36-1.79Z"/>
	<path d="M58.62,61.63a.92.92,0,0,0-.29-.67,4.72,4.72,0,0,0-1.14-.65,7.3,7.3,0,0,1-1.37-.69,1.87,1.87,0,0,1-.6-.66,1.8,1.8,0,0,1-.2-.87,1.94,1.94,0,0,1,.66-1.5,2.69,2.69,0,0,1,3.42,0,2.14,2.14,0,0,1,.66,1.62H58.55a1.22,1.22,0,0,0-.33-.86,1.15,1.15,0,0,0-.86-.35,1.16,1.16,0,0,0-.83.28.92.92,0,0,0-.31.74.84.84,0,0,0,.22.59,4,4,0,0,0,1.07.59,5.73,5.73,0,0,1,1.84,1,1.8,1.8,0,0,1,.48,1.28,2,2,0,0,1-.66,1.55A3,3,0,0,1,55.52,63a2.18,2.18,0,0,1-.72-1.68H56a1.24,1.24,0,0,0,1.37,1.31,1.38,1.38,0,0,0,.92-.27A.9.9,0,0,0,58.62,61.63Z"/>
</svg>