<svg xmlns="http://www.w3.org/2000/svg" viewBox="0 0 77.73 77.73">
	<defs>
		<style>
			.iconGreen {
				fill: hsl(125, 47%, 44%);
			}
		</style>
	</defs>
	<path class="iconGreen" d="M47.38,10.91H31.11a3.28,3.28,0,0,0-3.27,3.27V30.46a3.28,3.28,0,0,0,3.27,3.27H47.38a3.28,3.28,0,0,0,3.28-3.27V14.18A3.28,3.28,0,0,0,47.38,10.91ZM29.3,30.46V14.18a1.82,1.82,0,0,1,1.81-1.81H47.38a1.82,1.82,0,0,1,1.82,1.81V30.46a1.82,1.82,0,0,1-1.82,1.81H31.11A1.81,1.81,0,0,1,29.3,30.46Z"/>
	<circle class="iconGreen" cx="34.33" cy="14.37" r="0.86"/>
	<circle class="iconGreen" cx="39.25" cy="14.37" r="0.86"/>
	<circle class="iconGreen" cx="44.16" cy="14.37" r="0.86"/>
	<rect class="iconGreen" x="35.61" y="19.88" width="3.12" height="2.77"/>
	<rect class="iconGreen" x="39.77" y="19.88" width="3.12" height="2.77"/>
	<rect class="iconGreen" x="43.93" y="19.88" width="3.12" height="2.77"/>
	<rect class="iconGreen" x="31.45" y="23.58" width="3.12" height="2.77"/>
	<rect class="iconGreen" x="35.61" y="23.58" width="3.12" height="2.77"/>
	<rect class="iconGreen" x="39.77" y="23.58" width="3.12" height="2.77"/>
	<rect class="iconGreen" x="43.93" y="23.58" width="3.12" height="2.77"/>
	<rect class="iconGreen" x="31.45" y="27.28" width="3.12" height="2.77"/>
	<rect class="iconGreen" x="35.61" y="27.28" width="3.12" height="2.77"/>
	<rect class="iconGreen" x="39.77" y="27.28" width="3.12" height="2.77"/>
	<rect class="iconGreen" x="43.93" y="27.28" width="3.12" height="2.77"/>
	<path d="M32.45,45.41a5,5,0,0,1-.87,3.14,3,3,0,0,1-2.47,1.1,3,3,0,0,1-2.43-1.07,4.82,4.82,0,0,1-.93-3V43.68a5,5,0,0,1,.89-3.13,2.93,2.93,0,0,1,2.46-1.13,3,3,0,0,1,2.45,1.08,5,5,0,0,1,.9,3.1ZM31.2,43.67a4.28,4.28,0,0,0-.52-2.35,2,2,0,0,0-3.15,0,4.12,4.12,0,0,0-.53,2.3v1.78a4.21,4.21,0,0,0,.53,2.32,2,2,0,0,0,3.14.06,4.15,4.15,0,0,0,.53-2.26Z"/>
	<path d="M39.57,46.17a4.46,4.46,0,0,1-.63,2.62,2.1,2.1,0,0,1-1.79.86,2,2,0,0,1-1.72-.84v3.54h-1.2V42.11h1.09l.07.82a1.94,1.94,0,0,1,1.74-1,2.07,2.07,0,0,1,1.82.85,4.44,4.44,0,0,1,.62,2.53Zm-1.2-.69A3.43,3.43,0,0,0,38,43.64a1.35,1.35,0,0,0-1.23-.59,1.43,1.43,0,0,0-1.32.87v3.85a1.45,1.45,0,0,0,1.34.85A1.32,1.32,0,0,0,38,48a3.38,3.38,0,0,0,.4-1.8Z"/>
	<path d="M43.79,49.65a2.7,2.7,0,0,1-2.12-.83,3.56,3.56,0,0,1-.75-2.41v-.9a4.15,4.15,0,0,1,.72-2.59,2.38,2.38,0,0,1,2-.94,2.3,2.3,0,0,1,1.94.82,4.26,4.26,0,0,1,.66,2.58v.79H42.12v.18a2.71,2.71,0,0,0,.45,1.73,1.58,1.58,0,0,0,1.29.54,2.06,2.06,0,0,0,.94-.21,2.22,2.22,0,0,0,.76-.64l.63.77A2.76,2.76,0,0,1,43.79,49.65ZM43.65,43a1.27,1.27,0,0,0-1.11.51,3.09,3.09,0,0,0-.41,1.61H45V45a2.8,2.8,0,0,0-.38-1.5A1.17,1.17,0,0,0,43.65,43Z"/>
	<path d="M48.85,42.11l0,.8a2.17,2.17,0,0,1,1.8-.93c1.3,0,2,.87,2,2.62v4.91H51.47V44.65a2,2,0,0,0-.29-1.23,1,1,0,0,0-.87-.37,1.23,1.23,0,0,0-.81.3,2.17,2.17,0,0,0-.58.79v5.37H47.71v-7.4Z"/>
	<path d="M11.2,58.55l2-5h1.41L11.82,59.8v3.71H10.57V59.8L7.74,53.56H9.17Z"/>
	<path d="M18.44,63.65a2.71,2.71,0,0,1-2.12-.83,3.56,3.56,0,0,1-.75-2.41v-.9a4.15,4.15,0,0,1,.72-2.59,2.39,2.39,0,0,1,2-.94,2.31,2.31,0,0,1,1.94.82,4.27,4.27,0,0,1,.65,2.58v.79H16.77v.18a2.71,2.71,0,0,0,.45,1.73,1.58,1.58,0,0,0,1.29.54,2,2,0,0,0,.94-.21,2.13,2.13,0,0,0,.76-.64l.63.77A2.73,2.73,0,0,1,18.44,63.65ZM18.31,57a1.27,1.27,0,0,0-1.12.51,3.09,3.09,0,0,0-.41,1.61h2.91V59a2.72,2.72,0,0,0-.38-1.5A1.15,1.15,0,0,0,18.31,57Z"/>
	<path d="M26.17,63.51A2.76,2.76,0,0,1,26,62.7a1.93,1.93,0,0,1-1.64.95,2,2,0,0,1-2.14-2.16A2.26,2.26,0,0,1,23,59.7a3.16,3.16,0,0,1,2.1-.67H26v-.79a1.23,1.23,0,0,0-.3-.94,1.22,1.22,0,0,0-.89-.28,1.26,1.26,0,0,0-.89.32,1.09,1.09,0,0,0-.34.83H22.37a2,2,0,0,1,.33-1.09,2.35,2.35,0,0,1,.9-.81A2.79,2.79,0,0,1,24.87,56a2.42,2.42,0,0,1,1.72.56,2.21,2.21,0,0,1,.61,1.65v3.73a4.38,4.38,0,0,0,.23,1.48v.11Zm-1.61-1a1.65,1.65,0,0,0,.85-.25,1.56,1.56,0,0,0,.59-.61V59.92h-.69a2.29,2.29,0,0,0-1.36.39,1.23,1.23,0,0,0-.5,1,1.34,1.34,0,0,0,.26.91A1.07,1.07,0,0,0,24.56,62.55Z"/>
	<path d="M32.14,57.25a3.1,3.1,0,0,0-.54,0,1.32,1.32,0,0,0-1.3,1v5.29H29.09v-7.4h1.17l0,.76A1.5,1.5,0,0,1,31.66,56a1.14,1.14,0,0,1,.48.09Z"/>
	<path d="M35.6,59.8H32.78v-1H35.6Z"/>
	<path d="M40,59.48H38.27v4H37V53.56h2.79a3,3,0,0,1,2.21.76,3.05,3.05,0,0,1,.75,2.23,3.1,3.1,0,0,1-.4,1.61,2.61,2.61,0,0,1-1.16,1l1.93,4.23v.08H41.8Zm-1.75-1.07h1.52a1.64,1.64,0,0,0,1.26-.51,1.91,1.91,0,0,0,.46-1.35c0-1.28-.57-1.92-1.73-1.92H38.27Z"/>
	<path d="M44,59.47a3.87,3.87,0,0,1,.78-2.55A2.55,2.55,0,0,1,46.89,56a2.59,2.59,0,0,1,2.07.91,3.8,3.8,0,0,1,.8,2.5v.78A3.84,3.84,0,0,1,49,62.71a2.55,2.55,0,0,1-2.08.94,2.61,2.61,0,0,1-2.06-.91,3.78,3.78,0,0,1-.8-2.46Zm1.21.7A3.1,3.1,0,0,0,45.7,62a1.38,1.38,0,0,0,1.2.66c1.07,0,1.62-.78,1.65-2.32v-.83a3.12,3.12,0,0,0-.45-1.79A1.4,1.4,0,0,0,46.89,57a1.36,1.36,0,0,0-1.19.66,3.11,3.11,0,0,0-.45,1.78Z"/>
	<path d="M55.11,62.86a2.08,2.08,0,0,1-1.76.79,1.76,1.76,0,0,1-1.52-.7,3.43,3.43,0,0,1-.52-2V56.11h1.2v4.73c0,1.16.35,1.73,1,1.73a1.51,1.51,0,0,0,1.52-1V56.11h1.21v7.4H55.13Z"/>
	<path d="M59.26,56.11l0,.8a2.17,2.17,0,0,1,1.8-.93c1.3,0,2,.87,2,2.62v4.91H61.87V58.65a2,2,0,0,0-.29-1.23,1,1,0,0,0-.87-.37,1.23,1.23,0,0,0-.81.3,2.17,2.17,0,0,0-.58.79v5.37H58.11v-7.4Z"/>
	<path d="M64.65,59.48a4.45,4.45,0,0,1,.64-2.61A2.12,2.12,0,0,1,67.12,56a1.89,1.89,0,0,1,1.66.86V53H70v10.5H68.88l-.06-.79a1.91,1.91,0,0,1-1.7.93,2.09,2.09,0,0,1-1.8-.9,4.21,4.21,0,0,1-.67-2.51Zm1.21.68A3.48,3.48,0,0,0,66.23,62a1.31,1.31,0,0,0,1.2.58,1.44,1.44,0,0,0,1.35-.9V57.94a1.46,1.46,0,0,0-1.34-.89,1.34,1.34,0,0,0-1.21.58,3.51,3.51,0,0,0-.37,1.8Z"/>
</svg>